<svg xmlns="http://www.w3.org/2000/svg" width="18" height="18" viewBox="0 0 18 18">
    <g fill="none" fill-rule="evenodd">
        <g fill-rule="nonzero">
            <g>
                <path fill="#000" fill-opacity=".5" d="M5.59 4.5h6.819c.188 0 .341-.201.341-.45 0-.248-.153-.45-.341-.45H5.59c-.189 0-.341.202-.341.45 0 .249.152.45.34.45zM13.138 6.3H6.362c-.2 0-.362.201-.362.45 0 .248.162.45.362.45h6.776c.2 0 .362-.202.362-.45 0-.249-.162-.45-.362-.45zM11.655 9h-6.06c-.19 0-.345.201-.345.45s.154.45.345.45h6.06c.19 0 .345-.201.345-.45S11.845 9 11.655 9z" transform="translate(-1093 -1207) translate(1093 1207)"/>
                <path fill="#61676C" d="M15.491 0H2.51C1.126 0 0 1.196 0 2.668v8.21c0 1.471 1.126 2.668 2.509 2.668h7.656L15.689 18v-4.462C16.98 13.43 18 12.278 18 10.878v-8.21C18 1.196 16.874 0 15.491 0zm1.436 10.879c0 .79-.644 1.433-1.436 1.433h-.875v3.315l-4.113-3.315H2.51c-.792 0-1.436-.643-1.436-1.433V2.668c0-.791.644-1.434 1.436-1.434H15.49c.792 0 1.436.643 1.436 1.434v8.21z" transform="translate(-1093 -1207) translate(1093 1207)"/>
            </g>
        </g>
    </g>
</svg>
