<?xml version="1.0" standalone="no"?>
<!DOCTYPE svg PUBLIC "-//W3C//DTD SVG 20010904//EN"
 "http://www.w3.org/TR/2001/REC-SVG-20010904/DTD/svg10.dtd">
<svg version="1.0" xmlns="http://www.w3.org/2000/svg"
 width="2284.000000pt" height="2284.000000pt" viewBox="0 0 2284.000000 2284.000000"
 preserveAspectRatio="xMidYMid meet">
<metadata>
Created by potrace 1.11, written by Peter Selinger 2001-2013
</metadata>
<g transform="translate(0.000000,2284.000000) scale(0.100000,-0.100000)"
fill="#000000" stroke="none">
<path d="M11158 22485 c-2 -2 -75 -6 -163 -10 -88 -3 -180 -8 -205 -10 -24 -2
-85 -6 -135 -10 -111 -7 -176 -13 -235 -20 -25 -2 -70 -7 -100 -10 -30 -3 -71
-7 -90 -10 -19 -2 -60 -7 -90 -10 -30 -4 -82 -10 -115 -15 -33 -5 -80 -12
-104 -15 -23 -3 -55 -7 -70 -9 -14 -3 -44 -7 -66 -11 -23 -3 -50 -7 -60 -9
-11 -2 -54 -9 -95 -16 -41 -6 -109 -18 -150 -26 -41 -7 -86 -16 -100 -18 -167
-30 -565 -121 -795 -182 -602 -160 -1267 -401 -1835 -665 -153 -71 -658 -327
-670 -339 -3 -3 -16 -11 -30 -17 -54 -27 -243 -136 -425 -246 -282 -171 -743
-488 -985 -675 -77 -60 -336 -267 -346 -276 -6 -6 -33 -29 -60 -51 -45 -37
-123 -104 -134 -115 -3 -3 -43 -39 -90 -80 -293 -257 -697 -661 -945 -944 -33
-38 -64 -74 -70 -80 -336 -369 -818 -1031 -1147 -1576 -183 -303 -488 -880
-582 -1100 -11 -25 -35 -79 -54 -120 -69 -151 -270 -646 -287 -710 -2 -8 -27
-80 -55 -160 -60 -169 -149 -449 -185 -582 -43 -155 -77 -282 -81 -301 -2 -10
-6 -27 -9 -37 -3 -10 -8 -27 -10 -37 -3 -16 -62 -266 -71 -303 -5 -24 -74
-372 -80 -405 -2 -16 -9 -55 -14 -85 -5 -30 -12 -73 -15 -95 -4 -22 -8 -47
-10 -55 -2 -8 -7 -37 -10 -65 -4 -27 -13 -90 -20 -140 -8 -49 -16 -117 -20
-150 -3 -33 -7 -71 -10 -85 -2 -14 -6 -50 -9 -80 -14 -133 -18 -177 -21 -215
-5 -64 -16 -206 -20 -260 -20 -245 -26 -941 -12 -1235 12 -240 21 -384 33
-485 2 -22 6 -65 9 -95 2 -30 7 -77 11 -105 3 -27 7 -68 9 -90 6 -61 14 -127
35 -270 11 -72 22 -146 24 -165 7 -50 16 -111 21 -140 3 -14 7 -38 10 -55 3
-16 7 -39 9 -50 2 -11 11 -58 20 -105 28 -150 59 -298 82 -397 9 -37 18 -77
20 -88 2 -11 18 -74 34 -140 17 -66 33 -128 35 -138 9 -39 88 -319 116 -412
369 -1208 930 -2328 1683 -3360 44 -60 84 -114 88 -120 5 -5 59 -75 120 -155
62 -80 115 -147 118 -150 3 -3 35 -41 70 -85 35 -44 67 -82 70 -85 3 -3 32
-36 65 -75 306 -359 680 -742 1035 -1061 30 -27 57 -51 60 -54 32 -33 437
-371 529 -440 18 -14 38 -30 44 -35 99 -86 713 -517 869 -610 9 -5 104 -62
210 -127 106 -64 216 -129 243 -144 28 -15 97 -54 155 -87 110 -62 628 -322
740 -371 36 -16 133 -57 215 -93 83 -35 159 -68 170 -73 138 -66 741 -278
1035 -365 360 -106 836 -223 1105 -270 17 -3 41 -7 55 -10 82 -15 262 -45 300
-50 25 -3 52 -8 60 -10 8 -2 40 -7 70 -10 30 -3 79 -10 108 -15 29 -5 56 -9
60 -8 4 1 25 -1 47 -5 22 -4 65 -9 95 -12 30 -3 73 -8 95 -10 134 -14 377 -35
470 -40 33 -2 121 -7 195 -11 261 -15 1079 -8 1235 11 17 2 79 6 139 10 60 4
117 8 126 10 9 2 54 6 101 10 46 3 91 8 99 10 8 2 50 7 93 10 43 4 86 8 97 10
19 4 74 11 150 20 25 3 56 7 70 9 14 3 45 7 70 11 25 3 135 21 245 41 110 19
211 36 225 39 34 5 69 12 175 35 50 10 101 21 115 24 197 37 744 185 1025 276
288 94 685 240 832 307 28 12 55 23 58 23 3 0 25 8 48 19 23 10 116 51 207 91
146 65 629 304 750 372 25 14 68 38 95 53 616 342 1239 776 1785 1244 74 63
140 120 146 126 6 5 53 48 105 95 237 215 641 619 779 780 12 14 36 41 54 60
31 34 154 175 187 215 9 11 36 42 59 70 86 100 240 294 353 445 64 85 121 160
125 165 4 6 51 71 104 145 238 336 480 723 675 1080 17 30 41 75 55 100 46 81
226 440 221 440 -2 0 5 13 16 29 12 16 21 33 21 38 0 5 13 36 29 69 25 53 59
127 126 279 12 28 45 109 75 180 29 72 58 144 65 160 43 101 170 458 248 700
93 284 234 820 280 1065 3 14 12 59 21 100 8 41 20 102 26 135 6 33 13 69 15
80 2 11 9 49 15 85 5 36 12 74 14 85 2 11 7 43 11 70 4 28 9 59 10 70 10 62
15 98 25 170 17 125 18 136 25 210 4 39 9 72 10 75 2 3 6 50 10 105 4 55 9
107 10 116 2 9 6 63 10 120 4 57 9 120 11 139 24 246 24 1191 0 1430 -2 19 -7
80 -10 135 -4 56 -9 116 -11 135 -3 19 -7 66 -10 105 -3 38 -7 81 -9 95 -3 14
-7 54 -11 90 -4 36 -8 76 -10 90 -1 14 -6 50 -10 80 -3 30 -8 66 -10 80 -2 14
-11 73 -20 132 -8 59 -17 113 -19 120 -3 7 -7 33 -10 58 -6 54 -25 162 -51
290 -3 14 -8 39 -10 55 -24 133 -118 532 -170 720 -20 72 -38 138 -40 148 -9
40 -99 330 -145 467 -132 398 -269 744 -462 1170 -93 204 -343 686 -457 878
-17 29 -31 54 -31 56 0 4 -153 257 -185 306 -153 236 -267 406 -337 505 -92
131 -257 357 -267 365 -3 3 -20 23 -36 45 -16 22 -35 47 -42 55 -6 8 -33 42
-59 75 -26 33 -79 98 -118 145 -39 46 -78 93 -86 103 -8 11 -31 38 -51 61
-368 424 -716 776 -1120 1131 -205 181 -404 346 -549 454 -41 31 -77 58 -80
61 -10 10 -266 197 -350 256 -209 146 -210 146 -489 322 -116 72 -215 132
-221 132 -5 0 -10 5 -10 10 0 6 -4 10 -9 10 -5 0 -42 19 -83 43 -91 54 -149
86 -258 144 -47 25 -89 49 -95 53 -13 10 -436 221 -517 259 -355 162 -718 309
-1028 416 -107 37 -204 71 -215 75 -11 5 -29 11 -40 13 -11 3 -109 33 -219 66
-109 34 -208 63 -220 65 -11 3 -73 19 -136 36 -63 18 -122 33 -130 35 -8 2
-64 16 -125 30 -60 15 -121 29 -134 31 -13 3 -54 11 -90 19 -36 8 -100 22
-141 30 -41 8 -86 17 -100 20 -98 20 -212 40 -305 55 -108 18 -107 18 -155 24
-50 7 -115 17 -144 22 -21 4 -343 40 -436 49 -30 3 -73 8 -95 10 -38 4 -81 7
-265 20 -209 14 -293 17 -632 19 -202 2 -369 2 -370 1z m532 -1520 c129 -3
260 -7 290 -10 61 -5 196 -14 280 -20 62 -5 167 -16 191 -20 8 -2 49 -6 90
-10 40 -4 76 -8 79 -10 3 -2 34 -6 70 -9 36 -4 94 -11 130 -17 36 -6 81 -12
100 -15 19 -2 49 -7 65 -11 17 -3 39 -7 50 -8 19 -3 226 -40 270 -49 11 -2 54
-12 95 -21 41 -9 89 -19 105 -22 46 -7 564 -139 615 -156 25 -8 92 -29 150
-47 190 -58 523 -172 585 -200 11 -5 63 -25 115 -46 143 -55 289 -117 438
-185 35 -16 66 -29 68 -29 18 0 618 -310 719 -371 16 -10 37 -22 45 -26 74
-34 695 -429 770 -490 8 -6 71 -53 140 -102 196 -143 527 -408 675 -541 219
-198 305 -280 460 -435 186 -186 322 -331 441 -470 38 -44 74 -85 79 -91 22
-24 97 -114 169 -204 42 -52 84 -104 93 -114 41 -49 278 -373 349 -476 590
-858 1023 -1766 1324 -2777 28 -95 53 -180 55 -190 2 -10 24 -99 49 -198 24
-99 47 -191 50 -205 3 -14 7 -34 10 -45 9 -43 66 -322 70 -350 3 -16 14 -84
25 -150 11 -66 23 -140 26 -165 3 -25 8 -56 10 -70 2 -14 7 -45 10 -70 3 -25
7 -61 10 -80 8 -66 15 -126 30 -280 2 -25 7 -76 10 -115 3 -38 7 -96 10 -127
13 -161 19 -364 18 -648 -1 -287 -5 -417 -18 -600 -10 -133 -16 -216 -20 -250
-2 -19 -6 -66 -10 -105 -3 -38 -8 -81 -11 -95 -2 -14 -6 -50 -9 -81 -3 -31 -7
-64 -9 -75 -2 -11 -7 -47 -11 -79 -4 -33 -9 -67 -10 -75 -3 -18 -15 -94 -21
-135 -4 -29 -69 -387 -78 -431 -102 -507 -279 -1098 -483 -1614 -68 -173 -96
-238 -118 -280 -7 -14 -14 -29 -15 -35 -1 -5 -17 -44 -36 -85 -19 -41 -47
-102 -62 -135 -29 -66 -201 -407 -249 -495 -113 -205 -190 -337 -297 -510
-111 -179 -262 -403 -386 -575 -98 -135 -335 -443 -355 -460 -6 -5 -31 -35
-55 -65 -42 -52 -210 -245 -310 -355 -78 -86 -541 -547 -630 -627 -106 -94
-308 -267 -386 -330 -32 -26 -88 -71 -124 -100 -36 -29 -117 -91 -180 -138
-63 -47 -119 -88 -125 -93 -5 -4 -35 -25 -65 -47 -30 -22 -59 -43 -65 -48 -5
-4 -95 -64 -200 -133 -257 -170 -492 -313 -695 -422 -30 -16 -74 -40 -97 -54
-142 -80 -527 -264 -778 -370 -127 -54 -370 -152 -390 -157 -5 -2 -17 -6 -25
-9 -49 -19 -343 -120 -440 -150 -298 -94 -619 -178 -879 -232 -9 -2 -38 -9
-66 -15 -27 -6 -61 -14 -75 -16 -14 -3 -61 -12 -105 -20 -109 -21 -184 -34
-220 -39 -31 -5 -99 -15 -125 -20 -8 -2 -37 -6 -65 -9 -27 -4 -63 -9 -80 -12
-16 -3 -43 -7 -60 -9 -28 -3 -95 -10 -190 -21 -152 -17 -204 -22 -295 -29 -47
-4 -105 -9 -130 -11 -284 -24 -959 -24 -1285 1 -33 2 -94 7 -135 10 -41 3 -91
7 -110 10 -19 2 -64 7 -100 10 -36 3 -76 7 -90 10 -14 2 -52 7 -85 10 -197 20
-615 91 -860 145 -49 11 -99 22 -110 24 -120 23 -609 159 -813 225 -127 42
-380 130 -417 146 -16 7 -95 38 -175 70 -80 31 -161 64 -180 72 -19 8 -44 19
-55 23 -11 5 -51 23 -90 41 -38 17 -86 38 -105 46 -181 77 -677 337 -935 490
-374 222 -907 594 -1156 807 -20 17 -56 47 -79 66 -378 311 -865 786 -1145
1118 -16 20 -57 68 -91 106 -164 192 -458 579 -619 817 -74 110 -259 398 -266
414 -2 6 -34 60 -70 120 -68 114 -86 146 -199 355 -293 542 -606 1318 -761
1888 -67 247 -151 591 -165 682 -3 19 -8 38 -10 41 -2 4 -6 26 -9 49 -3 24 -7
46 -9 49 -2 3 -7 31 -11 61 -4 30 -8 57 -10 60 -2 3 -6 25 -10 50 -4 25 -8 47
-10 50 -2 3 -6 34 -10 70 -4 36 -9 68 -11 71 -1 3 -8 43 -14 90 -5 46 -12 100
-15 119 -9 72 -13 107 -20 175 -4 39 -9 78 -11 87 -1 10 -6 60 -9 111 -4 52
-8 107 -10 123 -2 16 -7 83 -10 149 -4 66 -8 149 -10 185 -5 89 -6 700 -1 780
2 36 7 125 11 199 4 74 8 142 10 150 1 9 6 61 10 116 4 55 8 107 10 116 2 9 6
52 10 95 3 43 8 86 10 94 2 8 7 42 10 75 4 33 8 71 11 85 2 14 7 43 9 65 3 22
8 51 10 65 5 28 21 134 31 195 5 33 26 145 68 355 19 100 34 165 36 165 1 0 3
10 6 23 2 13 20 87 40 165 20 78 37 147 38 152 11 42 23 87 58 205 22 74 41
140 43 145 1 6 4 17 7 25 4 8 29 85 56 170 90 275 208 583 334 869 104 235
368 760 419 833 11 14 19 29 19 32 0 14 224 379 345 561 286 431 591 822 940
1205 76 83 500 507 586 586 1197 1093 2593 1851 4153 2253 85 22 165 42 178
45 13 2 50 11 83 19 48 13 301 64 400 82 65 12 145 25 180 30 69 11 99 15 125
20 31 5 81 12 145 20 28 3 61 8 75 10 35 6 133 17 270 30 36 3 79 8 95 10 17
2 80 7 140 11 61 3 126 8 145 10 19 2 145 7 280 10 135 4 247 8 248 10 2 1 9
1 15 -1 7 -2 118 -6 247 -10z"/>
<path d="M14198 17135 c-2 -1 -59 -6 -128 -9 -69 -4 -141 -9 -160 -10 -19 -2
-71 -7 -115 -11 -44 -4 -87 -8 -95 -10 -8 -1 -42 -6 -75 -9 -58 -7 -164 -22
-215 -31 -14 -3 -54 -10 -90 -15 -36 -6 -96 -17 -135 -26 -38 -8 -79 -16 -90
-18 -281 -54 -745 -196 -1055 -323 -225 -93 -538 -239 -680 -320 -19 -11 -62
-35 -95 -53 -219 -120 -532 -325 -776 -506 -411 -306 -872 -548 -1339 -704
-158 -52 -440 -129 -530 -144 -19 -3 -46 -8 -60 -11 -25 -5 -175 -30 -240 -39
-19 -3 -66 -8 -105 -11 -38 -4 -72 -8 -75 -10 -3 -2 -66 -7 -140 -11 -229 -14
-674 -8 -840 11 -19 2 -64 6 -100 10 -36 3 -76 8 -90 10 -14 2 -50 6 -80 10
-70 8 -72 9 -283 45 -214 36 -466 92 -712 156 -162 42 -192 47 -295 47 -134 1
-205 -15 -325 -72 -156 -74 -288 -208 -359 -364 -35 -74 -45 -128 -46 -223 -1
-310 163 -578 429 -702 103 -48 636 -180 936 -232 33 -5 69 -12 80 -14 11 -2
40 -7 65 -11 25 -4 54 -9 65 -11 11 -2 40 -7 65 -10 25 -3 52 -7 60 -9 8 -2
42 -7 75 -11 33 -3 68 -8 79 -10 10 -2 44 -6 75 -10 31 -3 70 -8 86 -10 17 -2
66 -6 110 -10 44 -3 96 -8 115 -10 257 -25 885 -25 1135 1 45 5 131 14 190 21
44 5 106 13 145 19 14 2 45 7 70 10 90 13 308 55 415 80 61 15 118 28 127 30
70 15 351 98 453 135 28 10 91 32 140 50 100 36 286 112 391 160 228 104 429
211 649 343 146 88 312 199 458 304 219 159 601 413 622 413 2 0 30 15 62 34
470 272 1144 513 1653 590 19 3 46 8 60 10 14 3 63 10 110 16 47 6 99 13 115
15 239 34 855 39 1075 10 19 -3 67 -7 105 -10 39 -3 97 -10 130 -15 33 -5 80
-12 105 -15 25 -3 70 -10 100 -15 30 -5 71 -12 90 -15 19 -4 107 -22 195 -41
88 -19 171 -37 185 -40 14 -2 99 -25 190 -50 307 -86 296 -84 410 -80 191 8
356 77 485 205 81 81 126 153 165 264 37 108 41 125 44 227 10 278 -149 542
-397 659 -135 64 -807 233 -1057 266 -19 3 -55 9 -80 14 -39 9 -76 14 -165 26
-11 2 -38 6 -60 9 -22 3 -60 8 -85 11 -43 4 -105 11 -180 20 -19 3 -75 7 -125
11 -49 3 -110 8 -135 10 -53 5 -698 13 -702 9z"/>
<path d="M14617 13274 c-1 -1 -69 -4 -152 -8 -82 -4 -170 -9 -195 -11 -147
-12 -188 -15 -210 -19 -14 -3 -52 -8 -85 -11 -33 -3 -71 -7 -85 -10 -14 -2
-47 -7 -75 -10 -27 -3 -88 -13 -135 -21 -47 -8 -107 -19 -135 -24 -27 -5 -63
-11 -80 -14 -53 -10 -407 -95 -505 -122 -182 -49 -610 -197 -735 -254 -11 -5
-72 -30 -135 -57 -177 -74 -545 -260 -750 -379 -102 -60 -189 -112 -195 -116
-5 -4 -106 -72 -223 -150 -117 -79 -286 -192 -375 -253 -187 -126 -405 -254
-592 -348 -134 -67 -283 -137 -291 -137 -3 0 -29 -11 -57 -24 -251 -115 -819
-287 -1057 -321 -25 -3 -52 -8 -61 -11 -10 -3 -31 -6 -49 -9 -17 -2 -43 -6
-58 -9 -24 -5 -58 -10 -142 -21 -14 -2 -54 -7 -90 -10 -35 -4 -67 -8 -70 -10
-42 -26 -1008 -26 -1110 0 -8 2 -46 6 -83 10 -37 3 -77 8 -87 10 -10 2 -45 6
-77 10 -32 3 -65 8 -73 10 -8 2 -33 6 -55 10 -367 53 -864 184 -1275 335 -110
41 -263 101 -305 120 -11 5 -60 27 -110 49 -49 21 -166 76 -259 120 -191 93
-279 119 -408 119 -200 1 -386 -75 -514 -210 -69 -73 -95 -111 -136 -198 -30
-65 -43 -104 -64 -195 -14 -56 -10 -195 7 -271 39 -180 114 -300 259 -416 87
-70 503 -266 880 -415 363 -144 907 -317 1188 -378 325 -71 590 -121 697 -131
33 -3 67 -7 75 -9 14 -4 50 -9 145 -20 22 -2 76 -7 120 -10 44 -4 91 -9 105
-11 144 -24 930 -23 1105 1 17 2 59 6 95 10 36 3 81 7 100 9 153 18 183 22
248 31 24 4 52 8 62 10 9 2 35 6 56 10 293 46 691 144 979 240 151 50 351 124
412 150 21 9 47 21 58 25 324 127 727 338 1110 581 94 59 208 135 255 168 47
33 93 66 104 73 10 7 37 26 60 42 270 192 612 389 941 541 239 110 668 264
865 310 8 2 53 12 100 24 117 28 181 42 210 46 14 3 36 7 50 10 14 3 41 8 60
11 19 3 60 9 90 14 92 16 112 18 210 30 243 28 366 34 650 34 289 0 541 -14
700 -39 14 -2 45 -6 70 -9 58 -7 120 -15 145 -21 11 -2 43 -7 70 -10 28 -4 66
-10 85 -15 29 -7 109 -20 137 -22 5 0 17 -4 29 -8 11 -5 38 -11 58 -14 98 -16
459 -115 686 -188 192 -62 502 -179 655 -248 22 -10 74 -32 115 -50 170 -74
469 -228 640 -330 182 -109 255 -135 396 -139 235 -7 443 87 602 274 47 54
115 195 128 265 3 14 9 42 14 63 11 50 10 181 -1 243 -19 106 -78 252 -116
292 -7 7 -13 17 -13 21 0 4 -28 37 -62 72 -61 63 -133 118 -228 171 -25 14
-110 63 -190 108 -390 222 -899 447 -1379 611 -137 47 -486 154 -534 163 -12
3 -65 16 -117 29 -150 39 -424 99 -560 121 -19 3 -46 8 -60 11 -14 3 -41 7
-60 10 -19 3 -46 7 -60 9 -14 3 -45 8 -70 11 -25 3 -56 8 -70 10 -52 10 -251
33 -345 40 -39 3 -92 7 -120 10 -131 13 -736 29 -748 19z"/>
<path d="M14718 9335 c-2 -1 -59 -6 -128 -9 -69 -4 -145 -9 -170 -11 -74 -6
-163 -15 -200 -20 -19 -3 -57 -7 -85 -10 -76 -9 -226 -33 -375 -61 -74 -15
-144 -28 -155 -30 -63 -12 -367 -90 -479 -124 -243 -73 -549 -185 -746 -273
-497 -223 -892 -454 -1350 -788 -426 -311 -834 -543 -1265 -720 -248 -102
-639 -221 -865 -264 -14 -3 -59 -12 -100 -20 -41 -7 -102 -18 -135 -24 -56 -9
-83 -13 -202 -26 -27 -3 -61 -8 -78 -10 -212 -28 -685 -33 -945 -10 -90 7
-169 15 -210 21 -19 3 -57 7 -85 10 -27 3 -61 7 -74 9 -13 2 -43 7 -65 10 -23
4 -48 8 -56 9 -8 2 -33 6 -55 10 -177 33 -277 54 -455 98 -315 78 -447 74
-645 -21 -127 -60 -217 -140 -304 -268 -82 -121 -106 -202 -105 -358 1 -214
67 -367 224 -525 94 -94 197 -156 318 -191 71 -20 260 -68 302 -75 14 -3 41
-9 60 -14 30 -8 149 -32 265 -54 185 -36 467 -75 635 -90 41 -4 91 -9 110 -11
214 -25 803 -26 1085 -1 22 2 72 7 110 10 39 4 86 9 105 11 19 3 53 7 75 10
56 5 317 44 335 50 8 2 31 7 50 10 30 5 243 49 290 60 165 38 475 126 603 171
438 156 790 312 1112 496 44 25 96 55 115 66 134 76 462 291 580 379 331 247
587 407 925 578 508 256 1045 425 1595 500 25 3 56 8 70 10 14 2 59 7 100 11
41 3 89 8 105 10 206 21 624 20 865 -1 206 -18 266 -25 405 -46 92 -14 99 -15
170 -28 33 -6 76 -13 95 -16 49 -9 379 -84 415 -96 27 -8 248 -71 300 -85 190
-51 454 9 610 139 117 97 178 187 230 339 43 126 49 160 49 288 -1 291 -179
529 -474 633 -158 56 -683 185 -910 223 -25 4 -47 8 -50 9 -11 3 -87 15 -124
21 -21 3 -46 7 -55 9 -9 2 -44 6 -76 10 -33 4 -69 9 -80 11 -11 2 -45 6 -75
10 -30 3 -66 7 -80 9 -14 2 -52 6 -85 9 -77 7 -188 17 -245 22 -54 5 -717 14
-722 9z"/>
</g>
</svg>
