<?xml version="1.0" encoding="UTF-8"?>
<svg width="18px" height="18px" viewBox="0 0 18 18" version="1.1" xmlns="http://www.w3.org/2000/svg" xmlns:xlink="http://www.w3.org/1999/xlink">
    <!-- Generator: Sketch 63.1 (92452) - https://sketch.com -->
    <title>Group 5</title>
    <desc>Created with Sketch.</desc>
    <g id="Page-1" stroke="none" stroke-width="1" fill="none" fill-rule="evenodd">
        <g id="My-initiatives-/-Current" transform="translate(-1240.000000, -318.000000)" fill-rule="nonzero">
            <g id="Group-2" transform="translate(1048.000000, 244.000000)">
                <g id="Group-6" transform="translate(70.000000, 72.000000)">
                    <g id="iconfinder_plus_1646001" transform="translate(122.000000, 2.000000)">
                        <g id="Group-5">
                            <circle id="Oval" fill="#F7B500" cx="9" cy="9" r="9"></circle>
                            <path d="M13.5709091,8.57090909 L9.42909091,8.57090909 L9.42909091,4.42909091 C9.42909091,4.19272727 9.23636364,4 9,4 C8.76363636,4 8.57090909,4.19272727 8.57090909,4.42909091 L8.57090909,8.57090909 L4.42909091,8.57090909 C4.19272727,8.57090909 4,8.76363636 4,9 C4,9.23636364 4.19272727,9.42909091 4.42909091,9.42909091 L8.57090909,9.42909091 L8.57090909,13.5709091 C8.57090909,13.8072727 8.76363636,14 9,14 C9.23636364,14 9.42909091,13.8072727 9.42909091,13.5709091 L9.42909091,9.42909091 L13.5709091,9.42909091 C13.8072727,9.42909091 14,9.23636364 14,9 C14,8.76363636 13.8072727,8.57090909 13.5709091,8.57090909 Z" id="Path" fill="#FFFFFF"></path>
                        </g>
                    </g>
                </g>
            </g>
        </g>
    </g>
</svg>