<svg xmlns="http://www.w3.org/2000/svg" width="18" height="20" viewBox="0 0 18 20">
    <g fill="none" fill-rule="evenodd">
        <g fill="#000" fill-rule="nonzero">
            <g>
                <g>
                    <g>
                        <path d="M10.791 18.157c0 .009.003.017.003.026C10.794 19.186 9.991 20 9 20c-.99 0-1.794-.814-1.794-1.817l.002-.026C1.47 17.998 0 17.054 0 15.91c0-.359.155-.696.531-.998 2.713-3.053 3.519-2.208 3.519-6.73 0-3.015.122-5.78 3.716-6.277-.071-.167-.112-.35-.112-.542C7.654.61 8.258 0 9 0c.743 0 1.345.61 1.345 1.363 0 .192-.04.375-.111.542 3.594.497 3.716 3.262 3.716 6.277 0 4.536.81 3.67 3.542 6.756.358.295.508.623.508.972 0 1.143-1.509 2.087-7.209 2.247zM9 19.092c.496 0 .897-.407.897-.908v-.009c-.294.005-.584.01-.897.01-.313 0-.603-.005-.896-.01l-.001.009c0 .501.401.908.897.908zM9 .908c-.248 0-.448.203-.448.454s.2.455.448.455.449-.204.449-.455c0-.25-.201-.454-.449-.454zm7.922 14.734s-.685-.78-1.808-1.812c-1.533-1.411-2.064-2.08-2.064-5.648 0-3.485-.188-5.456-4.05-5.456-3.862 0-4.05 1.971-4.05 5.456 0 3.568-.531 4.238-2.066 5.65-1.1 1.013-1.793 1.792-1.793 1.792-.191.153-.191.242-.191.286 0 .055.092 1.365 8.1 1.365s8.1-1.31 8.1-1.365c0-.037 0-.122-.178-.268z" transform="translate(-318 -33) translate(318 31) translate(0 2)"/>
                    </g>
                </g>
            </g>
        </g>
    </g>
</svg>
