<svg id="Page-1" xmlns="http://www.w3.org/2000/svg" width="12" height="18" viewBox="0 0 12 18">
  <g id="Setting" transform="translate(-468 -35)">
    <g id="Group-7">
      <g id="victory-copy" transform="translate(468 35)">
        <path id="Shape" d="M10.4,6a1.666,1.666,0,0,0-.9.258,1.583,1.583,0,0,0-1.418-1L8.77,2.053a1.377,1.377,0,0,0,.03-.281V1.43A1.479,1.479,0,0,0,7.277,0,1.506,1.506,0,0,0,5.8,1.083L4.443,6.167,3.4,1.3A1.7,1.7,0,0,0,1.718,0,1.67,1.67,0,0,0,0,1.611v.141a1.5,1.5,0,0,0,.034.316L1.566,9.25l-.317.3A3.851,3.851,0,0,0,0,12.375,5.828,5.828,0,0,0,6,18a5.827,5.827,0,0,0,6-5.622V9h0V7.5A1.554,1.554,0,0,0,10.4,6Zm-1.6.75V9a.782.782,0,0,1-.8.743A1.465,1.465,0,0,0,7.2,8.5V6.75a.8.8,0,0,1,1.6,0ZM6.576,1.266a.715.715,0,0,1,.7-.514A.7.7,0,0,1,8,1.43v.343a.619.619,0,0,1-.014.133L7.232,5.442A1.484,1.484,0,0,0,6.4,6.75V8.177l-.155-.055A4.178,4.178,0,0,0,4.81,7.891ZM.818,1.922A.794.794,0,0,1,.8,1.754V1.613A.892.892,0,0,1,1.719.752a.908.908,0,0,1,.9.692L4.008,7.951a.221.221,0,0,0,.01.024,4.087,4.087,0,0,0-1.354.533l-.389.243ZM11.2,12.377A5.051,5.051,0,0,1,6,17.252,5.051,5.051,0,0,1,.8,12.377a3.127,3.127,0,0,1,1.014-2.3l.453-.425.84-.525a3.333,3.333,0,0,1,2.856-.308l.68.239h0l.046.016a.741.741,0,0,1,.507.686.759.759,0,0,1-.782.733,3.436,3.436,0,0,0-2.363.918l-.738.692a.359.359,0,0,0,0,.53.42.42,0,0,0,.566,0l.738-.692a2.614,2.614,0,0,1,1.8-.7A1.593,1.593,0,0,0,7.8,10.481,1.694,1.694,0,0,0,8,10.5a1.636,1.636,0,0,0,1.2-.518,1.638,1.638,0,0,0,1.2.518,1.663,1.663,0,0,0,.8-.208v2.086ZM11.2,9A.8.8,0,0,1,9.6,9V7.5a.8.8,0,0,1,1.6,0V9Z" fill="rgba(98,54,255,0.65)"/>
      </g>
    </g>
  </g>
</svg>
