<svg xmlns="http://www.w3.org/2000/svg" width="24" height="24" viewBox="0 0 24 24">
  <g id="bluehands" transform="translate(-1949 -897)">
    <circle id="Ellipse_1" data-name="Ellipse 1" cx="12" cy="12" r="12" transform="translate(1949 897)" fill="rgba(98,54,255,0.08)"/>
    <g id="Setting" transform="translate(1487 866.001)">
      <g id="Group-7" transform="translate(468 34.999)">
        <g id="victory-copy">
          <path id="Shape" d="M10.4,5.332a1.823,1.823,0,0,0-.9.229,1.585,1.585,0,0,0-1.418-.889L8.77,1.824a1.093,1.093,0,0,0,.03-.25v-.3A1.417,1.417,0,0,0,7.277,0,1.5,1.5,0,0,0,5.8.962L4.443,5.481,3.4,1.155A1.677,1.677,0,0,0,1.718,0,1.6,1.6,0,0,0,0,1.432v.125a1.191,1.191,0,0,0,.034.281L1.566,8.221l-.317.267A3.263,3.263,0,0,0,0,11c.11,2.85,2.792,5.085,6,5,3.207.086,5.889-2.147,6-5V8h0V6.665A1.489,1.489,0,0,0,10.4,5.332ZM8.8,6V8a.75.75,0,0,1-.8.66,1.3,1.3,0,0,0-.8-1.1V6A.759.759,0,0,1,8,5.288.759.759,0,0,1,8.8,6ZM6.576,1.125a.711.711,0,0,1,.7-.457.752.752,0,0,1,.5.168A.594.594,0,0,1,8,1.271v.3a.491.491,0,0,1-.014.118L7.232,4.836A1.317,1.317,0,0,0,6.4,6V7.267l-.155-.049A4.657,4.657,0,0,0,4.81,7.013ZM.818,1.708A.63.63,0,0,1,.8,1.559V1.433A.855.855,0,0,1,1.719.668a.9.9,0,0,1,.9.615L4.008,7.066a.185.185,0,0,0,.01.021,4.4,4.4,0,0,0-1.354.474l-.389.216ZM11.2,11A4.839,4.839,0,0,1,6,15.332,4.839,4.839,0,0,1,.8,11,2.649,2.649,0,0,1,1.814,8.956l.453-.378.84-.467a3.7,3.7,0,0,1,2.856-.274l.68.212h0l.046.014a.673.673,0,0,1,.507.61.727.727,0,0,1-.782.651,3.685,3.685,0,0,0-2.363.816l-.738.615a.3.3,0,0,0,0,.471.46.46,0,0,0,.566,0l.738-.615a2.8,2.8,0,0,1,1.8-.622A1.648,1.648,0,0,0,7.8,9.315a1.9,1.9,0,0,0,.2.017,1.739,1.739,0,0,0,1.2-.46,1.741,1.741,0,0,0,1.2.46,1.829,1.829,0,0,0,.8-.185Zm0-3A.806.806,0,0,1,9.6,8V6.665a.806.806,0,0,1,1.6,0V8Z" transform="translate(0 0.001)" fill="#6236ff"/>
        </g>
      </g>
    </g>
  </g>
</svg>
