<svg id="Page-1" xmlns="http://www.w3.org/2000/svg" width="18" height="18" viewBox="0 0 18 18">
  <g id="Setting" transform="translate(-646 -34)">
    <g id="Group-7">
      <g id="iconfinder_47.Explore_290103-Copy" transform="translate(646 34)">
        <path id="Shape" d="M9,18a9,9,0,1,1,9-9A9,9,0,0,1,9,18ZM9,.857A8.143,8.143,0,1,0,17.143,9,8.143,8.143,0,0,0,9,.857Zm6.857,8.571h-.428a.429.429,0,1,1,0-.857h.428a.429.429,0,1,1,0,.857Zm-2.58,3.516a.405.405,0,0,1-.112.22.418.418,0,0,1-.484.074l.025.025,0,0h0l-.2-.084a26.551,26.551,0,0,1-4.229-2.116,4.847,4.847,0,0,1-.769-.58c-.019-.019-1.066-1.034-2.779-5.2h0l.029.029c0-.009-.005-.018-.009-.027a.414.414,0,0,1-.016-.283.4.4,0,0,1,.1-.174.415.415,0,0,1,.472-.078l.012,0-.01-.011-.018-.018h0c4.163,1.713,5.178,2.76,5.2,2.779s1.066,1.034,2.779,5.2h0l-.019-.019-.01-.009a.449.449,0,0,1,.021.063A.422.422,0,0,1,13.277,12.945Zm-3.4-4.83A15.211,15.211,0,0,0,5.94,5.94,15.1,15.1,0,0,0,8.123,9.886,15.192,15.192,0,0,0,12.06,12.06,15.086,15.086,0,0,0,9.877,8.114ZM9,8.571A.429.429,0,1,1,8.571,9,.428.428,0,0,1,9,8.571ZM9,3a.428.428,0,0,1-.429-.429V2.143a.429.429,0,1,1,.857,0v.429A.428.428,0,0,1,9,3ZM9,15a.428.428,0,0,1,.429.429v.428a.429.429,0,1,1-.857,0v-.428A.428.428,0,0,1,9,15ZM2.571,9.429H2.143a.429.429,0,1,1,0-.857h.429a.429.429,0,1,1,0,.857Z" fill="#6236ff"/>
      </g>
    </g>
  </g>
</svg>
