<svg xmlns="http://www.w3.org/2000/svg" width="24" height="24" viewBox="0 0 24 24">
  <g id="blueshare" transform="translate(-1927 -886)">
    <circle id="Ellipse_1" data-name="Ellipse 1" cx="12" cy="12" r="12" transform="translate(1927 886)" fill="rgba(59,134,251,0.08)"/>
    <g id="Group_6" data-name="Group 6" transform="translate(1932 892)">
      <g id="Group_5" data-name="Group 5" transform="translate(0 0)">
        <g id="Group_4" data-name="Group 4">
          <g id="Group_3" data-name="Group 3">
            <path id="Path_2" data-name="Path 2" d="M9.672,12A2.285,2.285,0,0,1,7.4,9.776L3.621,7.862a2.08,2.08,0,0,1-1.345.414,2.276,2.276,0,1,1,0-4.552,2.56,2.56,0,0,1,1.344.414L7.4,2.224A2.254,2.254,0,0,1,9.674,0a2.3,2.3,0,0,1,2.275,2.276A2.3,2.3,0,0,1,9.674,4.552a2.56,2.56,0,0,1-1.346-.414L4.656,6.052,8.38,7.913A2.3,2.3,0,0,1,12,9.776,2.37,2.37,0,0,1,9.673,12Z" transform="translate(0 0)" fill="#3b86fb"/>
          </g>
        </g>
      </g>
    </g>
  </g>
</svg>
