<?xml version="1.0" encoding="UTF-8"?>
<svg width="18px" height="18px" viewBox="0 0 18 18" version="1.1" xmlns="http://www.w3.org/2000/svg" xmlns:xlink="http://www.w3.org/1999/xlink">
    <!-- Generator: Sketch 63.1 (92452) - https://sketch.com -->
    <title>iconfinder_47.Explore_290103 Copy</title>
    <desc>Created with Sketch.</desc>
    <g id="Page-1" stroke="none" stroke-width="1" fill="none" fill-rule="evenodd" fill-opacity="0.5">
        <g id="Setting" transform="translate(-646.000000, -34.000000)" fill="#000000" fill-rule="nonzero">
            <g id="Group-7">
                <g id="iconfinder_47.Explore_290103-Copy" transform="translate(646.000000, 34.000000)">
                    <path d="M9,18 C4.02942857,18 0,13.9705714 0,9 C0,4.02942857 4.02942857,0 9,0 C13.9705714,0 18,4.02942857 18,9 C18,13.9705714 13.9705714,18 9,18 Z M9,0.857142857 C4.503,0.857142857 0.857142857,4.503 0.857142857,9 C0.857142857,13.497 4.503,17.1428571 9,17.1428571 C13.497,17.1428571 17.1428571,13.497 17.1428571,9 C17.1428571,4.503 13.497,0.857142857 9,0.857142857 Z M15.8571429,9.42857143 L15.4285714,9.42857143 C15.1915714,9.42857143 15,9.237 15,9 C15,8.763 15.1915714,8.57142857 15.4285714,8.57142857 L15.8571429,8.57142857 C16.0941429,8.57142857 16.2857143,8.763 16.2857143,9 C16.2857143,9.237 16.0941429,9.42857143 15.8571429,9.42857143 Z M13.2767143,12.9445714 C13.263,13.0251429 13.2274286,13.1018571 13.1648571,13.1648571 C13.0328571,13.2964286 12.8382857,13.317 12.681,13.2385714 L12.7058571,13.2638571 L12.7092857,13.2672857 L12.7092857,13.2672857 L12.7092857,13.2672857 C12.6398571,13.2385714 12.5781429,13.2115714 12.5104286,13.1837143 C10.2865714,12.2571429 8.99057143,11.5311429 8.28171429,11.0674286 C7.719,10.6997143 7.521,10.4961429 7.51285714,10.4875714 C7.49357143,10.4691429 6.44657143,9.45385714 4.73357143,5.29114286 L4.734,5.29114286 C4.734,5.29114286 4.734,5.29114286 4.73357143,5.29114286 L4.76228571,5.31985714 C4.758,5.31128571 4.75714286,5.30185714 4.75371429,5.29328571 C4.71428571,5.20242857 4.71,5.10342857 4.73742857,5.01 C4.75628571,4.947 4.785,4.88571429 4.83557143,4.83557143 C4.96371429,4.70742857 5.15185714,4.68557143 5.30742857,4.758 C5.31128571,4.75971429 5.316,4.76014286 5.31942857,4.76228571 L5.30957143,4.75157143 L5.29114286,4.73357143 C5.29114286,4.73357143 5.29114286,4.73357143 5.29157143,4.73357143 L5.29114286,4.73357143 C9.45385714,6.44657143 10.4691429,7.49357143 10.4875714,7.51285714 C10.5068571,7.53128571 11.5538571,8.547 13.2668571,12.7092857 L13.2664286,12.7088571 C13.2668571,12.7088571 13.2668571,12.7092857 13.2668571,12.7092857 L13.248,12.6904286 L13.2381429,12.681 C13.248,12.7011429 13.2518571,12.7225714 13.2587143,12.7435714 C13.2797143,12.8091429 13.2882857,12.8772857 13.2767143,12.9445714 Z M9.87685714,8.11414286 C9.86785714,8.10514286 9.01285714,7.28828571 5.93957143,5.94 C7.28785714,9.01328571 8.106,9.86871429 8.12314286,9.88628571 C8.13214286,9.89528571 8.98714286,10.7125714 12.0604286,12.0604286 C10.7121429,8.98671429 9.894,8.13171429 9.87685714,8.11414286 Z M9,8.57142857 C9.237,8.57142857 9.42857143,8.763 9.42857143,9 C9.42857143,9.237 9.237,9.42857143 9,9.42857143 C8.763,9.42857143 8.57142857,9.237 8.57142857,9 C8.57142857,8.763 8.763,8.57142857 9,8.57142857 Z M9,3 C8.763,3 8.57142857,2.808 8.57142857,2.57142857 L8.57142857,2.14285714 C8.57142857,1.90628571 8.763,1.71428571 9,1.71428571 C9.237,1.71428571 9.42857143,1.90628571 9.42857143,2.14285714 L9.42857143,2.57142857 C9.42857143,2.808 9.237,3 9,3 Z M9,15 C9.237,15 9.42857143,15.1915714 9.42857143,15.4285714 L9.42857143,15.8571429 C9.42857143,16.0941429 9.237,16.2857143 9,16.2857143 C8.763,16.2857143 8.57142857,16.0941429 8.57142857,15.8571429 L8.57142857,15.4285714 C8.57142857,15.1915714 8.763,15 9,15 Z M2.57142857,9.42857143 L2.14285714,9.42857143 C1.90585714,9.42857143 1.71428571,9.237 1.71428571,9 C1.71428571,8.763 1.90585714,8.57142857 2.14285714,8.57142857 L2.57142857,8.57142857 C2.80842857,8.57142857 3,8.763 3,9 C3,9.237 2.80842857,9.42857143 2.57142857,9.42857143 Z" id="Shape"></path>
                </g>
            </g>
        </g>
    </g>
</svg>