<svg xmlns="http://www.w3.org/2000/svg" xmlns:xlink="http://www.w3.org/1999/xlink" width="90" height="108" viewBox="0 0 90 108">
    <defs>
        <path id="u3v39rljia" d="M0.03 0.022L63.993 0.022 63.993 73.995 0.03 73.995z"/>
        <path id="t63hhn09gc" d="M0.032 0.052L36.951 0.052 36.951 23.964 0.032 23.964z"/>
        <path id="bqpawetw6e" d="M0 0.026L10.921 0.026 10.921 9.859 0 9.859z"/>
    </defs>
    <g fill="none" fill-rule="evenodd">
        <g>
            <g>
                <path fill="#823F86" fill-rule="nonzero" d="M51.28 78.658l-.463.07c.39.016 1.03.582 1.264.139-.128-.07-.474-.254-.801-.21m2.736-.006c-.731-.155-2.522.141-1.026.728.9-.069 2.918 1.587 2.636-.16.143-.924-1.077-.456-1.61-.568m6.093 3.701c1.86 1.248.106 3.326 1.143 3.438 2.379.54 1.522-1.406 1.664-3.007-.295-.943-1.894-.21-2.807-.43M49.174 99.1c.06-1.273-.461-2.084-1.453-.958-.715.76-1.93 1.24-2.483 2.052.33.48 1.067.189 1.431.705.887.04 1.93-1.144 2.505-1.799m-.287-8.059c-.034-1.099-1.362.295-1.587-.588-.153-.375-.333-.413-.65-.153-.897.617-4.685 3.515-1.896 3.688 1.342-1.004 2.932-1.795 4.133-2.947m5.225-7.827c-1.313-2.674-3.222.258-4.868 1.062-.126.096-.138.349-.202.53.658 0 .818.666 1.252.963 1.405-.228 2.956-1.321 3.818-2.555m23.016.866c.438-2.392-1.22-1.64-2.866-1.735-.887.387-.17 2.188-.4 3.065.346.885 2.045.174 2.864.4.751-.072.273-1.209.402-1.73m-24.766-7.35c.144.524-.36 1.736.436 1.777.853-.18 2.264.411 2.805-.367-.188-.886.549-2.762-.402-3.114-1.575.107-3.302-.656-2.839 1.704m13.973 3.686c-.159-.515.376-1.747-.398-1.763-.805.248-2.66-.546-2.848.498.247.83-.56 2.79.52 2.942 1.593-.131 3.16.66 2.726-1.677m-3.243 3.653c.128.514-.347 1.676.392 1.734.829-.24 2.71.552 2.94-.48-.229-.859.336-2.502-.375-2.97-1.61.13-3.437-.716-2.957 1.716m5.226-1.983c2.432.492 1.62-1.319 1.744-3.013-.38-.943-2.185-.176-3.064-.418-.962.301-.205 2.165-.443 3.023.076.779 1.237.267 1.763.408m3.642 3.717c.55-.14 1.755.392 1.763-.489-.242-.849.498-2.638-.425-2.968-.878.24-2.684-.518-3.061.422.134 1.678-.71 3.526 1.723 3.035m-3.698-.001c2.481.49 1.697-1.264 1.803-3.02.252-.69-3.71-.669-3.505-.035.143 1.66-.718 3.552 1.702 3.055m-1.848-9.067c-.112-.522.36-1.737-.413-1.796-.831.232-2.61-.519-2.914.442.238.895-.512 2.75.417 3.128 1.653-.122 3.383.68 2.91-1.774m1.896 1.772c.54-.13 1.756.393 1.757-.485-.254-.883.539-2.763-.444-3.089-.88.244-2.683-.52-3.064.424.15 1.71-.747 3.665 1.75 3.15m1.929-1.782c.144.555-.386 1.79.483 1.794.855-.264 2.74.57 2.997-.493-.263-.874.581-2.9-.523-3.097-1.668.136-3.436-.69-2.957 1.796m-39.352 7.86c1.517-.331 2.545-1.562 3.806-2.394.652-.396.095-.857-.11-1.365-.71-1.544-1.993-.134-2.782.523-1.056.746-3.221 2.762-.914 3.236m5.427 19.196c1.705-.81 6.016-2.212 3.507-4.539-.336-.41-.51-.362-.88-.002-.797 1.112-2.337 1.718-3.065 2.742.26.677-.865 1.814.438 1.8M32.817 90.16c-2.49 2.186-3.602 1.35-.952 4.257.02.052.322.061.438-.007 1.108-.922 2.59-1.635 3.52-2.706-.739-.837.933-.8.519-1.5-.968-.649-2.281.723-3.525-.044m8.47-5.173c.259.42-1.366 1.043-.384 1.45.573.094 1.06.526 1.538.05 1.07-.481.76-1.319 1.626-1.99.204-.355.223-.43-.176-.652-1.215-.382.998-1.228-.508-1.572-1.687.237-3.274.905-4.36 2.344-.37.427.082.72.257 1.037.547.63 1.392-.506 2.007-.667m28.97-3.063c.698.134 3.405.659 3.467-.407-.269-.823.581-2.824-.606-2.87-3.547-.173-2.863-.002-2.861 3.277m-8.078-3.289c.4-.347.862.02.734-.912-.204-.772.512-2.52-.47-2.7-2.06.008-4.12.01-6.18 0-1.05.241-.225 2.132-.48 2.984.372 1.114 2.509.222 3.503.494-.932.423-5.656-.404-2.697 1.942 1.942.054 2.9 2.65 2.717-.17.421.572-.304 1.947.852 1.805.785-.203 2.589.549 2.76-.491-.262-.911.656-3-.739-2.952m18.805-.1c.044.206-.015.416-.028.625-.037-.32-.157-.547-.507-.523-1.415.331-6.143-.715-6.58.55-.137 2.415-.17 3.254 2.463 2.903 1.682.33.17-2.499 1.018-2.818 0 .697-.004 1.394.002 2.091-.264 1.04.86.417.568.986-1.14-.146-.335 2.167-.588 2.947.017.962 1.4.36 2.022.522-4.199.958-5.97-2.066-5.515 3.922-.562-.811.557-3.218-.567-3.719-2.26.019-3.442-.6-3.031 2.305-.38-3.03.07-2.329-3.195-2.389-1.065.32-.212 2.455-.448 3.416-.727.998.482-3.373-.606-3.414-.829.217-2.501-.473-2.9.371-.143 1.183.401 3.12-.162 3.939-.287-1.163.626-3.83-.487-4.312-.533.126-1.484-.309-1.669.428-.06 1.053-.907 2.027-.52 3.063-.273.731-.957 1.45-.773 2.339-.674.275-.793.822-.762 1.49.009.181-.285.55-.325.534-.393-.228-1.29-.438-.633-.92.366-.45-.144-.64-.291-.917-.505-.405-1.126.714-1.618.932-.265.163-.395.093-.337-.23.531-1.772-2.635-.082-.726.165.324.143.443.522.163.7-.63.434-1.586 1.71-1.078 2.394.774.976 1.48.677 2.45.089.955 1.7-.112 2.016-.526 3.508-1.295.479-1.665 2.109-2.978 2.559-.178.996-.217.031-.725.439-.85.946-2.3 1.207-3.505 1.394-.844.951-2.079 1.297-3.248 1.719-1.548.788-.708-2.36-2.09-1.93-5.007 2.028.346 1.66-4.942 3.057-.899.509-1.748-.136-2.59.193-.605.463-.599-.341-1.191-.065-.197.69-.716.278-1.08.338-.725-.031.282-1.06.289-1.435.05-.142-.024-.365-.107-.512-.192-.338-.238.067-.326.113-.421.219-.844.455-1.214.753-.315.254-.301.846-.845.898-.133 1.677-2.22.738-3.15.373-6.452-1.25 3.268-3.641-.002-4.925-.85.049-.093-1.524-1.112-.88-.544.362-1.022.735-1.276 1.385-1.828.94-.815-1.393-1.284-2.383.301-1.118-.196-1.924-.422-2.938.458.604 2.284-1.045 2.296-1.626.328-.77-.265-1.324.069-1.993.065-.746-1.493-.24-1.741 0-.239.625.66.517-.232 1.1-.72-1.718.533-3.429.168-5.234.354-.973-.435-4.876.902-5.348.594-.165-.906-1.223-.594-2.362 2.424.142 5.467-4.548 1.22-3.201-1.699 1.218-.436-1.209-.296-2.061-.005-.568.765-.798.471-1.41.483-.328 1.354-1.125 1.854-.652.443.316.962.216 1.379.082.299.525.845.253 1.257.367 2.527.31 4.975.678 7.696 1.027.61.262 1.174.486 1.862.269 1.4.533 2.505.618 3.95.789 2.517.582 4.818 1.076 7.43 1.098 1.176-.162-.109-3.923.59-4.32-.11 1.198 1.875.407 2.615.617.823.044.632-.127.802-.803.192.671-.007.841.807.799.8-.234 2.56.532 2.798-.463.12-.678-.289-2.032.142-2.341.194.85-.603 2.968.778 2.801 1.16-.23 3.101.778 2.71-1.15-.018-.655.228-.123.181.249-.695 1.78 5.264.488 6.515.897.828-.11.295-1.365.433-1.951.449.017.068 1.076.167 1.462.246 1.055 2.115.237 2.969.503.498.018.573-.228.49-.637.585 6.683-.704 3.636 7.296 4.361" transform="translate(-115 -1416) translate(115 1416)"/>
                <g>
                    <g transform="translate(-115 -1416) translate(115 1416) translate(15)">
                        <mask id="a6hsj7xbyb" fill="#fff">
                            <use xlink:href="#u3v39rljia"/>
                        </mask>
                        <path fill="#0D0D0D" fill-rule="nonzero" d="M10 67.218c-.066-.003-.073.033-.075.087.068-.012.126-.009.074-.087m4.012-28.68c-.211.45.341.549.347 1 .517-.567.391-.876-.347-1m-1.084-1.753c-.07-.64-.606.028-.568.409.25.468.705.118.568-.41m25.458 1.912c.249 1.472-.692 7.096.337 7.574 1.41-.358 4.118.64 4.856-.646-.237-1.817.678-4.125-.46-5.644-3.33-1.286-5.22-5.914-4.733-1.284m-1.052 2.042c.007-2.668.333-5.419-.987-7.832-.703-2.897-4.719-2.06-5.297.491-.496 1.6-.551 3.245-.601 4.889-.072 2.346-.083 4.694-.117 7.04-.017 1.246-.084 1.068 1.024 1.076 7.2.152 5.932 1.408 5.978-5.664M23.26 3.653c-.326.493-3.281 4.238-1.877 3.97.171.658 1.017.497 1.436.563.353.787 1.13.099 1.496.576 1.057.373 6.786-.34 5.966-1.827-1.157-2-2.577-3.78-4.193-5.425-1.078-.852-1.912 1.666-2.828 2.143m-6.892 25.004c-.794.375-.375 1.917.012.57.061.02.178.05.176.062-.088.845 1.2-.025 1.682.263.735.672 1.929.685 2.331 1.682.254.345.339-.153.492-.362.18.901.34 1.8 1.204 2.32-.65.402-.168.797-.054 1.388.092 2.764-.01 6.29.088 9.44.174.64-.534 2.397.368 2.296 2.664.732 2.049-.951 2.007-2.876-.037-.584.027-2.536.208-2.337-.145-.197-.65-.204-.34-.64 3.076-.14 1.845 3.515 2.035 5.517.049.902 1.4.245 1.992.397 1.11-.035.234-1.86.44-2.59.468-4.736-1.742-14.795 5.864-13.973.646.192.625-.242.482-.74-.767-3.269-1-6.613-1.322-9.945-.187-3.449-.56-8.368-3.179-10.574-2.773 1.461-6.362 1.698-9.077.872-.462.496-1.625-1.798-1.73-.638-2.59 3.44-2.486 7.377-2.893 11.496-.39 1.684.992.648 1.23 2.231-.229.481-1.353 1.139-1.09.243-.007-.066-.18-.184-.236-.164-.47.21.082.819.016 1.138-.334.142-.54.944.012.803.028.291-.005.61.396.708.066.931-1.018.515-.69-.388-.173.52-.806 1.839.137 1.916.007.224-.291.558-.02.69-.064 1.317-.92-.892-.54 1.195m1.464 2.488c-.42-.182-.875-.17-1.037.315-.398-.332-.668-.29-.884.135l.011-.012c-.798.578-.824.502-.979 1.62-.17.627-.767 1.209-.564 1.752-.85.067-.106 1.244-.467 1.816.347-.191.477-1.407 1.127-.496.352.456 1.178.497.558 1.163-.15-.303-.116-.766-.542-.436-.88-.39-1.391.65-.947 1.278.932.872 1.313-1.338 2.062-.251.255.115.281.246.181.463.58.213.104.452.001.657-.081.163-.18.424-.452.186-.07-.59-.333-.273-.561-.118-.914-.358.153 1.6-.588 1.323-1.327-.232-.575 1.152-.648 1.78.05.37.167.597.443.791-.226.516.417.405.533.787-.549.09-1.011-.175-.87.568-.227.114-.189.258-.152.478.06 1.217-.399.905.965 1.185.402.816 2.12.037 2.9.261.98.445 1.328-.812 2.166-.248.964.548 1.135-.726.612-1.193-.367-.124-.152-.324-.142-.505.796-.185.123-1.594.023-2.195.113-.999.616-2.393.154-3.677-.06-.692.532-2.504-.556-2.453-.429-.542.534-.627.198-1.15-.332-.553-.439.275-.652.04-.333-.517.631-.918.486-.557.085-.597.013-1.76-.618-2.14-.312-.456-1.13-1.05-1.76-1.167m-8.489 9.362c-1.046.287.496-.845 1.108-.33.348.213.255-.327.354-.55.392.104.55-.032.451-.434.372.154.632.8 1.104.825.333.02.548-.712.267-.934.584-.663-1.285-.391-1.11-1.301-.726.47-1.47.857-2.075 1.556-.672.467-1.896.534-1.573 1.686-.934 1.137 1.012 2.863.844 1.671 1.171.845-.232 2.637-.286 1.078.314-.281.026-.294-.154-.315-.322.182-.834-.225-.685.306.372.79-.47 2.558.858 2.365 3.223-.237 5.193 1.623 4.425-2.502.14-.439-.193-.264-.374-.286.246-.776-.196-.794-.764-1.238.29-.152.846-.144.772-.547-.049-.64-.678-.098-.895-.54-.518-1.048-1.392.104.14 1.097-1.353-.267-1.058 2.464-2.007.522.04-.351.489-.178.758-.126-.004-.487.332-1.018-.437-.972-.268-.058-.553-.2-.743.144-.954-.548 1.189-1.119.022-1.175m7.162 8.919c.352.704.004-.443-.404-.347.038.215.237.258.404.347M44.27 71.69c-1.642-.356-2.82 1.086-3.824 2.002-.779-.386.028-.93 0-1.581 1.625-.657 1.385-1.794-.015-2.6-.761-.307-1.424-1.056-2.074-1.072-.138-.332-.709-1.03-.704-.31-.723.099-.568 1.34-1.436.828.098-3.583-.43-7.527-4.645-8.547-1.433-.571-.11 2.084-1.332 2.051-1.31-.416-.35-2.93-.704-4.055-.227-3.381-.236-6.328-.503-9.64.135-1.32-.845-1.524-1.923-1.232-1.745.033.608 8.576-1.455 8.66-1.697-.477-.576-6.48-.907-8.23.176-.724-2.555-.652-2.436-.052-.385 4.244-.925 8.022-1.125 12.239.361 1.1 2.612-1.07 3.526-.033 1.457 1.409-5.247.857-5.317 4.4-.037.545-.65.732-1.047.363-2.51-1.859-7.463-.104-8.154 2.902-.136 2.204-3.57-1.684-7.104 1.735-1.242 1.028-2.069 2.29-2.142 3.937-.015.242.012.51-.34.54-1.059-.2-.321-1.767-.417-2.507 1.742-2.766 4.787-5.455 8.367-4.433.463.105.684-.01.844-.416.92-2.113 3.36-2.85 5.24-3.737 1.512-.7 3.567.929 4.523-.47 2.016-2.654.985-6.638 1.639-9.816.17-1.436-5.713-.337-6.958-.731-.724.122-.83-.59-1.287-1.036.807-.189.22-2.473.404-3.304-1.394-.634-3.438-.017-5.036-.248-2.414-.231-1.309-5.755-1.164-7.498 1.356-1.307 3.414-1.979 4.613-3.544 4.376-5.519 3.987-13.328 4.698-20.028.938-5.798 3.977-11.108 7.95-15.376 3.106-3.382 6.452 4.544 8.023 6.59 6.502 10.17.042 25.936 12.5 32.509.137 1.844 1.317 7.287-1.412 7.364-3.433.358-5.562-1.572-4.799 3.134.062 2.498-6.662.273-7.81 1.526-.052 2.201-.097 4.455.233 6.651.955.637 2.257.858 3.193 1.614 3.071 1.427 2.81 3.983 3.731 6.534 1.169.386 2.42.54 3.363 1.396 1.202.394 2.055 2.967 3.057 2.146.938-.68 3.11.957 3.383.172 2.297-5.83 10.451-6.42 14.75-2.321.913.445 2.922 5.134.853 3.781-.177-1.396-1.057-2.369-1.97-3.312-2.665-2.37-7.118-2.936-10.152-.954-1.835.985-4.013 3.432-1.631 4.943.652 3.493-2.664-1.782-5.067-.934" mask="url(#a6hsj7xbyb)"/>
                    </g>
                </g>
                <g>
                    <g transform="translate(-115 -1416) translate(115 1416) translate(53 79)">
                        <mask id="ib8j89jm4d" fill="#fff">
                            <use xlink:href="#t63hhn09gc"/>
                        </mask>
                        <path fill="#EFAFC7" fill-rule="nonzero" d="M26.297 18.653c-.173-.252-.338-.33-.459-.065.086.284.231.293.46.065m-1.424-15.1c-1.562.229-.088-2.49-.932-2.78-.223.874.647 2.988-.793 2.78-2.66.353-2.577-.496-2.461-2.864.448-1.252 5.134-.213 6.58-.544.337-.018.485.197.507.517.04-1.811 2.978 2.323 3.365 2.772 3.297 3.015 8.095 8.623 4.58 13.02-4.251 4.667-12.072 3.702-17.546 5.503-3.529-.297-7.13.825-10.61 1.332-.764-.473-1.196-.07-1.98-.04-.925-.212-1.794.588-2.825.38-1.136.095-3.89 1.086-2.184-.866.16-.088.55.39.512-.216.533-.57 1.313-.993 1.544-1.833 1.384.167 3.81-10.686 3.463-3.129.421-.836-.248-2.796.87-2.909.748.26 2.883-.603 2.776.498-.053 1.847.216 1.846.154-.002.139-.991 1.997-.372 2.771-.632 1.085-.134.213 1.526.729 1.715-.39-2.01.968-1.549 2.411-1.715 1.516-.486.957 1.638 1.233.685-.113-1.234 1.55-.502 2.306-.688-.32-.602-2.315.49-2.308-.675-.307-3.698.47-2.752 3.516-2.85.13 1.043-.17 2.485.104 3.365.035-2.67-.704-3.805 2.562-3.36 1.295-.198.297 1.48.827 2.09.508-.535-.388-2.018.607-2.094 1.342.164 3.54-.69 3.036 1.456.417-.518-.3-1.472.709-1.494.13-.062.025-.21-.064-.232-.248-.027-.5-.032-.506-.38-.768.73-2.056.218-3.042.355-1.134.098-.394-1.749-.607-2.474-.868-.544.569 3.05-1.175 2.476-2.677.38-2.415-.5-2.331-2.834-.013-.395.216-.487.557-.46 1.846.022 3.744-.238 5.562-.004 1.64-.607.444 1.68 1.047 2.107.165-1.113-.608-2.5 1.09-2.179 2.692.036 1.488-.233-.475-.153-1.504.12-.012-5.286-.769-6.013.269 2.97-.333 2.294-2.81 2.368" mask="url(#ib8j89jm4d)"/>
                    </g>
                </g>
                <path fill="#DEA3BE" fill-rule="nonzero" d="M38.23 74.32c-2.564.404 1.346 1.116 2.039 1.177.394.067.49-.181.478-.536.087-1.193-1.78-.438-2.518-.642m13.187-5.762c.399-.08-.304 2.013.613 1.908 1.307-.177 3.211.681 2.846-1.423 2.598 1.462-.136 3.122-.002 2.267.16-1.25-1.607-.488-2.333-.686-.966.002-1.116.189-.943 1.18.12.458.111 1.36-.157 1.663-.211-.812.478-2.523-.537-2.75-3.114-.23-2.872-.342-2.805 2.766.24 1.127 2.18.301 3.068.562.564.599-2 .153-2.561.272-1.031.202-.283 2.117-.501 2.957-.985.67-.011-1.718-.293-2.471.008-.343-.125-.488-.463-.484-.804.256-2.884-.587-2.987.538-.036.549.685 2.47-.162 1.773.295-2.848-.43-2.312-2.764-2.3-.713.187-.561 1.918.36 1.942-.571.395-1.413-.334-2.068-.417-.683.221-1.239-.014-1.842-.268-1.509-.013-2.837-.656-4.27-.57-.637-.024-1.412.25-1.796-.434 1.614-1.78 1.484-1.116-.606-2.335-2.859-1.403-6.169.745-8.496 2.43-3.378 2.376-5.557 5.852-7.684 9.351.87 2.045 3.546 3.56 5.725 3.94 1.106.308 2.2.318 3.273-.149 1.3 2.905-5.24.957-6.511.294-4.535-2.939-2.353-4.158-5 2.023 2.585 1.699 5.885 2.749 8.695 4.252 1.264.586 3.504 2.892 2.77-.085.87-.589.016-.45.23-1.096.24-.236 1.791-.745 1.721 0-.32.673.243 1.216-.068 1.985-.024.811-1.006.939-1.391 1.539-.49.615-.948-.043-1.397-.305-3.389-1.635-6.655-3.563-10.186-4.863-1.291-.731-1.856 4.954-1.936 5.852-.165 1.21.194 1.746-1.294 1.543-.289-7.218 5.165-8.143-4.333-9.32-1.487-.834-5.103 1.271-4.183-1.245 2.445-.037 4.89.079 7.282.747.955-.034 2.63 1.432 3.183.308.155-1.472 2.108-4.338 1.754-5.288-1.939-2.905-2.496-6.589-2.906-10.018-.359-.63-1.527.63-2.152.716-1.214.201-4.569 2.42-4.6.86 1.864-1.063 5.2-1.44 6.762-3.26.642-4.906 2.246-10.702 5.639-13.895-.283-.685 1.247-1.017.295-1.243-.26-.066-.26-.062-.305-.32 1.977.217 2.208.467.758 1.964-3.065 3.408-4.581 8-5.24 12.518-.052 1.437 3.658-2.01 4.415-2.092.698.146-.465 1.623-.942 1.78-.96 1.166-3.273 1.194-3.47 2.815-.142 1.29 1.587 9.817 2.906 8.88 3.667-6.843 13.01-16.653 20.405-9.292-1.08.752.428 1.067.518-.667 1.232-3.14 6.718-4.36 5.584.325-.218 1.283 1.25.642 2.017.788 1.107 0 1.107 0 1.182-1.087.515.46.873 1.062 1.621.527-.095.995.743.393 1.447.563.851.363.72-3.767.025-3.404-1.17-.198-2.646.422-3.3-.13.294-.4-.011-1.35.328-1.457.09.517-.297 1.513.536 1.44.843-.276 2.93.632 2.918-.628.24-.897-.495-2.646.39-3.075 1.733-.064 2.686.186.342.146-.952.312-.215 2.222-.439 3.096.286.977 2.043.22 2.87.456.847-.065.286-1.33.445-1.909" transform="translate(-115 -1416) translate(115 1416)"/>
                <path fill="#3B2C67" fill-rule="nonzero" d="M3.443 76.56c2.163-.698 4.334-1.367 6.331-2.507.2-.1.274-.07.303.194.268 3.067.952 6.097 2.137 8.925 1.213 1.638.85 1.611.065 3.345-1.759 6.515-1.832 1.862-9.975 2.018-2.187.63-.954-1.245-.99-2.637.82-3.07.73-6.499 2.129-9.338M20.863 63.389c1.935-.035 2.11-3.209.019-3.25-1.919-.138-1.9 3.214-.02 3.25m-3.857 7.254c-.77-.886-4.99 3.688-5.005 1.966.651-5.46 3.098-10.445 6.827-14.456 1.347.14 3.135-.592 4.166.29.344-.82 1.446.27 1.886-.112 2.017-.11 2.72.41 1.564 2.316-.966 2.656-3.172 4.718-5.481 6.196-.561.453-1.449 2.216-2.186 1.591-.335.459-.603.974-1.093 1.32-.752.17-.694.23-.678.889" transform="translate(-115 -1416) translate(115 1416)"/>
                <path fill="#3B2C67" fill-rule="nonzero" d="M11.676 59.824c.35-.397.306-.618-.075-.793-.485.155-.26.434.075.793m3.324.004c-1.998 2.75-3.346 5.985-4.237 9.308-.502 1.804.112 4.57-2.079 5.123-8.201 4.373-3.264-.212-2.671-5.795.854-3.746 1.642-7.828 5.055-10.01 1.574-.57 3.936-1.023 3.932 1.374" transform="translate(-115 -1416) translate(115 1416)"/>
                <path fill="#EFAFC7" fill-rule="nonzero" d="M58.318 64.297c-.02.232.386.05.55.087-.005-.19-.393-.044-.55-.087m4.576 2.185c.579-.703-.598-2.407 1.315-2.102-1.11-.176-1.11-.176-1.232-.985-.046 1.565-2.251.637-3.318.874 1.668.737 3.752-1.151 3.235 2.213M55.02 68c-4.338-.591-1.862-2.845-4.019-5.787 2.3-1.798 5.388-2.336 8.247-2.19-.868.927-1.412 2.567-.253 3.509.867.802 2.505.295 2.918-.883.32-1.873 1.285-1.02 2.658-.395 1.61 1.033 3.515 1.956 4.43 3.704-1.145.65-2.696.81-3.779 1.823-.45.37-1.01.006-1.526.05-.746.065-.621-.401-.7-.995-.031 1.657-1.83.783-2.95.981-1.383.09-.447-2.188-.705-3.084-.672.497.568 2.937-.673 3.09-1.28-.2-3.407.712-3.09-1.296-.163 1.165-.163 1.165-.558 1.473" transform="translate(-115 -1416) translate(115 1416)"/>
                <g>
                    <g transform="translate(-115 -1416) translate(115 1416) translate(0 90)">
                        <mask id="09glsjez1f" fill="#fff">
                            <use xlink:href="#bqpawetw6e"/>
                        </mask>
                        <path fill="#3B2C67" fill-rule="nonzero" d="M.782.222c3.278-.553 6.67.13 9.817 1.205.365.153.34.365.3.635-.737 2.51-1.375 5.157-1.381 7.797C2.414 8.445-1.844 9.806.782.222" mask="url(#09glsjez1f)"/>
                    </g>
                </g>
                <path fill="#3B2C67" fill-rule="nonzero" d="M11.058 100.17c-.294-.94.554-7.85 1.9-7.115 3.622 1.414 7.172 3.16 10.546 5.073.635 2.048 1.132 3.282-1.639 2.747-3.727-.356-6.93-.139-10.807-.705M34.079 60.055c.354-.333.306-.435-.015-.695-.29.263-.257.38.015.695m1.92-1.094c.01 1.525-.696 4.453-2.723 3.816-1.997-.628-4.192.28-5.865 1.377-3.075 1.51-1.31 3.57-5.411 2.592 1.709-1.757 3.64-3.38 4.829-5.562.615-.976.377-2.31 1.16-3.184 2.696.105 5.417.137 8.01.961" transform="translate(-115 -1416) translate(115 1416)"/>
                <path fill="#DEA3BE" fill-rule="nonzero" d="M23 101.002c1.248-.07.22 1.705.766 2.425 1.346-.063 1.5-1.617 2.882-1.664.111.373-.067.947.532.934 3.313 1.17-6.532 3.348.004 4.486.894.311 2.909 1.159 3.17-.216.619-.563 1.14-1.315 2.099-1.628.72-.748.312 1.031-.069 1.326-.387.467 1.278.615 1.306.037.017-.051.485-.073.51-.017.425.576 1.03-.292 1.703.012 1.179.411 2.245-.682 3.472-.568 1.75-.39-.77-1.109 3.14-2.329 1.401-.394.546 2.481 2.115 1.76 1.06-.425 2.4-.557 3.116-1.488 1.06-.197 2.165-.466 3.185-.882.36-.132.72-.975 1.069-.36-1.068 1.47-3.57 1.103-5.04 2.228-1.163.932-2.774.93-4.255 1.014-1.823.64-4.017.16-5.627 1.132-1.83.172-3.89.137-5.818.346-1.512.602-2.903.6-4.424-.005-1.049.167-2.38-.482-2.593-1.362.84-.457-.572-.71.672-1.173-.123-.149-.233-.408-.372-.423-.534-.028-.476-.54-1.019-.585-.58-.779.006-2.082-.524-3" transform="translate(-115 -1416) translate(115 1416)"/>
                <path fill="#0D0D0D" fill-rule="nonzero" d="M58.857 52.882c-1.023-.147-1.97.563-2.857.492.005-1.176 2.003-1.33 2.892-1.36 2.934-.228 4.64 2.259 6.573 3.717 4.198-2.203 8.615 3.355 5.469 7.063-2.941 1.472 3.33-5.375-2.956-6.782-3.777-.208-1.497 1.47-1.868 3.726-1.625 2.248-.083-6.111-7.253-6.856M15.308 59.976c-1.07-2.363.82-4.897 3.038-5.71.512-.331 1.542-.049 1.703-.759.06-1.25.713-2.151 1.77-2.736.798-.383 2.637-1.306 3.181-.353-.819 1.16-2.93.42-3.714 1.905-2.058 1.64 2.004 1.488 2.095 2.915-.12 1.961-3.166-3.116-6.978 1.63-1.303 2.014.611 1.223-.08 1.953-.71.27-.055 1.353-1.015 1.155" transform="translate(-115 -1416) translate(115 1416)"/>
                <path fill="#EFAFC7" fill-rule="nonzero" d="M70.057 67c1.149.857 2.302 2.512 3.812 3.29.536 1.52 3.218 2.9 3.128 4.053.038.558-.266.625-.723.61-.795-.235-2.63.55-2.531-.598-.12-.733.275-4.192-.269-3.412-.01.438-.269.496-.635.487-4.53.527-2.105-1.612-2.782-4.43" transform="translate(-115 -1416) translate(115 1416)"/>
                <path fill="#0D0D0D" fill-rule="nonzero" d="M20.04 29.463c1.382-.047.932-1.96-.12-2.122-1.14.061-.915 2.311.12 2.122m-.14 1.533c-2.66-.12-2.476-5.099.234-4.994 2.393.171 2.66 5.16-.233 4.994" transform="translate(-115 -1416) translate(115 1416)"/>
                <path fill="#DEA3BE" fill-rule="nonzero" d="M27 58.152C25.715 62.31 23.21 66.99 19 68c2.045-2.502 5.108-4.124 6.076-7.614 1.537-2.554-1.302-2.569 1.924-2.234" transform="translate(-115 -1416) translate(115 1416)"/>
                <path fill="#0D0D0D" fill-rule="nonzero" d="M64 13.218c-.159 1.441-1.99-.028-1.592 2.002.089.847-1.15 1.066-1.51.348-.375-.386.037-1.4-.668-1.37-.415-.003-1.267.034-1.229-.523.11-1.071 1.879-.398 1.852-1.323-.17-.956 1.03-2.08 1.428-.727-.28 1.53 1.617.367 1.719 1.593M58.739 61.96c.284 1.717 2.945.879 1.8-.542-.84-.753-1.84-.845-1.8.542m2.884.858c-.782 2.009-4.008 1.274-3.585-.831.116-1.851 2.677-2.855 3.663-1 .824.875-.346 1.245-.078 1.83M63.84 42.07c.015 1.083 1.715.838 1.843-.01-.232-1.092-1.812-1.564-1.843.01m3.157-.264c.11 1.797-2.84 3.115-3.713 1.384-1.361-3.069 2.55-4.644 3.713-1.384M7.483 54.668c-.18-1.223 1.439-.57 1.153.396.028.706 1.33-.006 1.362.89.07.855-1.427.385-1.336 1.214-.057.382-.09.804-.605.832-1.132-.275.075-1.752-1.637-1.682-.27-.055-.493-.21-.397-.482.319-.87 1.706.006 1.46-1.168" transform="translate(-115 -1416) translate(115 1416)"/>
                <path fill="#EFAFC7" fill-rule="nonzero" d="M81 78.993c-2.67-.127-4.482.746-3.886-2.922.194-3.312 3.357 2.032 3.886 2.922" transform="translate(-115 -1416) translate(115 1416)"/>
                <path fill="#DEA3BE" fill-rule="nonzero" d="M78 75.103c-1.511.099-.54 2.66-.797 3.897-.672-.159-.114-2.298-.278-3.16-.1-1.501-2.831.24-2.925-.916.843-.301 2.802.727 2.945-.674.068-.183.313-.45.272-.014-.102.945.347.415.783.867" transform="translate(-115 -1416) translate(115 1416)"/>
                <path fill="#EFAFC7" fill-rule="nonzero" d="M24.004 104c.41.043.369.537.772.565.22.112.368.554 0 .616-.218.034-.16.122-.103.291.136 1.586-.74-.848-.669-1.472" transform="translate(-115 -1416) translate(115 1416)"/>
                <path fill="#DEA3BE" fill-rule="nonzero" d="M1.227 87c-.157.664.026 1.385-.425 2-.01-.692-.178-1.41.425-2M54 101c-.308.395-.432 1.118-.998.984-.041-.665.603-.7.998-.984" transform="translate(-115 -1416) translate(115 1416)"/>
                <path fill="#EFAFC7" fill-rule="nonzero" d="M78 74.229c-.982 0-.982 0-1-.458.571-.001.883.166 1 .458" transform="translate(-115 -1416) translate(115 1416)"/>
                <path fill="#DEA3BE" fill-rule="nonzero" d="M21 57.771c-.309.654-.65.514-1 .158l1-.158M22.227 57.805c-.194.604-.266.535-.454-.034l.454.034M1.227 90.771l-.104.458c-.467-.168-.5-.322.104-.458M24.227 58.05c-.16.365-.305.071-.454-.015.163-.479.308-.2.454.015M13.773 99.993l.454.014-.454-.014M24.227 59.024l-.454-.048.454.048M11.773 99.978l.454.044-.454-.044M12.773 99.968l.454.064-.454-.064M16.773 100.072c.247-.537.364-.274.454.157l-.454-.157M18.773 99.982c.29-.368.355-.235.454.247l-.454-.247M21.227 58.017l-.454-.034.454.034M22.227 58.04l-.454-.08.454.08" transform="translate(-115 -1416) translate(115 1416)"/>
                <path fill="#EFAFC7" fill-rule="nonzero" d="M23.773 102.771c.151.1.303.198.454.297-.352.324-.383.125-.454-.297" transform="translate(-115 -1416) translate(115 1416)"/>
                <path fill="#3B2C67" fill-rule="nonzero" d="M22.382 76.934c-3.092.458-1.094 4.844 1.477 2.814 1.397-1.237-.016-2.822-1.477-2.814m10.292-2.858c1.054.59-.78.827-.842 1.54-.929-.051-2.07.284-2.795-.377-.423.13-.917.233-1.368-.08-.51-.463-1.343.321-1.839.637.292.597-.472.822-.467 1.376.004.465-.35.923-.48 1.403-.222 1.737-1.146 4.092.23 5.628.247.19.133.38-.078.415-2.033 1.948 1.127 5.345-4.299 4.123-2.333-.286-4.169-1.813-5.736-3.494.118-.977 1.108-1.978 1.614-2.89 3.177-4.909 10.134-12.098 16.06-8.281" transform="translate(-115 -1416) translate(115 1416)"/>
                <path fill="#3B2C67" fill-rule="nonzero" d="M23.858 96c-3.38-2.222-7.564-3.356-10.858-5.483-.02-.867.755-1.392.919-2.208.149-.608.584-2.472 1.188-2.298 5.27 6.467 11.648.523 9.446 6.689-.418 1.028.822 3.108-.695 3.3" transform="translate(-115 -1416) translate(115 1416)"/>
                <path fill="#DEA3BE" fill-rule="nonzero" d="M58.24 95.182c-.015.068-.06.125.02.166.058-.074.093-.116-.02-.166M74 90.3c-.997.267-3.154-.602-3.523.502.05 2.371-.588 3.165 2.311 2.853-1.042.64-2.21-.682-2.436 1.093.138-1.792-1.994-.61-3.07-.806-.794.02-.35 1.062-.461 1.57-.516-.188.355-1.84-.731-1.705-.781.259-2.634-.358-2.779.628.082 1.833-.23 1.841-.155.002.096-1.096-2.023-.236-2.783-.495-1.132.114-.44 2.058-.873 2.891.46-6.106-1.979.94-2.872 2.799-.12.448-.303.396-.602.31.001-.68.56-1.078.845-1.614.247-.46-.206-1.58-.336-1.799-2.44 1.643-3.54-.973-1.377-2.434.445-.32-.11-.765-.513-.757-1.051-.615 1.67-1.7 1.088.243.722-.022 1.306-1.444 1.951-1.024.564.512.46.709 0 1.294 1.863 1.473.679-1.088 2.018-1.477.158.468-.14 1.352.609 1.283.81-.248 2.677.552 2.85-.513-.086-.83.051-3.408.251-1.34.123.56-.536 1.815.36 1.852 3.065.085 2.653.28 2.887-2.636.474 2.918-.501 2.709 3.118 2.64.402.011.57-.127.557-.542.509-4.775-1.536-1.792-3.494-3.11h2.475c1.489.176.648-.421 1.18-1.008-.05 2.083 2.963.254 3.505 1.3" transform="translate(-115 -1416) translate(115 1416)"/>
                <path fill="#EFAFC7" fill-rule="nonzero" d="M66.468 89.042c2.984.13 3.776-.988 3.471 3.262-.165 1.299-2.087.321-2.917.628-1.07-.096-.328-2.158-.54-3.032-.944 2.747.87 3.3-3 3.026-.345.007-.478-.177-.452-.56-.183-4.174.41-3.145 3.438-3.324M59.47 78.908c-.969-.296-3.038.678-3.404-.537.244-.933-.548-2.992.468-3.259 1.6.38 5.647-.771 6.466.521-.17 3.424.712 4.104-2.23 2.01-1.262.072.651.793-1.157.984-.013-3.739-.042-2.911-.144.281" transform="translate(-115 -1416) translate(115 1416)"/>
                <path fill="#EFAFC7" fill-rule="nonzero" d="M62.104 89.591c-.062-.122-.757-.123-.812 0h.812m.802.625c-.25.786.598 2.588-.57 2.754-1.399-.17-3.545.64-3.289-1.275-.235-.791.471-1.332.684-2.004.076-1.053.437-2.136.764-3.26.21-.719 1.265-.292 1.866-.417 1.251.466.22 3.07.545 4.202" transform="translate(-115 -1416) translate(115 1416)"/>
                <path fill="#DEA3BE" fill-rule="nonzero" d="M32.45 90.123c1.23.691 2.527-.545 3.484.04.41.63-1.243.598-.514 1.353-.92.966-2.383 1.608-3.478 2.44-.115.062-.414.054-.434.006-2.617-2.622-1.52-1.867.942-3.84M41.257 84.449c-.578.146-1.367 1.17-1.883.602-.164-.286-.588-.551-.241-.936 1.02-1.298 2.508-1.901 4.092-2.115 1.414.312-.665 1.073.477 1.419.374.2.356.267.164.588-.814.608-.52 1.359-1.525 1.795-.45.428-.906.04-1.444-.045-.985-.308.842-1.2.36-1.308M35.654 103c-1.325.014-.18-1.161-.445-1.863.74-1.06 2.305-1.687 3.117-2.839.375-.372.553-.422.895.002 2.55 2.41-1.832 3.859-3.567 4.7M34.448 80.98c-.039.045-.036.05.023.052l-.023-.052zM30.996 84c-2.245-.426-.138-2.234.89-2.905.767-.59 2.018-1.856 2.708-.47.198.457.743.87.106 1.226-1.227.747-2.227 1.852-3.704 2.149z" transform="translate(-115 -1416) translate(115 1416)"/>
                <path fill="#EFAFC7" fill-rule="nonzero" d="M70.088 76.982c-.529-2.7 1.424-1.805 3.264-1.951 1.222.212.284 2.414.578 3.363-.282 1.157-2.366.247-3.309.537-.96-.004-.372-1.347-.533-1.95" transform="translate(-115 -1416) translate(115 1416)"/>
                <path fill="#EFAFC7" fill-rule="nonzero" d="M67.982 78.91c-2.765.553-1.774-1.55-1.94-3.386.422-1.017 2.42-.191 3.394-.456 1.092.349.21 2.372.493 3.32 0 .945-1.35.381-1.947.522M79.29 85.93c-.673-.181-2.236.493-2.236-.582.299-.875-.64-3.45.65-3.292.931.266 2.938-.573 3.26.539-.125 1.594.678 3.83-1.674 3.335" transform="translate(-115 -1416) translate(115 1416)"/>
                <path fill="#EFAFC7" fill-rule="nonzero" d="M66.909 77.028c.545 2.678-1.45 1.805-3.356 1.936-1.073-.41-.203-2.436-.48-3.413.348-1.051 2.402-.227 3.359-.483.893.064.346 1.392.477 1.96M67.93 85.91c-2.684.554-1.732-1.552-1.889-3.395.433-1.008 2.433-.177 3.405-.443 1.06.34.223 2.406.491 3.36-.051.907-1.412.317-2.008.478" transform="translate(-115 -1416) translate(115 1416)"/>
                <path fill="#EFAFC7" fill-rule="nonzero" d="M71.969 85.91c-2.719.547-1.779-1.508-1.927-3.37.42-1.047 2.44-.199 3.422-.47 1.035.367.202 2.355.475 3.297-.007.98-1.356.387-1.97.543" transform="translate(-115 -1416) translate(115 1416)"/>
                <path fill="#EFAFC7" fill-rule="nonzero" d="M69.922 87.729c-.05 1.208.222 1.177-1.117 1.174-3.052.426-2.852-.526-2.767-3.347-.01-.412.18-.524.539-.52 2.65.098 3.737-.803 3.345 2.693M68.024 82.908c-.584-.155-1.872.413-1.956-.456.26-.958-.575-3.04.49-3.377.977.267 2.98-.585 3.403.467-.139 1.894.766 3.916-1.937 3.366" transform="translate(-115 -1416) translate(115 1416)"/>
                <path fill="#EFAFC7" fill-rule="nonzero" d="M70.06 82.722c-.002-3.677-.767-3.864 3.207-3.671 1.334.05.377 2.293.68 3.215-.066 1.198-3.104.604-3.886.456M73.928 88.957c-3.17-.08-4.154.88-3.886-3.251.254-1.307 2.415-.344 3.378-.62 1.103.522.243 2.747.508 3.87M63.093 88.93c-.045-3.634-.863-4.161 3.333-3.857.361-.004.515.154.507.505.301 3.778-.32 3.495-3.84 3.352M51.63 74.97c-3.53.015-3.808.529-3.564-3.404 0-.262-.01-.57.346-.565 3.297.043 3.77-.447 3.537 3.297-.022.266.16.635-.318.673M73.994 74.218c.14 1.424-2.436.406-3.342.712-1.203-.141-.359-2.3-.434-3.176-.074-1.307 1.942-.469 2.774-.69 1.584-.203.657 2.164 1.002 3.154" transform="translate(-115 -1416) translate(115 1416)"/>
                <path fill="#EFAFC7" fill-rule="nonzero" d="M63.092 83.975c-.565-2.732 1.58-1.783 3.468-1.929.836.527.17 2.373.44 3.338-.268 1.164-2.477.269-3.449.541-.868-.065-.308-1.373-.46-1.95M69.896 73.227c.643 2.525-1.822 1.577-3.817 1.686.25-.835-.569-2.48.44-2.877 1.418.142 3.584-.601 3.377 1.19" transform="translate(-115 -1416) translate(115 1416)"/>
                <path fill="#EFAFC7" fill-rule="nonzero" d="M66.913 81.065c.514 2.65-1.342 1.756-3.225 1.902-1.282-.17-.32-2.394-.617-3.335.223-1.187 2.42-.282 3.37-.566.92.017.283 1.417.472 2M74.06 75.07c3.284-.225 2.975-.13 2.895 3.834-3.342.285-2.993.18-2.896-3.834M52.09 76.953c-.543-2.647 1.481-1.793 3.325-1.911 1.117.393.248 2.5.472 3.492-.634.876-2.288.21-3.287.413-.934-.044-.34-1.407-.51-1.994M76.916 83.993c-.15.585.41 1.86-.473 1.94-.966-.25-2.967.544-3.375-.446.268-.986-.571-3.007.472-3.443 1.94.11 3.892-.738 3.376 1.949" transform="translate(-115 -1416) translate(115 1416)"/>
                <path fill="#EFAFC7" fill-rule="nonzero" d="M52.027 74.23c.475-1.192-.926-3.396 1.16-3.171.881.217 2.926-.63 2.767.773.295.85-.964 1.735.019 2.224-.024.861-.024.863-.879.869-.866-.244-3.196.666-3.067-.695M48.075 78.489c-.315-4.218.248-3.423 3.86-3.44.123 4.713.5 4.239-3.86 3.44" transform="translate(-115 -1416) translate(115 1416)"/>
                <path fill="#DEA3BE" fill-rule="nonzero" d="M54 83.205c-.848 1.349-2.381 2.546-3.765 2.795-.429-.325-.586-1.054-1.235-1.054.063-.198.075-.474.2-.58 1.621-.878 3.506-4.086 4.8-1.16M68.558 68.062c-.54.134-1.725-.386-1.719.504.248.825-.561 2.804.556 2.9.84-.243 2.751.602 2.85-.668-.017-1.663.529-3.177-1.687-2.736m1.685 5.026c.184-1.995-1.741-1.167-3.001-1.325-1.119.335.279 2.939-.689 3.237-.259-.917.619-3.087-.568-3.245-2.885.177-2.449-.49.173-.293 1.806-.886-2.436-4.313 4.24-4.462.654 2.85-1.691 4.996 2.691 4.466.578.095.578-.363.714-.816.416.872.022 2.608.161 3.766-.78-.42.505-3.07-1.042-2.794-2.63.128-1.862-.65-2.679 1.466M49 90.942c-1.169 1.196-2.714 2.016-4.02 3.058-2.711-.181.97-3.183 1.845-3.827.308-.27.483-.23.632.159.218.915 1.51-.53 1.543.61" transform="translate(-115 -1416) translate(115 1416)"/>
                <path fill="#EFAFC7" fill-rule="nonzero" d="M45.346 77.474c.1-.691-.97-2.28.222-2.416.96.242 3.09-.523 3.384.458.162 1.662.028 2.959-2.291 2.316.062-.832-.663-.182-1.315-.358" transform="translate(-115 -1416) translate(115 1416)"/>
                <path fill="#DEA3BE" fill-rule="nonzero" d="M24.017 82.996c.053-1.51-.423-3.24 1.454-3.715 5.094-1.56 1.38 3.894-1.454 3.715" transform="translate(-115 -1416) translate(115 1416)"/>
                <path fill="#EFAFC7" fill-rule="nonzero" d="M59.043 72.057c3.143-.55 5.584 3.05 2.613 2.884-3.105.263-2.647-.286-2.613-2.884" transform="translate(-115 -1416) translate(115 1416)"/>
                <path fill="#EFAFC7" fill-rule="nonzero" d="M55.002 74.108c1.663-2.054 4.572-3.616 3.899.33.01.375-.16.492-.524.486-1.03-.297-3.465.76-3.375-.816M63.133 71.066c3.191-.214 2.903-.132 2.823 3.806-.9-.308-3.23.977-2.93-1.014 2.405 1.152 1.156-1.594.107-2.792M59 80.635c-.088.302.213 1.692-.405 1.294-.858-1.31-4.191-.585-3.502-2.617 1.014-.596 2.613-.128 3.812-.273-.15.54-.258 1.08.095 1.596" transform="translate(-115 -1416) translate(115 1416)"/>
                <path fill="#DEA3BE" fill-rule="nonzero" d="M48.995 99.36c-.584.598-1.643 1.674-2.542 1.64-.37-.471-1.118-.206-1.453-.643.56-.741 1.794-1.178 2.52-1.87 1.004-1.024 1.538-.289 1.475.873" transform="translate(-115 -1416) translate(115 1416)"/>
                <path fill="#EFAFC7" fill-rule="nonzero" d="M62.103 79.001c1.573-.057.534 2.32.832 3.355-.191 1.186-2.226.324-3.109.56-.685-.018-.767-.122-.795-.862-.361-1.995 2.52 1 3.072-3.053" transform="translate(-115 -1416) translate(115 1416)"/>
                <path fill="#EFAFC7" fill-rule="nonzero" d="M60 82.072c.962.244 2.65-.567 2.96.48-.15 1.782.753 3.946-1.755 3.346-1.089-.107.749-2.454-1.205-3.826" transform="translate(-115 -1416) translate(115 1416)"/>
                <path fill="#0D0D0D" fill-rule="nonzero" d="M60.236 80.011c.583-.135 1.177-1.345.29-1.798-.514.064-.719 1.271-.29 1.798M62 78.553c-.327 4.603-4.83 1.721-2.155-.614.182-.052.552.158.283-.435-.042-1.312 1.859.264 1.872 1.05" transform="translate(-115 -1416) translate(115 1416)"/>
                <path fill="#EFAFC7" fill-rule="nonzero" d="M41.988 76.777c-1.116-.022-1.32-1.543-.44-1.712.952.177 3.126-.467 3.378.404.375 2.316-.691 1.32-2.938 1.308" transform="translate(-115 -1416) translate(115 1416)"/>
                <path fill="#DEA3BE" fill-rule="nonzero" d="M74 89.63c2.677-.124 3.642.824 3.322-2.463.047-.216.23-.228.281-.005.216.721-.54 2.557.622 2.46 1.014-.135 2.336.374 3.126-.352.006.346.265.35.52.378.086.02.204.173.065.23-1.036.023-.3.971-.728 1.488.514-2.137-1.738-1.287-3.119-1.45-1.019.076-.104 1.552-.624 2.084-.304-.373-.087-.926-.153-1.376.198-1.666-3.058.03-3.312-.994M53.485 79.029c.494.079 1.622-.252 1.49.402.262 1.237-1.607.064-2.44.113-1.383-.415.273-.625.95-.515M79.311 85.772c2.135.422 1.406-1.49 1.52-2.855-.067-1.13-3.018.132-2.822-.71.804-.233 2.863.552 2.817-.612-.064-.632.087-2.562.16-.997.434 4.287-1.67 5.538 3.014 5.143-.249.377-1.377.031-1.924.147-1.704-.312-.927 1.035-1.094 2.112-.605-.415.596-2.63-1.05-2.042-.176-.001-.523-.02-.62-.186M56 99c-.205.788-.997 1.171-1.497 1.706.038.57-.346.12-.503.203.523-.73 1.12-1.581 2-1.909M63 88.84c.84.22 2.757-.483 3 .354-.845-.22-2.697.404-3-.354M49 77.771c.66.154 1.542-.1 2 .458-.657-.154-1.57.132-2-.458M73.137 90c-.268.944.519 2.215-.276 3 .261-.949-.51-2.198.276-3" transform="translate(-115 -1416) translate(115 1416)"/>
                <path fill="#DEA3BE" fill-rule="nonzero" d="M51.366 78.78c.257-.054.535.166.634.248-.184.527-.692-.146-1-.165l.366-.084M42 76.771c.633.183 1.587-.112 2 .458-.652-.164-1.547.121-2-.458M45 77.91c.916-.221.916-.221 1 .319l-1-.32M63.227 74.212c-.465.079-.447-.123-.454-.44l.454.44M73.95 81.771l.1.458-.1-.458M69.95 81.771l.1.458-.1-.458" transform="translate(-115 -1416) translate(115 1416)"/>
                <path fill="#3B2C67" fill-rule="nonzero" d="M35.21 74.4c-7.423-6.88-16.667 2.978-20.292 9.517-1.182 1.131-4.225-9.67-2.29-9.893 1.539-.34 3.63-3.283 2.993-.262-.037.379.028.961.541.933.351-.03.325-.3.34-.543.161-3.648 4.61-6.652 7.967-5.062 1.184.784 1.17-.731 1.495-1.48 1.443-2.331 5.496-3.886 7.887-2.089.395.372 1.006.184 1.043-.365.102-1.522 1.288-2.08 2.32-2.771 1.395-1.12 1.68.438 1.817 1.693.018 1.93.682 3.864.969 5.832-.864.308-1.746.577-2.587.94-1.514.469-2.462-2.248-4.155-2.136-1.425.122-3.458-.242-4.327 1.182-.324 1.594 1.872.155 2.62.269 1.633-.208 2.936.897 3.927 2.098.224.678-.459 1.396-.268 2.137" transform="translate(-115 -1416) translate(115 1416)"/>
                <path fill="#EFAFC7" fill-rule="nonzero" d="M40 70.173c1.046-.712 1.888-1.947 3.158-2.156 1.198-1.34 3.078-2.555 4.628-3.811.472-.328 1.047-.543 1.541-.814.035-.496.4-.34.66-.392 1.104 1.603 1.523 3.676 1.133 5.644-.08.71-.01 1.476.845 1.27-.146.607.387 1.95-.45 2.014-.822-.25-2.632.555-2.902-.48.081-3.046-.694-3.206 2.173-3.421-3.187-.321-2.385.442-2.47 3.244.024 1.33-2.114.376-2.951.663-.838.075-.457-.97-.542-1.52-.237 3.277-2.197-.595-4.823-.24M62.984 70.543c-.292.406-.21 1.808-.915 1.375-2.428-.983-3.282-.003-3.025-3.376.461-1.045 2.374-.207 3.343-.477 1.05.064.385 1.741.597 2.478" transform="translate(-115 -1416) translate(115 1416)"/>
                <path fill="#EFAFC7" fill-rule="nonzero" d="M55.95 70.383c.407 2.35-1.758 1.383-3.293 1.586-.393.01-.536-.16-.537-.539-.691-3.794 1.742-2.328 3.83-1.047M58.928 70.79c-.825.322-.808.313-1.262-.306-.654-.875-1.697-1.428-2.666-2.024.339-.893 2.399-.167 3.343-.405 1.216.184.319 1.95.585 2.734M65.718 68c.132.708.68 4.054-.241 3.878-4.368.772-2.094-2.305.24-3.878" transform="translate(-115 -1416) translate(115 1416)"/>
                <path fill="#DEA3BE" fill-rule="nonzero" d="M59.331 71c.192-3.265.062-2.903-3.239-2.854-.646.116-.412.602-1.092.027.412-.299.412-.299.58-1.43-.328 1.95 1.881 1.065 3.213 1.258 1.29-.147.001-2.519.7-3.001.269.87-.707 3.083.733 2.996 1.165-.193 3.033.657 3.067-.953.232 2.399 3.766-.596-.07 3.199.355-2.675-.883-2.05-3.106-2.092-1.518.034.238 2.506-.786 2.85" transform="translate(-115 -1416) translate(115 1416)"/>
                <path fill="#EFAFC7" fill-rule="nonzero" d="M37.06 44.576c.817-.053.399.05.512.774-.285 1.224 1.15-.905 1.34-1.35-.096.888.53 3.144-.597 2.993-.317-.1-1.055.09-.716-.505.326-.604-.19.335-.362.38-.463-.521-.089-1.56-.176-2.292" transform="translate(-115 -1416) translate(115 1416)"/>
                <path fill="#823F86" fill-rule="nonzero" d="M37.795 30.555c-.268.188-.333.414-.071.569.217-.106.326-.293.071-.57m.863 1.19c1.14-.288-.969 1.087-.543 1.91.142.796-.185-.053-.221.115-.371.016-.35-.794.022-1.028.038-.114.052-.275.119-.333.345-.429-.171-.898-.466-.432-.455.722-1.33-3.378.804-1.46-.134.225-.084 2.004.285 1.227" transform="translate(-115 -1416) translate(115 1416)"/>
                <path fill="#EFAFC7" fill-rule="nonzero" d="M34 12.816c.193-.788.877-3.032 1.797-2.8-.3.376-.032.676.195.983.076.544-.389.472-.893.261-.066.278.175.317.44.356.827 1.643.624 1.492-1.539 1.2" transform="translate(-115 -1416) translate(115 1416)"/>
                <path fill="#3B2C67" fill-rule="nonzero" d="M35.899 21.826c-.558.466-.64-.148-1.171-.173-.732-.039-.828-.545-1.65-.175-.555-.485.2-.79-1.07-.608-.083-1.443.5-.152.687-.898.988.005 1.056-.075.639-.763.137-.57.524.212 1.02.175-.203.169-.549.242-.476.594-.503.25-.47 1.373.369 1.054.121-.126.058-.553.45-.51-.014 1.694 1.735-1.368 1.202 1.304" transform="translate(-115 -1416) translate(115 1416)"/>
                <path fill="#EFAFC7" fill-rule="nonzero" d="M33.022 35.257l.554-.048c.44-.504 1.475-.004.885.533.282-.052.351.592.754.658.813-.277.924 1.25.496 1.385 1.225 1.01-1.933 1.988-.428.301-.49-.371-.8.946-.952-.05.157-.189.317-.54.473-.539.706-.089.176-.698-.173-.785-.717-.133-.591-.85-.848-1.244-.163-.19-.922.24-.76-.211" transform="translate(-115 -1416) translate(115 1416)"/>
                <path fill="#3B2C67" fill-rule="nonzero" d="M39.693 40.913c-.393-.683-.091-1.584-.48-2.145-.458-.223-.051-.497.058-.768.451.616.583.336 1.444.51-.414.857 1.442 2.94-1.022 2.403" transform="translate(-115 -1416) translate(115 1416)"/>
                <path fill="#EFAFC7" fill-rule="nonzero" d="M39.373 8.561c-1.256-3.058.953-.735 2.32-.424 1.282 1.18-1.838.973-2.32.424" transform="translate(-115 -1416) translate(115 1416)"/>
                <path fill="#3B2C67" fill-rule="nonzero" d="M32.756 27.975c-.476-.3.127-.947-.716-.872-.315-.816 1.359-.755.676-1.243-.024-.496-.63-.506-.502-1.062.04-.3-.104-1.23.188-.562.062.128.128.376.171.372.602-.014 1.15.519 1.427.812-.597.088-.593.087-.498.62.345.59-1.213.464-.746 1.094.73.166.039.645.405.866l-.405-.025" transform="translate(-115 -1416) translate(115 1416)"/>
                <path fill="#EFAFC7" fill-rule="nonzero" d="M24.116 45.992c-.908.045-.985-.09-.918-.834.288-.546-.778-2.369.286-2.092.233-.054 1.149-.205.607.275-.407.784.82.444.909 1.075l-.154.197c-.557-.473-.687.313-1.09.294.164.504 1.182.72.36 1.085M27.207 44.896c-.992.324-.75-.157-1.148-.8-.569-1.697 3.21-1.15 1.487-.19-.895-.156-.393.508-.339.99M26.98 46.056c.299 1.323-2.91 1.058-2.98.403.852.348 1.288-.497 1.386.157.362-.394.236-.817.09-1.332.675-.873.761.524 1.504.772" transform="translate(-115 -1416) translate(115 1416)"/>
                <path fill="#DEA3BE" fill-rule="nonzero" d="M35.424 45.577c-.317-.207-.418.585-.019.611.104-.208.143-.402.02-.611zm-.85.565c.07-.795.24-1.018.875-1.142-.014.2-.29.42.183.556.327.095.482 1.103.273 1.323-.62.488-3.029-.652-1.28-.704l-.051-.033z" transform="translate(-115 -1416) translate(115 1416)"/>
                <path fill="#3B2C67" fill-rule="nonzero" d="M34.556 10.91c-.648-.517.03-1.084-.556-1.415.891-1.242 1.098.222 1.922.403-.644.668.263.565.043 1.102-.645-.125-.69-.491-1.409-.09" transform="translate(-115 -1416) translate(115 1416)"/>
                <path fill="#EFAFC7" fill-rule="nonzero" d="M27.196 38c.187.385 1.115.317.697.925.203.256.046 1.098-.193 1.075-.378-.148-.892-.925-.59-1.465-.253-.312-.003-.387.086-.535" transform="translate(-115 -1416) translate(115 1416)"/>
                <path fill="#823F86" fill-rule="nonzero" d="M39.922 43.019c-.264.508-2.27 2.958-1.87 1.55.522-.54.585-1.276 1.41-1.404-.91-1.035.929-1.931.46-.146" transform="translate(-115 -1416) translate(115 1416)"/>
                <path fill="#DEA3BE" fill-rule="nonzero" d="M35.097 39.152c1.567-.97.75 3.089.119 1.456-.333-.465-.203-.961-.12-1.456" transform="translate(-115 -1416) translate(115 1416)"/>
                <path fill="#3B2C67" fill-rule="nonzero" d="M36.537 6.014c.935-.14.605.835 1.108 1.225.759.162.052.522.137.761-.454-.164-1.075-.052-1.239-.709-.848.16-.587-1.052-.006-1.277" transform="translate(-115 -1416) translate(115 1416)"/>
                <path fill="#DEA3BE" fill-rule="nonzero" d="M24 39.631c.543-.47 1.79-1.085 1.758-.122.02.07.008.071.214.126.277.682-1.599.245-1.972-.004" transform="translate(-115 -1416) translate(115 1416)"/>
                <path fill="#3B2C67" fill-rule="nonzero" d="M36 31.132c.601-.688.886-.036 1.021-.73-.008-.497.23-.343.39-.402-.078.91.933-.322.465.616-.883.027-.206.91-1.17.853-.243 1.08-.498.276-.706-.337" transform="translate(-115 -1416) translate(115 1416)"/>
                <path fill="#823F86" fill-rule="nonzero" d="M35 33.094c-.573-.476.011.71-.303.892-.104.037-.349.003-.44-.117-.073-.181.417-.173.094-.44-.838-.442.15-.597-.318-1.121.733.065.544-.745.928.03l-.005-.009.044.765" transform="translate(-115 -1416) translate(115 1416)"/>
                <path fill="#EFAFC7" fill-rule="nonzero" d="M32.114 21c-.291-.258.074-1.43.028-2 .033.81 1.724 1.905.266 1.884-.15-.22-.246-.17-.294.116" transform="translate(-115 -1416) translate(115 1416)"/>
                <path fill="#DEA3BE" fill-rule="nonzero" d="M33.45 12c.955.213-.012 1.233 1.278 1.176.091.13.18.274.272.396-1.211 1.111-2.786-.131-1.55-1.572" transform="translate(-115 -1416) translate(115 1416)"/>
                <path fill="#823F86" fill-rule="nonzero" d="M32.269 17.256c1.085-.667.782.142 1.731.47-.404.551-.313-.043-.87-.04.182.124.086.207-.064.314-.265-.077-.427-.484-.834-.107-.538.06.026-.434.037-.637" transform="translate(-115 -1416) translate(115 1416)"/>
                <path fill="#3B2C67" fill-rule="nonzero" d="M25.625 44.43c-.059.04-.058.064.003.1.03-.044.074-.083-.003-.1m.222-.42c-.332.319.337.514.102.849-1.224.618-1.27-1.004-.102-.848" transform="translate(-115 -1416) translate(115 1416)"/>
                <path fill="#DEA3BE" fill-rule="nonzero" d="M29.947 42.737c-.237 1.073-1.195-1.467-.886-1.737 1.505-.004.702 1.15.886 1.737" transform="translate(-115 -1416) translate(115 1416)"/>
                <path fill="#3B2C67" fill-rule="nonzero" d="M30.056 46.69c-.281-.373.563-.874.982-.622-.3.586.814.354.962.932-.568-.14-1.893.203-1.944-.31" transform="translate(-115 -1416) translate(115 1416)"/>
                <path fill="#DEA3BE" fill-rule="nonzero" d="M37.113 35.056c.404-.172.638.076.887.412-.636.778-1.262.754-.887-.412M32.02 18.001c.675-.04-.058 1.203 1.03 1.062 2.743.568-1.361 2.26-1.03-1.062" transform="translate(-115 -1416) translate(115 1416)"/>
                <path fill="#EFAFC7" fill-rule="nonzero" d="M30 38.393c-.984 2.123-1.557-2.063-.195-1.298-.03.238.145.797-.259.452-.746.253.132.723.454.846" transform="translate(-115 -1416) translate(115 1416)"/>
                <path fill="#DEA3BE" fill-rule="nonzero" d="M41.679 10c-.062.535-.107.595.321.788-.279.27-.671-.051-.954.212-.185-.339.22-1.002.633-1M31 32.393c.014.246-.292.188-.273.44-.958.281-.754.285-.579-.605.366-.633.374.263.851.165" transform="translate(-115 -1416) translate(115 1416)"/>
                <path fill="#3B2C67" fill-rule="nonzero" d="M29.803 38c-.346-.087-1.29-.42-.488-.6.434.245.246-.151.278-.32.474-.374.52.678.21.92M25.032 42.762c.099-.474.662-.18.505-.76.702-.043.396.458.4.92-.367-.298-1.1.43-.905-.16M37.52 41.016c.83.524.515.816-.416.984-.102-.353-.299-1.118.416-.984" transform="translate(-115 -1416) translate(115 1416)"/>
                <path fill="#DEA3BE" fill-rule="nonzero" d="M26.923 42c.181.313 1.322.602 1.03.976-1.053.203-3.173-.94-1.03-.976" transform="translate(-115 -1416) translate(115 1416)"/>
                <path fill="#3B2C67" fill-rule="nonzero" d="M36.038 60c.626.407 1.595.687.382.982-.59.144-.387-.611-.382-.982M30.725 35.066c1.415 1.759-3.186.569-1.235.163.407.87.712-.541 1.235-.163" transform="translate(-115 -1416) translate(115 1416)"/>
                <path fill="#DEA3BE" fill-rule="nonzero" d="M35.675 36c-.46-.17-.901-.523-.545-.826.256.175.385-.44.783-.03.402.39-.751.452-.238.856" transform="translate(-115 -1416) translate(115 1416)"/>
                <path fill="#EFAFC7" fill-rule="nonzero" d="M24.975 44.152c.283 1.134-1.93 1.124-.476.008.157-.286.314-.124.476-.008" transform="translate(-115 -1416) translate(115 1416)"/>
                <path fill="#823F86" fill-rule="nonzero" d="M43 3.537c-.01.635-1.404.614-.884-.046.433-.634.535-.69.884.046M27.134 44c-.29-1.052-.108-.598.545-.985.142.021.405-.143.295.268-.204.115-.51.072-.501.511 0 .066-.22.137-.34.206" transform="translate(-115 -1416) translate(115 1416)"/>
                <path fill="#3B2C67" fill-rule="nonzero" d="M26.427 38.988c-1.092-.289.215-1.583.573-.662-.834.233.18.251-.472.666-.033.012-.073.01-.101-.004M33.268 29.993c-.866-.876.634-1.515.732-.393-.624-.382-.326.483-.732.393" transform="translate(-115 -1416) translate(115 1416)"/>
                <path fill="#DEA3BE" fill-rule="nonzero" d="M28.217 37.295c.028.439.011.616-.232.705-.563-.139.164-1.616.232-.705M30.889 34.514c-.335-.407-.532 1.112-.793.176.101-.217-.303-.514.055-.69.29.041 1.153-.145.738.514M39.406 3c.62.238.878.795.162 1-.637-.172-.803-.632-.162-1" transform="translate(-115 -1416) translate(115 1416)"/>
                <path fill="#EFAFC7" fill-rule="nonzero" d="M32.22 26.467c.075.76-.516.665-.44-.02.007-.617.445-.58.44.02" transform="translate(-115 -1416) translate(115 1416)"/>
                <path fill="#823F86" fill-rule="nonzero" d="M23.977 40.99c-.481.055-.895-.107-.977-.555.408-.803 1.14-.422.977.555" transform="translate(-115 -1416) translate(115 1416)"/>
                <path fill="#DEA3BE" fill-rule="nonzero" d="M39.946 42.774c-.307.026-.751.432-.946.09.245-.211.594-.037.493-.508.052-.828.694-.01.453.418M38.227 40.989c-.798.155-.27-1.37-.417-1.989.305.612.339 1.288.417 1.989M31.211 29c.043.286.032 1.194-.432.963-.031-.396.046-.73.432-.963" transform="translate(-115 -1416) translate(115 1416)"/>
                <path fill="#3B2C67" fill-rule="nonzero" d="M35.608 42c-1.231-.106-.311-.584.303-1 .188.498.074.824-.303 1" transform="translate(-115 -1416) translate(115 1416)"/>
                <path fill="#DEA3BE" fill-rule="nonzero" d="M37 32.538c.08-.865 1.473-.598.832.171-.22.62-.44.099-.832-.17M35.833 10c-.104-.342-.398-.575-.833-.726.075-.774 1.473.296.833.726" transform="translate(-115 -1416) translate(115 1416)"/>
                <path fill="#823F86" fill-rule="nonzero" d="M34.946 35.229c-.313-.061-.621-.376-.941-.01-.096-.568 1.28-.63.941.01" transform="translate(-115 -1416) translate(115 1416)"/>
                <path fill="#DEA3BE" fill-rule="nonzero" d="M31.665 31.935c-.219.327-.223-.696-.665-.48.166-.593.85-.595 1-.07l-.335.55" transform="translate(-115 -1416) translate(115 1416)"/>
                <path fill="#823F86" fill-rule="nonzero" d="M18.01 69c-.093-.524.494-.569.533-1 .12.187.243.36.457.138l-.99.862" transform="translate(-115 -1416) translate(115 1416)"/>
                <path fill="#3B2C67" fill-rule="nonzero" d="M30.39 32.015c1.943.679-1.519 1.835.014-.015l-.013.015z" transform="translate(-115 -1416) translate(115 1416)"/>
                <path fill="#DEA3BE" fill-rule="nonzero" d="M29.068 39c1.04.123 1.219.433.49 1-.008-.45-.788-.552-.49-1" transform="translate(-115 -1416) translate(115 1416)"/>
                <path fill="#3B2C67" fill-rule="nonzero" d="M25.185 39.206c.099.497.039.697-.336.794-.08-.56-.22-1.39.336-.794" transform="translate(-115 -1416) translate(115 1416)"/>
                <path fill="#823F86" fill-rule="nonzero" d="M31.227 39.425c-.158.952-.314.594-.454-.146.185-.192.397-.585.454.146M33 29.744c.281-.59.317-.939.965-.628.212.46-.605 1.312-.965.628" transform="translate(-115 -1416) translate(115 1416)"/>
                <path fill="#DEA3BE" fill-rule="nonzero" d="M23.97 42.771c.168.904-.405.225-.97.02.323-.01.647-.013.97-.02M34.821 32.792L34.773 32c.5.237.683 1.487.048.792" transform="translate(-115 -1416) translate(115 1416)"/>
                <path fill="#823F86" fill-rule="nonzero" d="M36.227 44c-.502-.215-.564-.42-.303-1l.303 1" transform="translate(-115 -1416) translate(115 1416)"/>
                <path fill="#EFAFC7" fill-rule="nonzero" d="M32.164 23.836c-.404.635-.542-.773-.19-.836.373.032.237.535.19.836" transform="translate(-115 -1416) translate(115 1416)"/>
                <path fill="#823F86" fill-rule="nonzero" d="M54 69c-.448-.28-1.208-.283-.947-1 .539.063.695.57.947 1" transform="translate(-115 -1416) translate(115 1416)"/>
                <path fill="#EFAFC7" fill-rule="nonzero" d="M31.876 27.008c.528-.115.41 1.03-.018.991-.199-.19.011-.666.018-.99" transform="translate(-115 -1416) translate(115 1416)"/>
                <path fill="#DEA3BE" fill-rule="nonzero" d="M25.97 41.838c.185.532-.544.469-.97.122.248-.291.62-.171.97-.122M40.773 41.211c.063-.298.171-.438.446-.44.044.447-.086.493-.446.44" transform="translate(-115 -1416) translate(115 1416)"/>
                <path fill="#3B2C67" fill-rule="nonzero" d="M25.602 42.771c.897.257.093.529-.602.441.183-.155.384-.301.602-.44" transform="translate(-115 -1416) translate(115 1416)"/>
                <path fill="#823F86" fill-rule="nonzero" d="M16.02 71c-.057-.783-.057-.783.98-1l-.98 1" transform="translate(-115 -1416) translate(115 1416)"/>
                <path fill="#DEA3BE" fill-rule="nonzero" d="M32 20.8c.638 0 1.161-.194.954.429-.314-.148-.94.084-.954-.428M32.049 26.229c-.22-.304.35-.328.702-.458.745.223-.387.406-.702.458" transform="translate(-115 -1416) translate(115 1416)"/>
                <path fill="#3B2C67" fill-rule="nonzero" d="M32.217 25.947c-.922.285-.147-.66.007-.947-.003.316.013.632-.007.947" transform="translate(-115 -1416) translate(115 1416)"/>
                <path fill="#EFAFC7" fill-rule="nonzero" d="M31.825 28.771c.14.047.393.08.402.145-.022.542-.634.306-.402-.145" transform="translate(-115 -1416) translate(115 1416)"/>
                <path fill="#DEA3BE" fill-rule="nonzero" d="M32.218 24c-.063.355.198 1.069-.345.995-.096-.396-.277-.83.345-.995" transform="translate(-115 -1416) translate(115 1416)"/>
                <path fill="#EFAFC7" fill-rule="nonzero" d="M33.227 30.827c-.038.38-.161.44-.44.383-.08-.4.184-.524.44-.383M23.81 41.229c-.17-.32.284-.701.417-.254-.139.07-.272.241-.417.254" transform="translate(-115 -1416) translate(115 1416)"/>
                <path fill="#3B2C67" fill-rule="nonzero" d="M24.91 41.229c-.044-.189-.285-.547 0-.437.425.185.421.246 0 .437" transform="translate(-115 -1416) translate(115 1416)"/>
                <path fill="#EFAFC7" fill-rule="nonzero" d="M42.773 8.229c.108-.474.162-.628.454-.231l-.454.23" transform="translate(-115 -1416) translate(115 1416)"/>
                <path fill="#DEA3BE" fill-rule="nonzero" d="M43.227 9.771c-.052.67-.163.507-.454.13l.454-.13" transform="translate(-115 -1416) translate(115 1416)"/>
                <path fill="#3B2C67" fill-rule="nonzero" d="M28.957 36.812c.55-.18.093.294.077.417-.534-.016-.085-.263-.077-.417M32.227 50.229c-.188-.112-.411-.167-.454-.437.3-.113.317.269.454.437" transform="translate(-115 -1416) translate(115 1416)"/>
                <path fill="#DEA3BE" fill-rule="nonzero" d="M33.227 30.848l-.275.38c-.162-.347-.408-.587.275-.38" transform="translate(-115 -1416) translate(115 1416)"/>
                <path fill="#3B2C67" fill-rule="nonzero" d="M31.773 49.771c.309.184.735.265.198.458-.071-.143-.116-.352-.198-.458" transform="translate(-115 -1416) translate(115 1416)"/>
                <path fill="#DEA3BE" fill-rule="nonzero" d="M38.227 45.827c-.324.645-.792.43-.085-.056l.085.056" transform="translate(-115 -1416) translate(115 1416)"/>
                <path fill="#EFAFC7" fill-rule="nonzero" d="M33.202 22.771c.064.273.037.492-.43.453.144-.15.287-.302.43-.453" transform="translate(-115 -1416) translate(115 1416)"/>
                <path fill="#823F86" fill-rule="nonzero" d="M54.227 69.229l-.454-.261c.347-.424.4-.081.454.26" transform="translate(-115 -1416) translate(115 1416)"/>
                <path fill="#DEA3BE" fill-rule="nonzero" d="M64.227 74.05l-.454-.1.454.1" transform="translate(-115 -1416) translate(115 1416)"/>
                <path fill="#823F86" fill-rule="nonzero" d="M24.227 45.771c-.003.43-.046.567-.454.368l.454-.368" transform="translate(-115 -1416) translate(115 1416)"/>
                <path fill="#DEA3BE" fill-rule="nonzero" d="M37.778 45.771l.45.416c-.412.14-.477-.09-.45-.416" transform="translate(-115 -1416) translate(115 1416)"/>
                <path fill="#EFAFC7" fill-rule="nonzero" d="M32.206 27.771l.021.458c-.583-.192-.62-.26-.02-.458M33.018 23.771c-.024.132.102.415-.03.458.023-.137-.116-.405.03-.458" transform="translate(-115 -1416) translate(115 1416)"/>
                <path fill="#3B2C67" fill-rule="nonzero" d="M25.029 67.95c.055.09-.007.086-.079.1.002-.062.01-.102.079-.1" transform="translate(-115 -1416) translate(115 1416)"/>
                <path fill="#DEA3BE" fill-rule="nonzero" d="M36.176 38.05l-.403-.066c.173-.032.602-.08.403.066" transform="translate(-115 -1416) translate(115 1416)"/>
                <path fill="#3B2C67" fill-rule="nonzero" d="M28.95 35.771c.158.083.1.216.02.458l-.02-.458" transform="translate(-115 -1416) translate(115 1416)"/>
                <path fill="#823F86" fill-rule="nonzero" d="M36.96 35.004c.073-.102.067-.044.08.046-.027-.012-.06-.059-.08-.046" transform="translate(-115 -1416) translate(115 1416)"/>
                <path fill="#DEA3BE" fill-rule="nonzero" d="M35.035 32.229c-.051-.16-.134-.257-.047-.458.034.15.089.276.047.458" transform="translate(-115 -1416) translate(115 1416)"/>
                <path fill="#3B2C67" fill-rule="nonzero" d="M15.773 72.05l.454-.1-.454.1" transform="translate(-115 -1416) translate(115 1416)"/>
                <path fill="#DEA3BE" fill-rule="nonzero" d="M31.05 31.771l-.1.458.1-.458" transform="translate(-115 -1416) translate(115 1416)"/>
                <path fill="#0D0D0D" fill-rule="nonzero" d="M40.492 70.214c3.59-.431 9.056 5.909 5.172 4.413-2.237-3.181-7.45-4.66-9.401-.397-.246.892-.17 1-.95.371.188-1.97.776-1.992-1.083-3.422-1.53-1.494-3.525-.212-5.198-.372-.396-2.053 2.98-1.701 4.313-1.807 1.252.133 2.244 1.182 3.158 1.967 1.13.836 2.666-.984 3.99-.753" transform="translate(-115 -1416) translate(115 1416)"/>
                <path fill="#EFAFC7" fill-rule="nonzero" d="M41.08 71c2.201.646 4.908 4.625.746 3.916-1.47.144-.472-2.764-.746-3.916M46.513 74.315c-.317-3.276-4.165-3.342 1.797-3.293.922-.385.927 4.393-.03 3.945-.862-.199-1.885.503-1.767-.652" transform="translate(-115 -1416) translate(115 1416)"/>
                <path fill="#EFAFC7" fill-rule="nonzero" d="M39.019 75.042c.872.163 3.08-.445 2.978.517.015.286-.1.486-.565.432-.817-.049-5.447-.624-2.413-.95" transform="translate(-115 -1416) translate(115 1416)"/>
                <path fill="#823F86" fill-rule="nonzero" d="M24 95.686c.35.021.587-.051.554-.442.085-.325.257-.328.378.005.359.444-.81 1.172-.932.437" transform="translate(-115 -1416) translate(115 1416)"/>
                <path fill="#3B2C67" fill-rule="nonzero" d="M35.65 74c.476.301.46.789-.013 1-1.013-.063-.673-.59.014-1" transform="translate(-115 -1416) translate(115 1416)"/>
                <path fill="#823F86" fill-rule="nonzero" d="M33.227 73.071c-.336.346-.413.066-.454-.3l.454.3" transform="translate(-115 -1416) translate(115 1416)"/>
                <path fill="#0D0D0D" fill-rule="nonzero" d="M20.999 61.46l-.9-.494c-.517.59.367 1.214.9.494M20.447 63c-1.923-.033-1.942-3.123.019-2.996 2.137.038 1.958 2.965-.02 2.996" transform="translate(-115 -1416) translate(115 1416)"/>
                <path fill="#EFAFC7" fill-rule="nonzero" d="M12.598 60c-.565-.452-.943-.805-.127-1 .643.222.717.499.127 1" transform="translate(-115 -1416) translate(115 1416)"/>
                <path fill="#DEA3BE" fill-rule="nonzero" d="M62.555 66c.568-3.272-1.725-1.434-3.555-2.151 1.173-.23 3.595.673 3.646-.849.134.786.134.786 1.354.958-2.103-.296-.808 1.359-1.445 2.042" transform="translate(-115 -1416) translate(115 1416)"/>
                <path fill="#3B2C67" fill-rule="nonzero" d="M61.911 62.229c-.22-.324-.221-.433.316-.458l-.316.458" transform="translate(-115 -1416) translate(115 1416)"/>
                <path fill="#DEA3BE" fill-rule="nonzero" d="M57.773 63.817c.13.147.45-.352.454.298-.136-.127-.47.497-.454-.298M32.986 61c-.266-.454-.297-.622-.014-1 .314.374.36.52.014 1M59.001 62.06c-.04-1.358.92-1.268 1.726-.53 1.098 1.39-1.454 2.21-1.726.53" transform="translate(-115 -1416) translate(115 1416)"/>
                <path fill="#0D0D0D" fill-rule="nonzero" d="M23.263 76.99c-1.256-.017-1.504 1.419-.3 1.449.68 0 .708-1.171.3-1.449m-.528-.99c1.613-.01 3.175 1.884 1.63 3.363-2.84 2.425-5.043-2.817-1.63-3.363" transform="translate(-115 -1416) translate(115 1416)"/>
                <path fill="#823F86" fill-rule="nonzero" d="M57.976 94.771c.113.139.078.255.02.458-.08-.115-.035-.27-.02-.458M55.773 95.972l.454-.022c-.15.121-.25.137-.454.022M59.044 78.875l-.086.125c-.047-2.483.126-2.8.086-.125M62 89.033c-.286-.05-.864.106-1-.066.286.05.864-.106 1 .066M40.773 84.967l.454-.017c-.146.132-.241.129-.454.017M34.01 80.97c.032.062.029.067-.04.055l.04-.055z" transform="translate(-115 -1416) translate(115 1416)"/>
                <path fill="#EFAFC7" fill-rule="nonzero" d="M68.021 68.088c2.525-.5 1.907 1.215 1.924 3.096-.111 1.439-2.29.478-3.249.755-1.276-.108-.35-2.348-.634-3.28-.008-1.01 1.344-.419 1.96-.571" transform="translate(-115 -1416) translate(115 1416)"/>
                <path fill="#DEA3BE" fill-rule="nonzero" d="M60.239 80c-.441-.584-.23-1.93.297-2 .91.505.3 1.85-.297 2" transform="translate(-115 -1416) translate(115 1416)"/>
                <path fill="#0D0D0D" fill-rule="nonzero" d="M40.724 20.138c1.343.434 4.223-3.06 2.555-3.008-.894.723-1.805 1.405-2.6 2.13-.139.365-.268.726-.755.447-.535.376.462.388.8.43m2.435-5.418c-.269-.608-.87-.436-.95.154-.759.217-1.41 1.245-2.27 1.655-3.582 2.38.58-2.312 1.512-3.078-1.27-.474-3.408.355-3.495 2.016-.916.875-.239 4.2 1.13 3.676 1.333-1.233 3.026-1.954 4.293-3.26.862.029.017-.86-.22-1.163m-5.083 5.428c-.877-.797-1.396-1.911-1.978-2.832.347-.317.572-.678.315-1.167-.568-.818-.213 1.64-.799.37-.415.004-.558-.455-.614-.818.035-.43.476.152.673-.545.412.12.487.737.7-.013.41.053.441-.222.419-.542 7.388-9.095 12.956 8.804 2.236 6.123-.291-.238-.628-.395-.952-.576" transform="translate(-115 -1416) translate(115 1416)"/>
                <path fill="#3B2C67" fill-rule="nonzero" d="M35.25 15.11c-.18.748-.553.118-.594.58-.015.766.595.736.769 1.34.194-.346.116-1.482.478-.863.291.65-.126 1.182-.562 1.443.34.177-.016.776-.239.588-.503-.028-.11.743-.938.802-.179-.516-.211-1.97.52-1.52.029-.433-.398-.393-.282-.854.006-.04-.117-.152-.119-.15-.277.337-.216.07-.21-.173-.257-1.036.208-.907.725-1.44.272-.276-.068-.603.094-.863.562.26.643.511.358 1.11" transform="translate(-115 -1416) translate(115 1416)"/>
                <path fill="#DEA3BE" fill-rule="nonzero" d="M35.557 15.637c.714-.93-.94-1.008-.472-1.668.068.006.202-.032.217.01.546.882.406-.846.388-1.212.537.182.524-.35.74-.767.677.43-.658 1.07-.175 2 .109.241.521.63.56.117.76.266-1.093.999-.658 1.506-.181.774-.248.137-.6.014" transform="translate(-115 -1416) translate(115 1416)"/>
                <path fill="#823F86" fill-rule="nonzero" d="M40.31 27.755c-.366.683-2-.247-.979-.539 1.793-.735-.951-.795.367-1.216.164.073.317.495.5.02.148-.092.25.297.439.056 1.115.505-.75.614-.138 1.417-.187-.024-.238.057-.188.262" transform="translate(-115 -1416) translate(115 1416)"/>
                <path fill="#EFAFC7" fill-rule="nonzero" d="M34.309 25.423c.519-.146-.22-.682-.309-.946.295.014.504-.064.423-.456.526-.202.91 1.13 1.34.301.494.304.125 1.198-.286 1.398-.014-.881-.184-.364-.719-.382.538.712-.417 1.004-.449.085" transform="translate(-115 -1416) translate(115 1416)"/>
                <path fill="#3B2C67" fill-rule="nonzero" d="M37 29.518c-1.306 1.096-1.255.167-2-1.226.016-.468.498-.28.653-.08.089.27.078.268.17.223.28-.136.068.527.168.799.4-.355.9-.75 1.009.284M37 23.903c.054-.337.446-.459.455-.834 0-.025.204-.096.268-.058.772.394-.269 1.283-.723.892" transform="translate(-115 -1416) translate(115 1416)"/>
                <path fill="#DEA3BE" fill-rule="nonzero" d="M42.408 11.08c1.99-.403-.214.869 1.592.619-.706.648-2.892.16-1.6-.614l.008-.005zM42.505 26c-.47-.25-1.692-.329-1.48-.837.893-.639 2.904.801 1.48.837" transform="translate(-115 -1416) translate(115 1416)"/>
                <path fill="#823F86" fill-rule="nonzero" d="M40.083 39.606c-.318-.914.367-2.546.537-.903-.136.364-.16.465.159.4.531.08-.03.78-.278.897-.01-.432-.246-.338-.418-.394" transform="translate(-115 -1416) translate(115 1416)"/>
                <path fill="#3B2C67" fill-rule="nonzero" d="M37 13.777c-.855.915-1.69-1.246-.108-1.777.13.59-.112 1.175.108 1.777" transform="translate(-115 -1416) translate(115 1416)"/>
                <path fill="#823F86" fill-rule="nonzero" d="M41.212 24c1.188.234.937 1.194-.116.965.48-1.179-.504-.161.116-.965M39 31.592c.033-1.727 1.304.82.932 1.37-.941.308-.318-1.379-.932-1.37M37.318 25c.022.54.8-.143.667.45-.41.046-.545.357-.855.55-.151-.267-.255-1.022.188-1" transform="translate(-115 -1416) translate(115 1416)"/>
                <path fill="#DEA3BE" fill-rule="nonzero" d="M39.514 31c1.69.559-1.628.92-.946 1.725-.111.286-.365.404-.448.083-.383-1.975.172-.793 1.394-1.808M40 30.253c-.059.3-.085.723-.263.747-.277-.317.048-1.537-.496-1.243-.63-.096.1-1.936.759.496" transform="translate(-115 -1416) translate(115 1416)"/>
                <path fill="#823F86" fill-rule="nonzero" d="M35.002 23c-.046-1.814.857-3.136.97-.569.187.58-.605.41-.97.569" transform="translate(-115 -1416) translate(115 1416)"/>
                <path fill="#DEA3BE" fill-rule="nonzero" d="M35.906 20.127c-1.09 1.935-1 .243-.732-1.127.544.344 1.038.221.732 1.127" transform="translate(-115 -1416) translate(115 1416)"/>
                <path fill="#823F86" fill-rule="nonzero" d="M37.08 29.047c-.388-.835.746-1.714.89-.3.195.476-.612.09-.34.69.161 1.107-.846.366-.55-.39" transform="translate(-115 -1416) translate(115 1416)"/>
                <path fill="#3B2C67" fill-rule="nonzero" d="M39.929 24.7c-.236.096-.47.2-.708.283-.82.152.975-.772.058-.743.263.023.285-.291.53-.233 0 .245.334.418.118.71l.002-.016z" transform="translate(-115 -1416) translate(115 1416)"/>
                <path fill="#823F86" fill-rule="nonzero" d="M35.608 27.106c.518-.146.426.5.269.792-.052.144-.167.128-.216 0-.075-.425-.363-.419-.661-.397.064-.5.168-.613.608-.395" transform="translate(-115 -1416) translate(115 1416)"/>
                <path fill="#EFAFC7" fill-rule="nonzero" d="M41 21.103c.54-.405 2.968.487 1.574.897-.247-.87-1.102-.317-1.574-.897" transform="translate(-115 -1416) translate(115 1416)"/>
                <path fill="#823F86" fill-rule="nonzero" d="M42 28.317c-.194.304-1.266 1.088-.938.422-.187-.603.531-1.08.938-.422M35 10.154c.221-.116.446-.31.635.067.197-.01.635.326.13.461-.742.845.055-.263-.522-.249-.079-.094-.178-.17-.243-.279M38.63 40.588c-.573-.145-1.014-.79-.124-.524 1.402.527-.715 1.488.124.524" transform="translate(-115 -1416) translate(115 1416)"/>
                <path fill="#EFAFC7" fill-rule="nonzero" d="M40.995 27.622c-.368-.217-.56 1.04-.63-.122-1.135-.245.749-1.055.63.122" transform="translate(-115 -1416) translate(115 1416)"/>
                <path fill="#3B2C67" fill-rule="nonzero" d="M35.382 11.068c.945-.417.788 1.23-.346.884-.164-.235.281-.606.346-.884" transform="translate(-115 -1416) translate(115 1416)"/>
                <path fill="#823F86" fill-rule="nonzero" d="M37.658 21.006c.457.208.932.388 1.342.661-.08.762-1.037.005-1.312-.189-.624.547-1.157-.57-.03-.472" transform="translate(-115 -1416) translate(115 1416)"/>
                <path fill="#DEA3BE" fill-rule="nonzero" d="M42 35.714c-.339 1.015-1.692-1.027-.551-.672.221.206.373.446.551.672M40 10.26c-.654.63-1.408-.394-1.493.413.03.264-.074.36-.305.317-.488-.09.071-.2.008-.332-.418-1.174 1.093-.425 1.79-.398" transform="translate(-115 -1416) translate(115 1416)"/>
                <path fill="#823F86" fill-rule="nonzero" d="M41 21.43c-.188.258-1.26.976-.94.263.283-.458.654-1.153.94-.263" transform="translate(-115 -1416) translate(115 1416)"/>
                <path fill="#0D0D0D" fill-rule="nonzero" d="M34.147 19.368l.714-.368c.685.513-1.42 1.748-.714.368M34.473 28.76c-.577.737-.639-.43-.116-.76.606.23 1.024.552.116.76" transform="translate(-115 -1416) translate(115 1416)"/>
                <path fill="#DEA3BE" fill-rule="nonzero" d="M35.166 27.994c-.289.063-.106-.397-.14-.572.093-.128.5.252.37-.237.09-2.814 1.447.186-.23.81" transform="translate(-115 -1416) translate(115 1416)"/>
                <path fill="#823F86" fill-rule="nonzero" d="M35 19.365c.804-.795 1.141-.157.946.635-.255-.284-.555-.5-.946-.635" transform="translate(-115 -1416) translate(115 1416)"/>
                <path fill="#DEA3BE" fill-rule="nonzero" d="M35.807 22.771c.438.097.007.338-.087.42-.21-.23-.373-.063-.554.038-.54-.266.39-.412.64-.458" transform="translate(-115 -1416) translate(115 1416)"/>
                <path fill="#3B2C67" fill-rule="nonzero" d="M37.384 25.987c-.78.113-.124-.536-.163-.964.488-.126.707.29.779.698-.23.035-.504-.033-.616.266M35.084 19.604c-.464-.933 1.148-.77.887.384-.341.078-.593-.248-.887-.384M34.978 26.518c.202.72-1.055.558-.974.007.056-.712.82-.686.974-.007" transform="translate(-115 -1416) translate(115 1416)"/>
                <path fill="#DEA3BE" fill-rule="nonzero" d="M41.12 27.61c-.35-.799.117-.66.726-.438.48.656-.275 1.241-.726.439" transform="translate(-115 -1416) translate(115 1416)"/>
                <path fill="#EFAFC7" fill-rule="nonzero" d="M39.705 43c.688.709.04.73-.594 1-.2-.89-.2-.89.594-1M35 25.425c-.255 1.723-1.853-1.048-.392-.29.144.089.262.193.392.29" transform="translate(-115 -1416) translate(115 1416)"/>
                <path fill="#DEA3BE" fill-rule="nonzero" d="M41 39.222c.33-.324.557-.65 1-.3-.268.32-.615.319-1 .3M43 23.08c-.763.21.173.608-.234.894-1.449.247-.536-1.342.234-.894" transform="translate(-115 -1416) translate(115 1416)"/>
                <path fill="#3B2C67" fill-rule="nonzero" d="M35.13 25.899c.004-.21-.246-.51-.063-.671 1.432-.913 1.022 1.254.063.67M38.227 23.003c-.167.298-.383.513-.165.85-.343.62-.484-.935.165-.85" transform="translate(-115 -1416) translate(115 1416)"/>
                <path fill="#EFAFC7" fill-rule="nonzero" d="M37 25.022c-.04.834-.333 1.386-.998.596-.04-.778.572-.604.998-.596" transform="translate(-115 -1416) translate(115 1416)"/>
                <path fill="#DEA3BE" fill-rule="nonzero" d="M33.541 25c-.986-.35-.422-.525.1-1 .43.47.56.668-.1 1" transform="translate(-115 -1416) translate(115 1416)"/>
                <path fill="#3B2C67" fill-rule="nonzero" d="M36 24.036c-.31.444-.694.01-1-.194.3-.157.98-.036 1 .194M38 26.164c.31-.369 1.15-.103.977.666-.28.578-.68-.49-.977-.666" transform="translate(-115 -1416) translate(115 1416)"/>
                <path fill="#823F86" fill-rule="nonzero" d="M41 35.67c-.683.933-1.368-.378-.772-.67.002.88.452.134.772.67" transform="translate(-115 -1416) translate(115 1416)"/>
                <path fill="#3B2C67" fill-rule="nonzero" d="M37 24.417c-.666-.184-.552.353-1 .583.126-.856-.015-1.433 1-.583" transform="translate(-115 -1416) translate(115 1416)"/>
                <path fill="#DEA3BE" fill-rule="nonzero" d="M39.005 21.16c-.074-.448.715.184.995.222-.581.947-.73.752-.995-.223" transform="translate(-115 -1416) translate(115 1416)"/>
                <path fill="#EFAFC7" fill-rule="nonzero" d="M34.813 26.005c.412-.065.334.537.414.995-.447-.089-.514-.345-.414-.995M42 34c-.331.077-.674.15-1 .229.394-.543.596-.582 1-.229M43.773 10.775c.537.175.655.553.043.43-.058.031.02-.485-.043-.43" transform="translate(-115 -1416) translate(115 1416)"/>
                <path fill="#3B2C67" fill-rule="nonzero" d="M38.007 40c-.386-.402-.283-1.393.22-.832-.282.164.268.78-.22.832M38.994 36c.213.409.377.792.041 1-.28-.318-.396-.47-.04-1" transform="translate(-115 -1416) translate(115 1416)"/>
                <path fill="#DEA3BE" fill-rule="nonzero" d="M38.084 28.224c-.94-.285.606-.86-.004.005l.004-.005z" transform="translate(-115 -1416) translate(115 1416)"/>
                <path fill="#EFAFC7" fill-rule="nonzero" d="M41.224 23.645c-.169.546-.272.407-.451-.044.205-.634.49-.97.45.044" transform="translate(-115 -1416) translate(115 1416)"/>
                <path fill="#DEA3BE" fill-rule="nonzero" d="M40.227 26.04c-.166.404-.305.044-.454-.018.149-.338.186-.336.454.017" transform="translate(-115 -1416) translate(115 1416)"/>
                <path fill="#EFAFC7" fill-rule="nonzero" d="M44.227 13.074c-.294.288-.38.138-.454-.154.155-.31.292-.074.454.154" transform="translate(-115 -1416) translate(115 1416)"/>
                <path fill="#823F86" fill-rule="nonzero" d="M38.015 41.198c-.153-.251.904-.622.985-.304-.231.194-.454.417-.985.304" transform="translate(-115 -1416) translate(115 1416)"/>
                <path fill="#DEA3BE" fill-rule="nonzero" d="M37.773 30.006c.356-.078.636.674.31.994-.041-.337-.22-.663-.31-.994M39 25.771l1 .17c-.442.194-.95.615-1-.17" transform="translate(-115 -1416) translate(115 1416)"/>
                <path fill="#DEA3BE" fill-rule="nonzero" d="M37.84 29.999c.053-.43-.353-1.104.364-.985-.054.402.235 1.02-.364.985" transform="translate(-115 -1416) translate(115 1416)"/>
                <path fill="#EFAFC7" fill-rule="nonzero" d="M42.227 38.064c-.223.385-.286.002-.454-.198.072-.268.295.11.454.198" transform="translate(-115 -1416) translate(115 1416)"/>
                <path fill="#3B2C67" fill-rule="nonzero" d="M37.801 28.494c.133-.14-.302-.602.305-.47.33.49-.092 1.635-.305.47" transform="translate(-115 -1416) translate(115 1416)"/>
                <path fill="#DEA3BE" fill-rule="nonzero" d="M40.227 10.861c-.204.289-.246.549-.454.201.137-.312.186-.363.454-.2M38.091 28.771c.048.114.086.321.136.386-.493.261-.652-.265-.136-.386M38.773 27.804l.454-.033c-.26.412-.38.766-.454.033" transform="translate(-115 -1416) translate(115 1416)"/>
                <path fill="#EFAFC7" fill-rule="nonzero" d="M40.194 24.22c-.632.087-.496-.5.033-.445l-.033.445" transform="translate(-115 -1416) translate(115 1416)"/>
                <path fill="#DEA3BE" fill-rule="nonzero" d="M39.987 21.771c.188.218.401.294.059.458-.223-.19-.454-.228-.059-.458M39.227 25.771c-.122.506-.191.62-.454.201l.454-.2" transform="translate(-115 -1416) translate(115 1416)"/>
                <path fill="#3B2C67" fill-rule="nonzero" d="M37.773 29.876c.259-.09.548-.224.425.103-.276.396-.346.29-.425-.103" transform="translate(-115 -1416) translate(115 1416)"/>
                <path fill="#DEA3BE" fill-rule="nonzero" d="M39.227 30.12c-.309.327-.364-.17-.454-.349l.454.349" transform="translate(-115 -1416) translate(115 1416)"/>
                <path fill="#EFAFC7" fill-rule="nonzero" d="M36.197 18.771c.103.44-.06.465-.424.457l.424-.457" transform="translate(-115 -1416) translate(115 1416)"/>
                <path fill="#DEA3BE" fill-rule="nonzero" d="M37.855 28.229c-.255-.114.159-.325.227-.458.372.19-.068.29-.227.458" transform="translate(-115 -1416) translate(115 1416)"/>
                <path fill="#823F86" fill-rule="nonzero" d="M41.773 28.229l.285-.458c.287.341.22.417-.285.458" transform="translate(-115 -1416) translate(115 1416)"/>
                <path fill="#EFAFC7" fill-rule="nonzero" d="M35.996 18.229c-.494-.183-.051-.27.204-.458.087.228-.05.328-.204.458M35.17 24.229c-.792-.238-.198-.866.057-.058l-.058.058" transform="translate(-115 -1416) translate(115 1416)"/>
                <path fill="#DEA3BE" fill-rule="nonzero" d="M38.91 31.229c-.202-.26-.2-.33.13-.458.4.11.065.25-.13.458" transform="translate(-115 -1416) translate(115 1416)"/>
                <path fill="#823F86" fill-rule="nonzero" d="M37.956 25.229l-.183-.458c.57.072.57.072.183.458" transform="translate(-115 -1416) translate(115 1416)"/>
                <path fill="#DEA3BE" fill-rule="nonzero" d="M40.773 39.771c.187.058.444-.039.454.405-.21.205-.306-.24-.454-.405" transform="translate(-115 -1416) translate(115 1416)"/>
                <path fill="#823F86" fill-rule="nonzero" d="M40.773 25.016c.098.069.37-.205.454.034l-.454-.034" transform="translate(-115 -1416) translate(115 1416)"/>
                <path fill="#EFAFC7" fill-rule="nonzero" d="M41.227 33.95c-.16.02-.385.188-.454.038.15-.014.314-.022.454-.038" transform="translate(-115 -1416) translate(115 1416)"/>
                <path fill="#823F86" fill-rule="nonzero" d="M37.227 24.182c-.198-.018-.515.274-.444-.41l.444.41" transform="translate(-115 -1416) translate(115 1416)"/>
                <path fill="#EFAFC7" fill-rule="nonzero" d="M32.003 23.95c.131.018-.053.181-.053.048.007-.021.034-.032.053-.048" transform="translate(-115 -1416) translate(115 1416)"/>
                <path fill="#DEA3BE" fill-rule="nonzero" d="M39.95 23.771l.1.458-.1-.458" transform="translate(-115 -1416) translate(115 1416)"/>
                <path fill="#EFAFC7" fill-rule="nonzero" d="M41.05 35.006c-.068.024-.09.063-.1-.04l.1.04" transform="translate(-115 -1416) translate(115 1416)"/>
                <path fill="#DEA3BE" fill-rule="nonzero" d="M37.773 27.771c.192.116.606-.056.396.458-.131-.134-.27-.383-.396-.458" transform="translate(-115 -1416) translate(115 1416)"/>
                <path fill="#823F86" fill-rule="nonzero" d="M35.773 12.229c.02-.252-.043-.65.454-.352-.15.118-.302.235-.454.352" transform="translate(-115 -1416) translate(115 1416)"/>
                <path fill="#EFAFC7" fill-rule="nonzero" d="M35.042 24.045l-.084-.09c.055-.003.08.044.084.09M40.952 33.954l.096.09c-.071.01-.077-.047-.096-.09" transform="translate(-115 -1416) translate(115 1416)"/>
                <path fill="#3B2C67" fill-rule="nonzero" d="M34.292 36c.312.188 1.111.953.459 1.264-.192.144-.307.888-.682.708.218-1.102-.411-.589.223-1.972" transform="translate(-115 -1416) translate(115 1416)"/>
                <path fill="#EFAFC7" fill-rule="nonzero" d="M32.994 35.358c.114.964-1.57.189-.982 1.597-2.118.48-.479-3.063.982-1.597" transform="translate(-115 -1416) translate(115 1416)"/>
                <path fill="#3B2C67" fill-rule="nonzero" d="M32.39 35c-.379-.523-1.613.373-1.355-.34.427.184.241-.268.562-.248.283.139.668.235.658-.158.03-.086-.403-.053-.115-.177 1.386-.237-.145.09.86.731-.035.53-.381-.274-.61.192M30.044 43.532c-.191-1.178.261-2.298.914-.839.166.498-.225.592-.064 1.061-.415.797-.38-.635-.85-.222" transform="translate(-115 -1416) translate(115 1416)"/>
                <path fill="#0D0D0D" fill-rule="nonzero" d="M33.267 42.014c1.16-.08.636.189.475.886.089.761-.173.923-.712 1.1-.167-1.79.418-.867.237-1.986" transform="translate(-115 -1416) translate(115 1416)"/>
                <path fill="#823F86" fill-rule="nonzero" d="M32.983 38.599c-.016.746-.324.254-.66.087-.347.105-.387-.131-.25-.492.156-.48 1.063.035.91.405M34 38.059c.579-.068.314.517.877-.058.023-.011.127.058.123.075-.055.465-.713.474-.773.924-.237-.318-.097-.63-.227-.941M30.998 35.03c.023.404-.169 1.473-.615.69.018.003-.24-.03-.293-.026-.264-.267.138-.42.135-.694.228.51.515.025.773.03M33 43.522c-.367.869-.547.376-1-.087.457-.573.616-.616 1 .087M33.913 41.15c.168.428.147.779-.556.85-.732-.464-.233-1.354.556-.85M34 43c.038-.42-.186-1.154 1-.971-.352.287-.322.94-1 .971M33 40.001c-.207.322-.486.633-.566.999-.75-.366-.508-1.03.566-.999" transform="translate(-115 -1416) translate(115 1416)"/>
                <path fill="#3B2C67" fill-rule="nonzero" d="M31.694 43c-.188-.344-.857-.695-.657-.983.568-.136 1.428.565.657.983M31.826 37c-.106-.791-.091-.828.401-1-.004.421.049.881-.401 1M30.539 45c-.283-.355-.858-.73-.312-1 .562.36 1.247.48.312 1" transform="translate(-115 -1416) translate(115 1416)"/>
                <path fill="#0D0D0D" fill-rule="nonzero" d="M33.841 38.21c.56.639-.514.678-.814.79-.21-.393.886-1.446.814-.79" transform="translate(-115 -1416) translate(115 1416)"/>
                <path fill="#DEA3BE" fill-rule="nonzero" d="M33.999 41.229c-.138-.202-.355-.283-.127-.458.317.176.547.188.127.458M35.221 40.915c.075.454-.545.397-.435-.05.04-.23.246.034.435.05" transform="translate(-115 -1416) translate(115 1416)"/>
                <path fill="#823F86" fill-rule="nonzero" d="M32.227 39.84c-.127.17-.052.544-.437.319-.067-.191.058-.536.437-.318M30 43.18c.143-.513.542-.417.932-.37.33.474-.631.459-.932.37" transform="translate(-115 -1416) translate(115 1416)"/>
                <path fill="#DEA3BE" fill-rule="nonzero" d="M31.227 34.81c-.144.135-.333.298-.454.419.126-.123.092-.594.454-.42" transform="translate(-115 -1416) translate(115 1416)"/>
                <path fill="#EFAFC7" fill-rule="nonzero" d="M32.773 35.159c.194-.783.315-.179.454.07l-.454-.07" transform="translate(-115 -1416) translate(115 1416)"/>
                <path fill="#DEA3BE" fill-rule="nonzero" d="M31.227 35.771c-.143.136-.206.634-.454.393.12-.134.403-.27.454-.393M33.227 45.91c-.092.302-.282.46-.454.152.022-.33.224-.377.454-.151M33.227 45.062c-.16.25-.394.203-.454-.038.195-.31.337-.376.454.038" transform="translate(-115 -1416) translate(115 1416)"/>
                <path fill="#823F86" fill-rule="nonzero" d="M30.808 43.05c-.156-.084.248-.122.42-.087-.126.03-.282.057-.42.087M31.773 39.938c.48-.296.503-.197.413.29l-.413-.29M34.05 39.003c-.04.064-.065.062-.1-.006.04-.064.065-.062.1.006" transform="translate(-115 -1416) translate(115 1416)"/>
                <path fill="#3B2C67" fill-rule="nonzero" d="M34.01 38.229c.009-.133-.048-.399-.005-.458l.006.458M39.999 7c-.523.003-1.161-.412-.962-.847.563-.527.99.446.962.847" transform="translate(-115 -1416) translate(115 1416)"/>
                <path fill="#DEA3BE" fill-rule="nonzero" d="M40.082 7.598c-.423-1.235.931-.281.918.402-.332-.105-.847-.007-.918-.402M39 5.551c-.178.305-.912.734-1 .183.083-1.065.531-.83 1-.183" transform="translate(-115 -1416) translate(115 1416)"/>
                <path fill="#823F86" fill-rule="nonzero" d="M39.533 4c1.039.262-.032.53.323.79.518.586-1.879-.176-.323-.79" transform="translate(-115 -1416) translate(115 1416)"/>
                <path fill="#DEA3BE" fill-rule="nonzero" d="M41 8.229c-.214-.048-.921-.337-1-.409.44-.096.835-.093 1 .409M41.813 2.771c.163.014.301.097.414.346-.152.287-.588-.032-.414-.346" transform="translate(-115 -1416) translate(115 1416)"/>
                <path fill="#EFAFC7" fill-rule="nonzero" d="M41.11 3.229c-.332-.06-.46-.258-.196-.457.349-.017.395.214.196.457M41.113 3.95c.282.062-.023.077-.223.1-.296-.049.04-.073.223-.1" transform="translate(-115 -1416) translate(115 1416)"/>
                <path fill="#DEA3BE" fill-rule="nonzero" d="M41.993 3.229l-.22-.458c.276.176.738.286.22.458M33.02 32.019c.963-.129.03.441.844.509.613.708-1.06.682-.845-.51" transform="translate(-115 -1416) translate(115 1416)"/>
                <path fill="#0D0D0D" fill-rule="nonzero" d="M30.035 33.25c1-.755 1.347.408.44.75-.601-.19-.475-.412-.44-.75" transform="translate(-115 -1416) translate(115 1416)"/>
                <path fill="#3B2C67" fill-rule="nonzero" d="M32.681 32.001c.007.354.073.685.319.995-.85.079-1.587-1.037-.319-.995" transform="translate(-115 -1416) translate(115 1416)"/>
                <path fill="#DEA3BE" fill-rule="nonzero" d="M30.92 35.715c-.152-.004-.313.183-.47.284-1.415.044 1.008-2.063.47-.284" transform="translate(-115 -1416) translate(115 1416)"/>
                <path fill="#3B2C67" fill-rule="nonzero" d="M30.966 34c-.105-.278-.4-1.05.044-.997.091.341.464.709-.044.997M31 32.1c.256-.248.555-.493.95-.184.241.446-.448.325-.95.185" transform="translate(-115 -1416) translate(115 1416)"/>
                <path fill="#823F86" fill-rule="nonzero" d="M31.227 35.186l-.454.043c.141-.457.287-.728.454-.043" transform="translate(-115 -1416) translate(115 1416)"/>
                <path fill="#DEA3BE" fill-rule="nonzero" d="M32.997 32.952v-.002l.007.1-.007-.098M37.773 46.127c.363-.66.76-.27.099.102l-.1-.102M33.915 16.477c.233.209-.184 1.098.445.65.003-.002.199.096.188.13-.184.401.494.366.45.743-.836-.058-1.61-.464-1.64-1.103-.17-.16-.592-.292-.189-.53.233-.138.328-.59.85-.232-.275.105-.488.226-.104.342" transform="translate(-115 -1416) translate(115 1416)"/>
                <path fill="#0D0D0D" fill-rule="nonzero" d="M23.988 42.953c-.27-.085-1.046.26-.984-.188.26-1.194 1.107-.881.984.188" transform="translate(-115 -1416) translate(115 1416)"/>
                <path fill="#EFAFC7" fill-rule="nonzero" d="M25.227 42.771c-.113.695-.215.502-.454.061l.454-.06M37.053 30.771c.3.222.172.373-.084.458-.309-.125-.233-.307.084-.458" transform="translate(-115 -1416) translate(115 1416)"/>
                <path fill="#3B2C67" fill-rule="nonzero" d="M35.952 12.019c.231.8-.405.97-1.15.976-1.119.09-.975-1.062-.136-.868.527.427.898-.245 1.286-.108" transform="translate(-115 -1416) translate(115 1416)"/>
                <path fill="#0D0D0D" fill-rule="nonzero" d="M35.803 13c-.281-.038-.459-1.152-.506-1.616-.628-.337-.112-.556.199-.206.665.348.565.93.307 1.822" transform="translate(-115 -1416) translate(115 1416)"/>
                <path fill="#3B2C67" fill-rule="nonzero" d="M34.964 10.771c.477.274.24.316-.191.458.086-.095.121-.32.191-.458" transform="translate(-115 -1416) translate(115 1416)"/>
                <path fill="#EFAFC7" fill-rule="nonzero" d="M34.524 19c.638.258.573 1.468.167 2-.08-.944-1.4-1.135-.167-2" transform="translate(-115 -1416) translate(115 1416)"/>
                <path fill="#0D0D0D" fill-rule="nonzero" d="M32.773 20.026c.075-.289.223-.338.454-.118-.06.337-.186.458-.454.118" transform="translate(-115 -1416) translate(115 1416)"/>
                <path fill="#EFAFC7" fill-rule="nonzero" d="M33.97 19.771c.032.158.099.299.029.458l-.029-.458" transform="translate(-115 -1416) translate(115 1416)"/>
                <path fill="#DEA3BE" fill-rule="nonzero" d="M35.05 35.993l-.1.057.056-.1.044.043M34.225 25c.135.906.81.518.323 1.304.815.394.415 1.121-.31 1.178-.65.922 1.15-.289.479.873-.488-.101-.695.098-.605.612-.244.13-.717-.178-.96-.054-.303-.894-.167-.825.527-1.12.555-.826-.714-2.688.546-2.793M34.606 29c.305.241.57.399.245.656.087.205-.02.236-.255.312-.324.105-.338-.077-.454-.181-.467-.413.356-.535.464-.787M35.058 29.95c.375.137.058.096-.285.089l.285-.089" transform="translate(-115 -1416) translate(115 1416)"/>
                <path fill="#3B2C67" fill-rule="nonzero" d="M26.702 46c-.66-.186-1.136-1.063-.091-.996.115.454.758.516.09.996" transform="translate(-115 -1416) translate(115 1416)"/>
                <path fill="#823F86" fill-rule="nonzero" d="M26 44.314c-.037.321-.482.648-.694.541.188.39.329.826-.029 1.145-.16-.565-.369.023-.559-.03-.198-.136-.767.085-.715-.249.245-.291.748-.68.244-.945.252-.316.618-.147.51-.776.567.785.748.01 1.243.314" transform="translate(-115 -1416) translate(115 1416)"/>
                <path fill="#3B2C67" fill-rule="nonzero" d="M24.794 45.149c.691.505-.561 1.468-.794.289.294.018.388-.753.794-.29" transform="translate(-115 -1416) translate(115 1416)"/>
                <path fill="#0D0D0D" fill-rule="nonzero" d="M24.227 44.771c.001.258.016.527-.39.442-.224-.288.19-.307.39-.442M36.133 45.771c.15.158.105.302-.024.458-.602-.048-.27-.3.024-.458" transform="translate(-115 -1416) translate(115 1416)"/>
                <path fill="#0D0D0D" fill-rule="nonzero" d="M36.04 46.229l-.267-.458c.35.087.67.037.266.458M35.615 13.074c.732-.5.272 1.745-.163.592-.264.073-.756-.522-.194-.394.272.412.293.042.357-.198" transform="translate(-115 -1416) translate(115 1416)"/>
                <path fill="#823F86" fill-rule="nonzero" d="M34.227 13.771l-.454.458.454-.458" transform="translate(-115 -1416) translate(115 1416)"/>
                <path fill="#3B2C67" fill-rule="nonzero" d="M32.907 17.999c-.994.03-.822-.453-.907-.823.905-.585 1.161.444.907.823" transform="translate(-115 -1416) translate(115 1416)"/>
                <path fill="#EFAFC7" fill-rule="nonzero" d="M33.008 18.96c-.08-.346.453-.689.21-.96 1.003.106 1.151 1.221-.21.96M25 43.95c.089.016.04.056.003.1-.07-.037-.07-.06-.003-.1" transform="translate(-115 -1416) translate(115 1416)"/>
                <path fill="#DEA3BE" fill-rule="nonzero" d="M34.002 31.95c.132.019-.051.18-.052.049.006-.021.034-.033.052-.049" transform="translate(-115 -1416) translate(115 1416)"/>
                <path fill="#3B2C67" fill-rule="nonzero" d="M21 61.605c-.504.88-1.341.116-.852-.605l.852.605M22.802 78c.302.192.281 1-.222 1-.891-.02-.707-1.012.222-1" transform="translate(-115 -1416) translate(115 1416)"/>
                <path fill="#823F86" fill-rule="nonzero" d="M43.56 15.995c-.171-.227-.331-.461-.518-.68-.372-1.024 1.874.788.519.68M42.527 15.03c.992.874.133 1.394.026.518-.022-.233-.065-.363-.242-.058-.556.061-.293-.64.216-.46" transform="translate(-115 -1416) translate(115 1416)"/>
                <path fill="#3B2C67" fill-rule="nonzero" d="M35.852 15.223c-.186-.418-.039-.446.37-.452.02.267-.007.496-.37.452" transform="translate(-115 -1416) translate(115 1416)"/>
                <path fill="#823F86" fill-rule="nonzero" d="M38.227 18.125c-.158.199-.3.077-.454-.075.168-.196.383-.55.454.075" transform="translate(-115 -1416) translate(115 1416)"/>
                <path fill="#823F86" fill-rule="nonzero" d="M37.773 17.771c.634.043.52.152.171.458l-.171-.458" transform="translate(-115 -1416) translate(115 1416)"/>
                <path fill="#DEA3BE" fill-rule="nonzero" d="M38.227 21.229l-.454-.458.454.458" transform="translate(-115 -1416) translate(115 1416)"/>
                <path fill="#3B2C67" fill-rule="nonzero" d="M35.097 25.05l-.324-.1c.204.033.684.01.324.1" transform="translate(-115 -1416) translate(115 1416)"/>
                <path fill="#DEA3BE" fill-rule="nonzero" d="M40.733 24.938l-.466.062c.41-.37-.526-.6-.194-1l.483.241c.003.406.867-.372.177.697M40.773 24l.454-.05c-.142.08-.187.15-.454.05" transform="translate(-115 -1416) translate(115 1416)"/>
                <path fill="#3B2C67" fill-rule="nonzero" d="M34.988 21l-.215-1c.575.309.554.58.215 1" transform="translate(-115 -1416) translate(115 1416)"/>
                <path fill="#EFAFC7" fill-rule="nonzero" d="M35 10.918c.448-.27 1.472-.168.75.31l-.75-.31" transform="translate(-115 -1416) translate(115 1416)"/>
                <path fill="#823F86" fill-rule="nonzero" d="M34.211 28.145l-.417.084c-.148-.542.546-.643.417-.084" transform="translate(-115 -1416) translate(115 1416)"/>
                <path fill="#823F86" fill-rule="nonzero" d="M33.773 27.635l.431-.635c.141.618-.41 1.509-.431.635M34.622 26.229c-.202-.102-.41-.2-.602-.308-.238-.47 1.795.32.602.308" transform="translate(-115 -1416) translate(115 1416)"/>
                <path fill="#3B2C67" fill-rule="nonzero" d="M34.799 26.855l.402-.084c.172.785-.575.386-.402.084" transform="translate(-115 -1416) translate(115 1416)"/>
                <path fill="#823F86" fill-rule="nonzero" d="M35.227 13.771c-.08.287-.108.729-.454.236l.454-.236" transform="translate(-115 -1416) translate(115 1416)"/>
                <path fill="#EFAFC7" fill-rule="nonzero" d="M34.226 27.794c.023.458-.247.626-.453.147.037-.119.293-.215.453-.147M25.033 45.05l-.083-.1c.033.035.141.058.083.1" transform="translate(-115 -1416) translate(115 1416)"/>
                <path fill="#823F86" fill-rule="nonzero" d="M40.964 16.45c-.851 1.507-1.405-.574-.498-.444.362.033.636.088.498.443" transform="translate(-115 -1416) translate(115 1416)"/>
            </g>
        </g>
    </g>
</svg>
