<?xml version="1.0" encoding="UTF-8"?>
<svg width="18px" height="18px" viewBox="0 0 18 18" version="1.1" xmlns="http://www.w3.org/2000/svg" xmlns:xlink="http://www.w3.org/1999/xlink">
    <!-- Generator: Sketch 63.1 (92452) - https://sketch.com -->
    <title>iconfinder_Comments_1737374</title>
    <desc>Created with Sketch.</desc>
    <g id="Page-1" stroke="none" stroke-width="1" fill="none" fill-rule="evenodd">
        <g id="Initiative-single" transform="translate(-1093.000000, -1207.000000)" fill-rule="nonzero">
            <g id="iconfinder_Comments_1737374" transform="translate(1093.000000, 1207.000000)">
                <path d="M5.59086313,4.5 L12.4088731,4.5 C12.5972402,4.5 12.75,4.2988208 12.75,4.05031896 C12.75,3.80181713 12.5972402,3.6 12.4088731,3.6 L5.59086313,3.6 C5.40249603,3.6 5.25,3.80181713 5.25,4.05031896 C5.25,4.2988208 5.40249603,4.5 5.59086313,4.5 Z" id="Path" fill-opacity="0.5" fill="#000000"></path>
                <path d="M13.1384767,6.3 L6.36175642,6.3 C6.16201876,6.3 6,6.5011792 6,6.74968104 C6,6.99818287 6.16201876,7.2 6.36175642,7.2 L13.1384767,7.2 C13.3382144,7.2 13.5,6.99818287 13.5,6.74968104 C13.5,6.5011792 13.3382144,6.3 13.1384767,6.3 Z" id="Path" fill-opacity="0.5" fill="#000000"></path>
                <path d="M11.6550416,9 L5.59495838,9 C5.40432817,9 5.25,9.2013219 5.25,9.45 C5.25,9.69862007 5.40432817,9.9 5.59495838,9.9 L11.6550416,9.9 C11.8454049,9.9 12,9.69862007 12,9.45 C12,9.2013219 11.8454049,9 11.6550416,9 Z" id="Path" fill-opacity="0.5" fill="#000000"></path>
                <path d="M15.4913887,0 L2.50861135,0 C1.12563115,0 0,1.19648581 0,2.66788442 L0,10.8786768 C0,12.3494921 1.12563115,13.5459779 2.50861135,13.5459779 L10.1647108,13.5459779 L15.6894381,18 L15.6894381,13.5382354 C16.9803795,13.4301582 18,12.2785896 18,10.8786768 L18,2.66788442 C18,1.19648581 16.8743688,0 15.4913887,0 Z M16.9268439,10.8786768 C16.9268439,11.668945 16.2825721,12.3118401 15.4913425,12.3118401 L14.6162359,12.3118401 L14.6162359,15.6274984 L10.5034007,12.3118401 L2.50856524,12.3118401 C1.71710511,12.3118401 1.07306389,11.668945 1.07306389,10.8786768 L1.07306389,2.66788442 C1.07306389,1.87703286 1.71710511,1.23419086 2.50856524,1.23419086 L15.4913425,1.23419086 C16.2825721,1.23419086 16.9268439,1.87708589 16.9268439,2.66788442 L16.9268439,10.8786768 Z" id="Shape" fill="#61676C"></path>
            </g>
        </g>
    </g>
</svg>