<?xml version="1.0" encoding="UTF-8"?>
<svg width="12px" height="12px" viewBox="0 0 12 12" version="1.1" xmlns="http://www.w3.org/2000/svg" xmlns:xlink="http://www.w3.org/1999/xlink">
    <!-- Generator: Sketch 63.1 (92452) - https://sketch.com -->
    <title>completed</title>
    <desc>Created with Sketch.</desc>
    <g id="Page-1" stroke="none" stroke-width="1" fill="none" fill-rule="evenodd">
        <g id="My-initiatives-/-Saved" transform="translate(-1213.000000, -188.000000)">
            <g id="Group-6" transform="translate(1048.000000, 182.000000)">
                <g id="Group-5">
                    <g id="Group-3" transform="translate(110.000000, 1.000000)">
                        <g id="completed" transform="translate(55.000000, 5.000000)">
                            <g id="Group">
                                <circle id="Oval" fill-opacity="0.5" fill="#000000" cx="6" cy="6" r="6"></circle>
                                <path d="M5.10872602,9 C5.00478939,8.99963004 4.90565347,8.95154566 4.83497673,8.86722206 L3.08373131,6.79256671 C2.9595728,6.62314688 2.97515988,6.37628555 3.119403,6.2276143 C3.26364612,6.07894305 3.48729374,6.0792254 3.63122988,6.22826046 L5.10872602,7.97512026 L8.33371758,4.15360511 C8.42197102,4.03317937 8.56353998,3.97724181 8.70077045,4.00857303 C8.83800092,4.03990426 8.94799671,4.15327682 8.985962,4.3025197 C9.02392729,4.45176257 8.98352777,4.61197537 8.88121615,4.71791137 L5.3824753,8.86722206 C5.31179857,8.95154566 5.21266264,8.99963004 5.10872602,9 Z" id="Path" fill="#FFFFFF" fill-rule="nonzero"></path>
                            </g>
                        </g>
                    </g>
                </g>
            </g>
        </g>
    </g>
</svg>