<svg xmlns="http://www.w3.org/2000/svg" width="14" height="14" viewBox="0 0 14 14">
    <g fill="none" fill-rule="evenodd">
        <g fill="#FFF" fill-rule="nonzero">
            <g>
                <g>
                    <path d="M7 14c-3.866 0-7-3.134-7-7s3.134-7 7-7 7 3.134 7 7-3.134 7-7 7zM7 .667C3.502.667.667 3.502.667 7S3.502 13.333 7 13.333 13.333 10.498 13.333 7 10.498.667 7 .667zm5.333 6.666H12c-.184 0-.333-.149-.333-.333 0-.184.149-.333.333-.333h.333c.185 0 .334.149.334.333 0 .184-.15.333-.334.333zm-2.007 2.735c-.01.063-.038.122-.087.171-.102.103-.254.119-.376.058l.02.02.002.002-.155-.065C8 9.534 6.993 8.969 6.441 8.608c-.437-.286-.591-.444-.598-.451-.015-.014-.829-.804-2.161-4.042l.022.023-.007-.021c-.03-.07-.034-.148-.012-.22.014-.05.037-.097.076-.136.1-.1.246-.117.367-.06.003.001.007.001.01.003l-.008-.008-.015-.014c3.238 1.332 4.028 2.146 4.042 2.161.015.015.83.805 2.162 4.042l-.015-.015-.008-.007c.008.016.011.032.016.049.017.05.023.104.014.156zM7.682 6.311c-.007-.007-.672-.642-3.062-1.691 1.048 2.39 1.685 3.056 1.698 3.07.007.006.672.642 3.062 1.69-1.048-2.39-1.685-3.055-1.698-3.069zM7 6.667c.184 0 .333.149.333.333 0 .184-.149.333-.333.333-.184 0-.333-.149-.333-.333 0-.184.149-.333.333-.333zm0-4.334c-.184 0-.333-.149-.333-.333v-.333c0-.184.149-.334.333-.334.184 0 .333.15.333.334V2c0 .184-.149.333-.333.333zm0 9.334c.184 0 .333.149.333.333v.333c0 .185-.149.334-.333.334-.184 0-.333-.15-.333-.334V12c0-.184.149-.333.333-.333zM2 7.333h-.333c-.185 0-.334-.149-.334-.333 0-.184.15-.333.334-.333H2c.184 0 .333.149.333.333 0 .184-.149.333-.333.333z" transform="translate(-280 -876) translate(0 858) translate(280 18)"/>
                </g>
            </g>
        </g>
    </g>
</svg>
