<svg xmlns="http://www.w3.org/2000/svg" width="12" height="20" viewBox="0 0 12 20">
    <g fill="none" fill-rule="evenodd">
        <g fill="#FFF" fill-rule="nonzero">
            <g>
                <g>
                    <path d="M10.4 6.667c-.332 0-.64.106-.896.286-.21-.622-.758-1.073-1.418-1.11L8.77 2.28c.02-.103.03-.207.03-.313v-.38C8.8.713 8.117.002 7.277.002c-.7 0-1.308.494-1.478 1.201l-1.356 5.65-1.039-5.414C3.244.606 2.535 0 1.718 0 .771 0 0 .803 0 1.79v.157c0 .117.011.236.034.35l1.532 7.981-.317.331C.443 11.45 0 12.563 0 13.75 0 17.197 2.691 20 6 20s6-2.803 6-6.247v-3.75-1.67c0-.919-.718-1.666-1.6-1.666zM8.8 7.5V10c0 .46-.374.825-.803.825-.01-.58-.323-1.096-.797-1.382V7.5c0-.46.36-.833.8-.833.44 0 .8.373.8.833zM6.576 1.407c.08-.336.369-.571.702-.571.399 0 .723.337.723.753v.381c0 .05-.005.1-.015.148l-.754 3.929C6.738 6.33 6.4 6.872 6.4 7.5v1.586l-.155-.061c-.464-.18-.95-.264-1.435-.258l1.766-7.36zm-5.758.729c-.012-.062-.017-.124-.017-.187v-.157c0-.527.412-.956.918-.956.436 0 .815.323.901.769l1.388 7.23c.002.01.007.017.01.026-.478.107-.938.304-1.354.592l-.389.27L.818 2.136zM11.2 13.753c0 2.986-2.333 5.416-5.2 5.416S.8 16.74.8 13.752c0-.964.36-1.87 1.014-2.55l.453-.472.84-.583c.841-.586 1.908-.714 2.856-.343l.68.266h.003l.047.02c.303.118.507.424.507.762 0 .449-.35.814-.782.814-.892 0-1.732.362-2.363 1.02l-.738.769c-.156.162-.156.427 0 .59.078.08.18.122.283.122.102 0 .205-.041.283-.122l.739-.77c.48-.5 1.118-.775 1.797-.775.595 0 1.107-.348 1.377-.854.068.009.136.02.204.02.48 0 .906-.225 1.2-.575.294.349.72.576 1.2.576.293 0 .564-.089.8-.232v2.317zm0-3.753c0 .46-.36.833-.8.833-.44 0-.8-.374-.8-.833V8.333c0-.459.36-.833.8-.833.44 0 .8.374.8.833V10z" transform="translate(-100 -873) translate(0 858) translate(100 15)"/>
                </g>
            </g>
        </g>
    </g>
</svg>
