<?xml version="1.0" encoding="UTF-8"?>
<svg width="12px" height="18px" viewBox="0 0 12 18" version="1.1" xmlns="http://www.w3.org/2000/svg" xmlns:xlink="http://www.w3.org/1999/xlink">
    <!-- Generator: Sketch 63.1 (92452) - https://sketch.com -->
    <title>victory copy</title>
    <desc>Created with Sketch.</desc>
    <g id="Page-1" stroke="none" stroke-width="1" fill="none" fill-rule="evenodd" fill-opacity="0.65">
        <g id="Setting" transform="translate(-468.000000, -35.000000)" fill="#101820" fill-rule="nonzero">
            <g id="Group-7">
                <g id="victory-copy" transform="translate(468.000000, 35.000000)">
                    <path d="M10.3999875,6.00001172 C10.068,6.00001172 9.759975,6.09525 9.504,6.25802344 C9.2944125,5.69777344 8.7456,5.29203516 8.0863875,5.25828516 L8.7703875,2.05277344 C8.7895875,1.96052344 8.799975,1.86676172 8.799975,1.77152344 L8.799975,1.42952344 C8.799975,0.642023437 8.1167625,0.00151171875 7.2767625,0.00151171875 C6.57675,0.00151171875 5.9687625,0.446273437 5.79915,1.08302344 L4.44315,6.16728516 L3.4039875,1.29526172 C3.2440125,0.545238281 2.5351875,0 1.7184,0 C0.7711875,0 0,0.722988281 0,1.611 L0,1.75201172 C0,1.85776172 0.0112125,1.96425 0.0336,2.06775 L1.5655875,9.25048828 L1.2487875,9.54822656 C0.4432125,10.3042617 0,11.3069883 0,12.375 C0,15.4770117 2.6911875,18 6,18 C9.3088125,18 12,15.4770117 12,12.3779883 L12,9.00298828 L12,9.00225 C12,9.00151172 12,9.00073828 12,9 L12,7.49998828 C12,6.67276172 11.2824,6.00001172 10.3999875,6.00001172 Z M8.8000125,6.75 L8.8000125,9 C8.8000125,9.41326172 8.4256125,9.7425 7.9968,9.7425 C7.9872,9.2205 7.6735875,8.75626172 7.2,8.49825 L7.2,6.75 C7.2,6.33673828 7.5592125,6.00001172 7.9999875,6.00001172 C8.4408,6.00001172 8.8000125,6.336 8.8000125,6.75 Z M6.576,1.26601172 C6.6568125,0.963773437 6.9448125,0.752273437 7.2775875,0.752273437 C7.676775,0.752273437 8.000775,1.05602344 8.000775,1.43026172 L8.000775,1.773 C8.000775,1.81726172 7.995975,1.86226172 7.986375,1.90575 L7.2319875,5.44201172 C6.738375,5.69777344 6.399975,6.18451172 6.399975,6.75 L6.399975,8.17723828 L6.2447625,8.1225 C5.780775,7.95976172 5.2943625,7.88473828 4.8095625,7.89075 L6.576,1.26601172 Z M0.8184,1.92223828 C0.8064,1.86672656 0.8008125,1.81047656 0.8008125,1.75422656 L0.8008125,1.61321484 C0.8008125,1.13846484 1.212825,0.752203125 1.719225,0.752203125 C2.1552375,0.752203125 2.5344375,1.04319141 2.6200125,1.44446484 L4.008,7.95072656 C4.0096125,7.95972656 4.0152,7.96647656 4.0176,7.97473828 C3.54,8.07148828 3.0799875,8.2485 2.664,8.50798828 L2.2752,8.75098828 L0.8184,1.92223828 Z M11.2000125,12.37725 C11.2000125,15.0652617 8.8672125,17.2522617 6,17.2522617 C3.1327875,17.2522617 0.7999875,15.0652617 0.7999875,12.37725 C0.7999875,11.5094883 1.160775,10.69425 1.8144,10.0815117 L2.2672125,9.657 L3.1072125,9.13201172 C3.948,8.60477344 5.0152125,8.49002344 5.9632125,8.82376172 L6.6432,9.063 C6.6439875,9.06373828 6.6456,9.06373828 6.6463875,9.06373828 L6.692775,9.08022656 C6.9959625,9.18748828 7.1999625,9.46272656 7.1999625,9.76647656 C7.1999625,10.1707383 6.8495625,10.4992383 6.41835,10.4992383 C5.52555,10.4992383 4.6863375,10.8254883 4.0551375,11.4172383 L3.316725,12.1095 C3.160725,12.25575 3.160725,12.4935117 3.316725,12.6397617 C3.3951375,12.7132734 3.4975125,12.7500117 3.599925,12.7500117 C3.7023375,12.7500117 3.8047125,12.7132734 3.883125,12.6405 L4.6215375,11.9482383 C5.1015375,11.4982383 5.7399375,11.25 6.4191375,11.25 C7.01355,11.25 7.526325,10.93725 7.79595,10.4812383 C7.8639375,10.4895 7.9319625,10.4999766 7.99995,10.4999766 C8.47995,10.4999766 8.9063625,10.2967383 9.19995,9.98173828 C9.4935375,10.296 9.91995,10.4999766 10.39995,10.4999766 C10.69275,10.4999766 10.96395,10.4204883 11.2000125,10.2914648 L11.2000125,12.37725 L11.2000125,12.37725 Z M11.2000125,9 C11.2000125,9.41326172 10.8408,9.74998828 10.400025,9.74998828 C9.9592125,9.74998828 9.6,9.41326172 9.6,9 L9.6,7.49998828 C9.6,7.08672656 9.9592125,6.75 10.3999875,6.75 C10.8408,6.75 11.199975,7.08676172 11.199975,7.49998828 L11.199975,9 L11.2000125,9 Z" id="Shape"></path>
                </g>
            </g>
        </g>
    </g>
</svg>