<svg xmlns="http://www.w3.org/2000/svg" width="19" height="12" viewBox="0 0 19 12">
    <g fill="none" fill-rule="evenodd">
        <g fill="#B620E0" fill-rule="nonzero">
            <g>
                <g>
                    <g>
                        <g>
                            <g>
                                <path d="M16.8 4.833c.52-.52.84-1.229.84-2.02C17.64 1.27 16.42 0 14.94 0c-1.48 0-2.7 1.27-2.7 2.813 0 .791.32 1.52.82 2.02-.4.209-.76.5-1.06.834.1-.292.16-.625.16-.959 0-1.541-1.22-2.812-2.7-2.812-1.48 0-2.7 1.27-2.7 2.812 0 .334.06.667.16.98-.3-.334-.66-.625-1.06-.834.52-.52.84-1.229.84-2.02C6.7 1.291 5.48.02 4 .02c-1.48 0-2.68 1.25-2.68 2.792 0 .791.32 1.52.84 2.02C.88 5.542 0 6.937 0 8.542v.937c0 .354.26.625.6.625.34 0 .6-.27.6-.625v-.937C1.2 7 2.36 5.729 3.82 5.604c.06 0 .14.021.2.021.08 0 .14 0 .22-.02 1.08.082 2.02.812 2.4 1.874-.72.75-1.18 1.813-1.18 2.958v.938c0 .354.26.625.6.625.34 0 .6-.27.6-.625v-.938c0-1.541 1.16-2.812 2.62-2.916h.4c.58.042 1.12.27 1.56.625.02.02.04.02.06.041.62.542 1.02 1.355 1.02 2.25v.938c0 .354.26.625.6.625.34 0 .6-.27.6-.625v-.938c0-1.166-.46-2.208-1.18-2.958.4-1.042 1.34-1.77 2.42-1.854.08 0 .14.02.22.02.06 0 .14 0 .2-.02C16.64 5.729 17.8 7 17.8 8.563V9.5c0 .354.26.625.6.625.34 0 .6-.27.6-.625v-.938c-.04-1.624-.92-3.02-2.2-3.729zM2.52 2.813c0-.855.68-1.563 1.5-1.563s1.5.708 1.5 1.563c0 .791-.58 1.458-1.32 1.541h-.36c-.74-.083-1.32-.75-1.32-1.542zm6.96.333c.82 0 1.5.708 1.5 1.562 0 .792-.58 1.459-1.32 1.542H9.3c-.74-.083-1.32-.75-1.32-1.542 0-.854.68-1.562 1.5-1.562zm3.96-.333c0-.855.68-1.563 1.5-1.563s1.5.708 1.5 1.563c0 .791-.58 1.458-1.32 1.541h-.36c-.74-.083-1.32-.75-1.32-1.542z" transform="translate(-838 -382) translate(112 244) translate(624) translate(12 131) translate(62) translate(28 7)"/>
                            </g>
                        </g>
                    </g>
                </g>
            </g>
        </g>
    </g>
</svg>
