<svg xmlns="http://www.w3.org/2000/svg" width="18" height="13" viewBox="0 0 18 13">
    <g fill="none" fill-rule="evenodd">
        <g fill="#00518D" fill-rule="nonzero">
            <g>
                <g>
                    <g>
                        <g>
                            <g>
                                <path d="M16.435 13H1.565C.701 13 0 12.315 0 11.47V1.53C0 .684.7 0 1.565 0h14.87C17.299 0 18 .685 18 1.53v9.94c0 .845-.7 1.53-1.565 1.53zm.782-11.47c0-.423-.35-.765-.782-.765H1.565c-.432 0-.782.342-.782.764v9.942c0 .422.35.764.782.764h14.87c.432 0 .782-.342.782-.764V1.529zm-1.434 9.067l-2.479-2.422-1.416 1.384 1.305 1.275c.149.145.149.382 0 .528-.15.145-.391.145-.54 0L7.042 5.88l-4.826 4.716c-.149.146-.39.146-.54 0-.15-.146-.15-.382 0-.528l5.05-4.934c.012-.019.02-.039.037-.055.077-.076.179-.11.28-.108.1-.002.202.032.28.108.016.016.024.036.036.055l3.988 3.896 1.64-1.602c.012-.018.02-.039.037-.055.077-.075.178-.11.28-.108.1-.002.202.033.28.108.016.016.023.037.036.055l2.702 2.64c.15.146.15.382 0 .528-.15.146-.391.146-.54 0zm-4.826-6.009c-.865 0-1.566-.685-1.566-1.53 0-.844.701-1.529 1.566-1.529.864 0 1.565.685 1.565 1.53 0 .844-.701 1.53-1.565 1.53zm0-2.294c-.432 0-.783.343-.783.765s.35.765.783.765c.432 0 .782-.343.782-.765s-.35-.765-.782-.765z" transform="translate(-1290 -381) translate(112 244) translate(936) translate(12 131) translate(222 1) translate(8 5)"/>
                            </g>
                        </g>
                    </g>
                </g>
            </g>
        </g>
    </g>
</svg>
