<svg xmlns="http://www.w3.org/2000/svg" width="78" height="74" viewBox="0 0 78 74">
    <g fill="none" fill-rule="evenodd">
        <g fill="#2A4069" fill-rule="nonzero">
            <g>
                <g>
                    <g>
                        <path d="M77.967 38.9C76.74 74.957 8.287 90.216.647 50.572-4.388 27.2 20.796-12.146 46.91 3.63c-13.274-6.558-22.548.202-31.971 9.551C-6.647 35.841.122 78.78 38.709 70.603c19.423-1.724 42.844-22.038 32.511-42.408-8.01-16.872-30.39-6.993-41.566 1.307-9.176 6.171-11.72 27.514 3.833 25.247 4.088-.776 8.185-2.32 11.834-4.315 3.952-2.16 4.845-7.794 2.552-11.52-1.353-2.198-5.806-1.633-8.516.945-.418.397-1.396.22-2.115.307 4.578-10.718 20.248-1.265 13.384 8.514-6.217 12.613-33.635 10.762-31.416-5.72.727-15.757 16.846-21.824 29.884-25.492 13.116-4.098 29.743 6.586 28.873 21.431" transform="translate(-92 -636) translate(81 615) rotate(30 4.947 74.124)"/>
                    </g>
                </g>
            </g>
        </g>
    </g>
</svg>
