<svg xmlns="http://www.w3.org/2000/svg" width="74" height="60" viewBox="0 0 74 60">
    <g fill="none" fill-rule="evenodd">
        <g fill="#2A4069" fill-rule="nonzero">
            <g>
                <g>
                    <path d="M24.013.019c7.245-.473 14.755 8.098 16.527 14.397C45.52 4.21 56.557-3.55 67.24 3.968c7.776 6.233 1.011 17.313-5.663 21.41 10.378.93 18.679 16.118 6.019 20.556-5.972 1.51-15.9 2.185-19.142-4.017.352.094.86.07 1.032.3 4.646 5.515 12.544 3.25 18.56 2.048 8.426-3.374 3.957-15.807-4.153-17.442-2.27-.677-4.945.492-7.111-.775 3.454-2.141 7.322-4.324 9.587-7.749C76.784-3.354 47.353-3.19 41.362 16.881c-.38.67-1.573.191-1.827-.241-.892-2.22-1.413-4.63-2.561-6.698C33.099 1.255 18.85-4.66 16.2 8.365c-.501 6.214 2.103 13.561 7.85 16.439.156.086.176.419.26.638-10.194-4.956-34.35 15.642-16.312 20.51 7.068.7 12.218-4.827 18.672-6.525.043-.014.52.745.419.909-1.306 2.104-2.826 4.086-4.004 6.256-6.199 13.579 15.036 20.48 23.2-3.702 3.384-1.92-4.265 14.348-9.243 15.65-7.83 4.537-21.837-2.04-15.593-12.287.899-1.657 2.192-3.09 3.148-4.717-6.878 4.004-18.25 9.278-23.98.78-4.008-8.674 12.542-18.503 20.072-18.304C15.14 16.558 10.297.896 24.013.019" transform="translate(-100 -1518) translate(100 1489) translate(0 29)"/>
                </g>
            </g>
        </g>
    </g>
</svg>
