<?xml version="1.0" encoding="UTF-8"?>
<svg width="12px" height="12px" viewBox="0 0 12 12" version="1.1" xmlns="http://www.w3.org/2000/svg" xmlns:xlink="http://www.w3.org/1999/xlink">
    <!-- Generator: Sketch 63.1 (92452) - https://sketch.com -->
    <title>iconfinder_plus_1646001</title>
    <desc>Created with Sketch.</desc>
    <g id="Page-1" stroke="none" stroke-width="1" fill="none" fill-rule="evenodd">
        <g id="Setting" transform="translate(-1294.000000, -501.000000)" fill-rule="nonzero">
            <g id="Group-3" transform="translate(1036.000000, 232.000000)">
                <g id="Group-2">
                    <g id="iconfinder_plus_1646001" transform="translate(258.000000, 269.000000)">
                        <g id="Group-5">
                            <circle id="Oval" fill="#6236FF" cx="6" cy="6" r="6"></circle>
                            <path d="M9.04727273,5.71393939 L6.28606061,5.71393939 L6.28606061,2.95272727 C6.28606061,2.79515152 6.15757576,2.66666667 6,2.66666667 C5.84242424,2.66666667 5.71393939,2.79515152 5.71393939,2.95272727 L5.71393939,5.71393939 L2.95272727,5.71393939 C2.79515152,5.71393939 2.66666667,5.84242424 2.66666667,6 C2.66666667,6.15757576 2.79515152,6.28606061 2.95272727,6.28606061 L5.71393939,6.28606061 L5.71393939,9.04727273 C5.71393939,9.20484848 5.84242424,9.33333333 6,9.33333333 C6.15757576,9.33333333 6.28606061,9.20484848 6.28606061,9.04727273 L6.28606061,6.28606061 L9.04727273,6.28606061 C9.20484848,6.28606061 9.33333333,6.15757576 9.33333333,6 C9.33333333,5.84242424 9.20484848,5.71393939 9.04727273,5.71393939 Z" id="Path" fill="#FFFFFF"></path>
                        </g>
                    </g>
                </g>
            </g>
        </g>
    </g>
</svg>