<?xml version="1.0" encoding="UTF-8"?>
<svg width="25px" height="16px" viewBox="0 0 25 16" version="1.1" xmlns="http://www.w3.org/2000/svg" xmlns:xlink="http://www.w3.org/1999/xlink">
    <!-- Generator: Sketch 63.1 (92452) - https://sketch.com -->
    <title>people copy</title>
    <desc>Created with Sketch.</desc>
    <g id="Page-1" stroke="none" stroke-width="1" fill="none" fill-rule="evenodd" fill-opacity="0.8">
        <g id="Initiative-single" transform="translate(-825.000000, -1059.000000)" fill="#FFFFFF" fill-rule="nonzero">
            <g id="Group-17" transform="translate(326.000000, 1037.000000)">
                <g id="Group-15" transform="translate(258.000000, 16.000000)">
                    <g id="people-copy" transform="translate(241.186567, 6.000000)">
                        <path d="M21.9402985,6.44444444 C22.619403,5.75 23.0373134,4.80555556 23.0373134,3.75 C23.0373134,1.69444444 21.4440299,0 19.511194,0 C17.5783582,0 15.9850746,1.69444444 15.9850746,3.75 C15.9850746,4.80555556 16.4029851,5.77777778 17.0559701,6.44444444 C16.5335821,6.72222222 16.0634328,7.11111111 15.6716418,7.55555556 C15.8022388,7.16666667 15.880597,6.72222222 15.880597,6.27777778 C15.880597,4.22222222 14.2873134,2.52777778 12.3544776,2.52777778 C10.4216418,2.52777778 8.82835821,4.22222222 8.82835821,6.27777778 C8.82835821,6.72222222 8.90671642,7.16666667 9.03731343,7.58333333 C8.64552239,7.13888889 8.17537313,6.75 7.65298507,6.47222222 C8.33208955,5.77777778 8.75,4.83333333 8.75,3.77777778 C8.75,1.72222222 7.15671642,0.0277777778 5.2238806,0.0277777778 C3.29104478,0.0277777778 1.7238806,1.69444444 1.7238806,3.75 C1.7238806,4.80555556 2.14179104,5.77777778 2.82089552,6.44444444 C1.14925373,7.38888889 0,9.25 0,11.3888889 L0,12.6388889 C0,13.1111111 0.339552239,13.4722222 0.78358209,13.4722222 C1.22761194,13.4722222 1.56716418,13.1111111 1.56716418,12.6388889 L1.56716418,11.3888889 C1.56716418,9.33333333 3.08208955,7.63888889 4.98880597,7.47222222 C5.06716418,7.47222222 5.17164179,7.5 5.25,7.5 C5.35447761,7.5 5.43283582,7.5 5.53731343,7.47222222 C6.94776119,7.58333333 8.17537313,8.55555556 8.67164179,9.97222222 C7.73134328,10.9722222 7.13059701,12.3888889 7.13059701,13.9166667 L7.13059701,15.1666667 C7.13059701,15.6388889 7.47014925,16 7.9141791,16 C8.35820896,16 8.69776119,15.6388889 8.69776119,15.1666667 L8.69776119,13.9166667 C8.69776119,11.8611111 10.2126866,10.1666667 12.119403,10.0277778 C12.1977612,10.0277778 12.3022388,10.0277778 12.380597,10.0277778 C12.4589552,10.0277778 12.5634328,10.0277778 12.641791,10.0277778 C13.3992537,10.0833333 14.1044776,10.3888889 14.6791045,10.8611111 C14.7052239,10.8888889 14.7313433,10.8888889 14.7574627,10.9166667 C15.5671642,11.6388889 16.0895522,12.7222222 16.0895522,13.9166667 L16.0895522,15.1666667 C16.0895522,15.6388889 16.4291045,16 16.8731343,16 C17.3171642,16 17.6567164,15.6388889 17.6567164,15.1666667 L17.6567164,13.9166667 C17.6567164,12.3611111 17.0559701,10.9722222 16.1156716,9.97222222 C16.6380597,8.58333333 17.8656716,7.61111111 19.2761194,7.5 C19.380597,7.5 19.4589552,7.52777778 19.5634328,7.52777778 C19.641791,7.52777778 19.7462687,7.52777778 19.8246269,7.5 C21.7313433,7.63888889 23.2462687,9.33333333 23.2462687,11.4166667 L23.2462687,12.6666667 C23.2462687,13.1388889 23.5858209,13.5 24.0298507,13.5 C24.4738806,13.5 24.8134328,13.1388889 24.8134328,12.6666667 L24.8134328,11.4166667 C24.761194,9.25 23.6119403,7.38888889 21.9402985,6.44444444 Z M3.29104478,3.75 C3.29104478,2.61111111 4.17910448,1.66666667 5.25,1.66666667 C6.32089552,1.66666667 7.20895522,2.61111111 7.20895522,3.75 C7.20895522,4.80555556 6.45149254,5.69444444 5.48507463,5.80555556 C5.40671642,5.80555556 5.32835821,5.80555556 5.25,5.80555556 C5.17164179,5.80555556 5.09328358,5.80555556 5.01492537,5.80555556 C4.04850746,5.69444444 3.29104478,4.80555556 3.29104478,3.75 Z M12.380597,4.19444444 C13.4514925,4.19444444 14.3395522,5.13888889 14.3395522,6.27777778 C14.3395522,7.33333333 13.5820896,8.22222222 12.6156716,8.33333333 C12.5373134,8.33333333 12.4589552,8.33333333 12.380597,8.33333333 C12.3022388,8.33333333 12.2238806,8.33333333 12.1455224,8.33333333 C11.1791045,8.22222222 10.4216418,7.33333333 10.4216418,6.27777778 C10.4216418,5.13888889 11.3097015,4.19444444 12.380597,4.19444444 Z M17.5522388,3.75 C17.5522388,2.61111111 18.4402985,1.66666667 19.511194,1.66666667 C20.5820896,1.66666667 21.4701493,2.61111111 21.4701493,3.75 C21.4701493,4.80555556 20.7126866,5.69444444 19.7462687,5.80555556 C19.6679104,5.80555556 19.5895522,5.80555556 19.511194,5.80555556 C19.4328358,5.80555556 19.3544776,5.80555556 19.2761194,5.80555556 C18.3097015,5.69444444 17.5522388,4.80555556 17.5522388,3.75 Z" id="Shape"></path>
                    </g>
                </g>
            </g>
        </g>
    </g>
</svg>