<?xml version="1.0" encoding="UTF-8"?>
<svg width="19px" height="12px" viewBox="0 0 19 12" version="1.1" xmlns="http://www.w3.org/2000/svg" xmlns:xlink="http://www.w3.org/1999/xlink">
    <!-- Generator: Sketch 63.1 (92452) - https://sketch.com -->
    <title>Shape</title>
    <desc>Created with Sketch.</desc>
    <g id="Page-1" stroke="none" stroke-width="1" fill="none" fill-rule="evenodd">
        <g id="Initiative-single" transform="translate(-1090.000000, -1728.000000)" fill="#61676C" fill-rule="nonzero">
            <g id="Group-9" transform="translate(202.000000, 1723.000000)">
                <g id="Group-16">
                    <path d="M904.8,9.83333333 C905.32,9.3125 905.64,8.60416667 905.64,7.8125 C905.64,6.27083333 904.42,5 902.94,5 C901.46,5 900.24,6.27083333 900.24,7.8125 C900.24,8.60416667 900.56,9.33333333 901.06,9.83333333 C900.66,10.0416667 900.3,10.3333333 900,10.6666667 C900.1,10.375 900.16,10.0416667 900.16,9.70833333 C900.16,8.16666667 898.94,6.89583333 897.46,6.89583333 C895.98,6.89583333 894.76,8.16666667 894.76,9.70833333 C894.76,10.0416667 894.82,10.375 894.92,10.6875 C894.62,10.3541667 894.26,10.0625 893.86,9.85416667 C894.38,9.33333333 894.7,8.625 894.7,7.83333333 C894.7,6.29166667 893.48,5.02083333 892,5.02083333 C890.52,5.02083333 889.32,6.27083333 889.32,7.8125 C889.32,8.60416667 889.64,9.33333333 890.16,9.83333333 C888.88,10.5416667 888,11.9375 888,13.5416667 L888,14.4791667 C888,14.8333333 888.26,15.1041667 888.6,15.1041667 C888.94,15.1041667 889.2,14.8333333 889.2,14.4791667 L889.2,13.5416667 C889.2,12 890.36,10.7291667 891.82,10.6041667 C891.88,10.6041667 891.96,10.625 892.02,10.625 C892.1,10.625 892.16,10.625 892.24,10.6041667 C893.32,10.6875 894.26,11.4166667 894.64,12.4791667 C893.92,13.2291667 893.46,14.2916667 893.46,15.4375 L893.46,16.375 C893.46,16.7291667 893.72,17 894.06,17 C894.4,17 894.66,16.7291667 894.66,16.375 L894.66,15.4375 C894.66,13.8958333 895.82,12.625 897.28,12.5208333 C897.34,12.5208333 897.42,12.5208333 897.48,12.5208333 C897.54,12.5208333 897.62,12.5208333 897.68,12.5208333 C898.26,12.5625 898.8,12.7916667 899.24,13.1458333 C899.26,13.1666667 899.28,13.1666667 899.3,13.1875 C899.92,13.7291667 900.32,14.5416667 900.32,15.4375 L900.32,16.375 C900.32,16.7291667 900.58,17 900.92,17 C901.26,17 901.52,16.7291667 901.52,16.375 L901.52,15.4375 C901.52,14.2708333 901.06,13.2291667 900.34,12.4791667 C900.74,11.4375 901.68,10.7083333 902.76,10.625 C902.84,10.625 902.9,10.6458333 902.98,10.6458333 C903.04,10.6458333 903.12,10.6458333 903.18,10.625 C904.64,10.7291667 905.8,12 905.8,13.5625 L905.8,14.5 C905.8,14.8541667 906.06,15.125 906.4,15.125 C906.74,15.125 907,14.8541667 907,14.5 L907,13.5625 C906.96,11.9375 906.08,10.5416667 904.8,9.83333333 Z M890.52,7.8125 C890.52,6.95833333 891.2,6.25 892.02,6.25 C892.84,6.25 893.52,6.95833333 893.52,7.8125 C893.52,8.60416667 892.94,9.27083333 892.2,9.35416667 C892.14,9.35416667 892.08,9.35416667 892.02,9.35416667 C891.96,9.35416667 891.9,9.35416667 891.84,9.35416667 C891.1,9.27083333 890.52,8.60416667 890.52,7.8125 Z M897.48,8.14583333 C898.3,8.14583333 898.98,8.85416667 898.98,9.70833333 C898.98,10.5 898.4,11.1666667 897.66,11.25 C897.6,11.25 897.54,11.25 897.48,11.25 C897.42,11.25 897.36,11.25 897.3,11.25 C896.56,11.1666667 895.98,10.5 895.98,9.70833333 C895.98,8.85416667 896.66,8.14583333 897.48,8.14583333 Z M901.44,7.8125 C901.44,6.95833333 902.12,6.25 902.94,6.25 C903.76,6.25 904.44,6.95833333 904.44,7.8125 C904.44,8.60416667 903.86,9.27083333 903.12,9.35416667 C903.06,9.35416667 903,9.35416667 902.94,9.35416667 C902.88,9.35416667 902.82,9.35416667 902.76,9.35416667 C902.02,9.27083333 901.44,8.60416667 901.44,7.8125 Z" id="Shape"></path>
                </g>
            </g>
        </g>
    </g>
</svg>