<svg xmlns="http://www.w3.org/2000/svg" width="24" height="24" viewBox="0 0 24 24">
  <g id="yellow_comment" transform="translate(-1961 -847)">
    <circle id="Ellipse_1" data-name="Ellipse 1" cx="12" cy="12" r="12" transform="translate(1961 847)" fill="rgba(121,246,213,0.08)"/>
    <g id="yellow-comment" transform="translate(2147 871)">
      <g id="Initiative-single" transform="translate(-1273 -1224)">
        <g id="iconfinder_Comments_1737374" transform="translate(1093 1207)">
          <path id="Path" d="M5.591,4.5h6.818a.407.407,0,0,0,.341-.45.407.407,0,0,0-.341-.45H5.591a.407.407,0,0,0-.341.45A.407.407,0,0,0,5.591,4.5Z" transform="translate(-3 -1.263)" fill="#79f6d5"/>
          <path id="Path-2" data-name="Path" d="M13.139,6.3H6.362A.413.413,0,0,0,6,6.75a.414.414,0,0,0,.362.45h6.777a.413.413,0,0,0,.361-.45A.413.413,0,0,0,13.139,6.3Z" transform="translate(-3.429 -2.211)" fill="#79f6d5"/>
          <path id="Path-3" data-name="Path" d="M11.655,9H5.595a.466.466,0,0,0,0,.9h6.06a.466.466,0,0,0,0-.9Z" transform="translate(-2.8 -3.158)" fill="#79f6d5"/>
          <path id="Shape" d="M10.328,0H1.672A1.73,1.73,0,0,0,0,1.779V7.252A1.73,1.73,0,0,0,1.672,9.031h5.1L10.46,12V9.025A1.741,1.741,0,0,0,12,7.252V1.779A1.73,1.73,0,0,0,10.328,0Zm.957,7.252a.957.957,0,0,1-.957.955H9.744v2.21L7,8.208H1.672a.957.957,0,0,1-.957-.955V1.779A.957.957,0,0,1,1.672.823h8.655a.957.957,0,0,1,.957.956Z" fill="#79f6d5"/>
        </g>
      </g>
    </g>
  </g>
</svg>
