<?xml version="1.0" encoding="UTF-8"?>
<svg width="15px" height="15px" viewBox="0 0 15 15" version="1.1" xmlns="http://www.w3.org/2000/svg" xmlns:xlink="http://www.w3.org/1999/xlink">
    <!-- Generator: Sketch 63.1 (92452) - https://sketch.com -->
    <title>iconfinder__share_2559783</title>
    <desc>Created with Sketch.</desc>
    <g id="Page-1" stroke="none" stroke-width="1" fill="none" fill-rule="evenodd" fill-opacity="0.25">
        <g id="Initiative-single" transform="translate(-368.000000, -773.000000)" fill="#000000" fill-rule="nonzero">
            <g id="Group-13" transform="translate(329.000000, 759.000000)">
                <g id="Group-12">
                    <g id="Group-5" transform="translate(15.000000, 8.000000)">
                        <g id="iconfinder__share_2559783" transform="translate(24.000000, 6.000000)">
                            <path d="M12.0905172,15 C10.5387931,15 9.31034483,13.7715517 9.24568966,12.2198276 L4.52586207,9.82758621 C4.00862069,10.2155172 3.49137931,10.3448276 2.84482759,10.3448276 C1.29310345,10.3448276 0,9.05172414 0,7.5 C0,5.94827586 1.29310345,4.65517241 2.84482759,4.65517241 C3.42672414,4.65517241 4.00862069,4.84913793 4.52586207,5.17241379 L9.24568966,2.78017241 C9.24568966,1.22844828 10.5387931,0 12.0905172,0 C13.6422414,0 14.9353448,1.29310345 14.9353448,2.84482759 C14.9353448,4.39655172 13.6422414,5.68965517 12.0905172,5.68965517 C11.5086207,5.68965517 10.9267241,5.49568966 10.4094828,5.17241379 L5.81896552,7.56465517 L10.4741379,9.89224138 C10.9267241,9.56896552 11.5086207,9.375 12.1551724,9.375 C13.7068966,9.375 15,10.6681034 15,12.2198276 C14.9353448,13.7068966 13.6422414,15 12.0905172,15 Z" id="Path"></path>
                        </g>
                    </g>
                </g>
            </g>
        </g>
    </g>
</svg>