<?xml version="1.0" encoding="UTF-8"?>
<svg width="19px" height="12px" viewBox="0 0 19 12" version="1.1" xmlns="http://www.w3.org/2000/svg" xmlns:xlink="http://www.w3.org/1999/xlink">
    <!-- Generator: Sketch 63.1 (92452) - https://sketch.com -->
    <title>people</title>
    <desc>Created with Sketch.</desc>
    <g id="Symbols" stroke="none" stroke-width="1" fill="none" fill-rule="evenodd">
        <g id="Card" transform="translate(-102.000000, -138.000000)" fill="#B620E0" fill-rule="nonzero">
            <g id="Group-3" transform="translate(12.000000, 131.000000)">
                <g id="Group-13" transform="translate(62.000000, 0.000000)">
                    <g id="people" transform="translate(28.000000, 7.000000)">
                        <path d="M16.8,4.83333333 C17.32,4.3125 17.64,3.60416667 17.64,2.8125 C17.64,1.27083333 16.42,0 14.94,0 C13.46,0 12.24,1.27083333 12.24,2.8125 C12.24,3.60416667 12.56,4.33333333 13.06,4.83333333 C12.66,5.04166667 12.3,5.33333333 12,5.66666667 C12.1,5.375 12.16,5.04166667 12.16,4.70833333 C12.16,3.16666667 10.94,1.89583333 9.46,1.89583333 C7.98,1.89583333 6.76,3.16666667 6.76,4.70833333 C6.76,5.04166667 6.82,5.375 6.92,5.6875 C6.62,5.35416667 6.26,5.0625 5.86,4.85416667 C6.38,4.33333333 6.7,3.625 6.7,2.83333333 C6.7,1.29166667 5.48,0.0208333333 4,0.0208333333 C2.52,0.0208333333 1.32,1.27083333 1.32,2.8125 C1.32,3.60416667 1.64,4.33333333 2.16,4.83333333 C0.88,5.54166667 0,6.9375 0,8.54166667 L0,9.47916667 C0,9.83333333 0.26,10.1041667 0.6,10.1041667 C0.94,10.1041667 1.2,9.83333333 1.2,9.47916667 L1.2,8.54166667 C1.2,7 2.36,5.72916667 3.82,5.60416667 C3.88,5.60416667 3.96,5.625 4.02,5.625 C4.1,5.625 4.16,5.625 4.24,5.60416667 C5.32,5.6875 6.26,6.41666667 6.64,7.47916667 C5.92,8.22916667 5.46,9.29166667 5.46,10.4375 L5.46,11.375 C5.46,11.7291667 5.72,12 6.06,12 C6.4,12 6.66,11.7291667 6.66,11.375 L6.66,10.4375 C6.66,8.89583333 7.82,7.625 9.28,7.52083333 C9.34,7.52083333 9.42,7.52083333 9.48,7.52083333 C9.54,7.52083333 9.62,7.52083333 9.68,7.52083333 C10.26,7.5625 10.8,7.79166667 11.24,8.14583333 C11.26,8.16666667 11.28,8.16666667 11.3,8.1875 C11.92,8.72916667 12.32,9.54166667 12.32,10.4375 L12.32,11.375 C12.32,11.7291667 12.58,12 12.92,12 C13.26,12 13.52,11.7291667 13.52,11.375 L13.52,10.4375 C13.52,9.27083333 13.06,8.22916667 12.34,7.47916667 C12.74,6.4375 13.68,5.70833333 14.76,5.625 C14.84,5.625 14.9,5.64583333 14.98,5.64583333 C15.04,5.64583333 15.12,5.64583333 15.18,5.625 C16.64,5.72916667 17.8,7 17.8,8.5625 L17.8,9.5 C17.8,9.85416667 18.06,10.125 18.4,10.125 C18.74,10.125 19,9.85416667 19,9.5 L19,8.5625 C18.96,6.9375 18.08,5.54166667 16.8,4.83333333 Z M2.52,2.8125 C2.52,1.95833333 3.2,1.25 4.02,1.25 C4.84,1.25 5.52,1.95833333 5.52,2.8125 C5.52,3.60416667 4.94,4.27083333 4.2,4.35416667 C4.14,4.35416667 4.08,4.35416667 4.02,4.35416667 C3.96,4.35416667 3.9,4.35416667 3.84,4.35416667 C3.1,4.27083333 2.52,3.60416667 2.52,2.8125 Z M9.48,3.14583333 C10.3,3.14583333 10.98,3.85416667 10.98,4.70833333 C10.98,5.5 10.4,6.16666667 9.66,6.25 C9.6,6.25 9.54,6.25 9.48,6.25 C9.42,6.25 9.36,6.25 9.3,6.25 C8.56,6.16666667 7.98,5.5 7.98,4.70833333 C7.98,3.85416667 8.66,3.14583333 9.48,3.14583333 Z M13.44,2.8125 C13.44,1.95833333 14.12,1.25 14.94,1.25 C15.76,1.25 16.44,1.95833333 16.44,2.8125 C16.44,3.60416667 15.86,4.27083333 15.12,4.35416667 C15.06,4.35416667 15,4.35416667 14.94,4.35416667 C14.88,4.35416667 14.82,4.35416667 14.76,4.35416667 C14.02,4.27083333 13.44,3.60416667 13.44,2.8125 Z" id="Shape"></path>
                    </g>
                </g>
            </g>
        </g>
    </g>
</svg>